<svg width="445" height="473" viewBox="0 0 445 473" fill="none" xmlns="http://www.w3.org/2000/svg">
<path d="M348.278 167.003H338.034V177.247H348.278V167.003Z" fill="#E0E0E0"/>
<path d="M342.572 272.792H332.328V283.036H342.572V272.792Z" fill="#E0E0E0"/>
<path d="M358.774 302.206H343.308V317.673H358.774V302.206Z" fill="#E0E0E0"/>
<path d="M105.192 281.778H89.7256V297.245H105.192V281.778Z" fill="#E0E0E0"/>
<path d="M82.9728 268.305H72.9805V278.297H82.9728V268.305Z" fill="#E0E0E0"/>
<path d="M110.194 328.772H100.202V338.765H110.194V328.772Z" fill="#E0E0E0"/>
<path d="M68.1101 195.913H60.875V203.148H68.1101V195.913Z" fill="#E0E0E0"/>
<path d="M374.331 182.811H370.507V186.634H374.331V182.811Z" fill="#E0E0E0"/>
<path d="M337.883 150.6H331.977V156.506H337.883V150.6Z" fill="#E0E0E0"/>
<path d="M367.86 267.6H361.953V273.506H367.86V267.6Z" fill="#E0E0E0"/>
<path d="M102.486 175.042H92.4434V185.085H102.486V175.042Z" fill="#E0E0E0"/>
<path d="M0.288086 171.762L34.9945 172.345L18.0891 150.6L0.288086 171.762Z" fill="#F5F5F5"/>
<path d="M16.4189 188.818H10.5322V194.705H16.4189V188.818Z" fill="#F5F5F5"/>
<path d="M22.0342 195.259H16.1475V201.145H22.0342V195.259Z" fill="#F5F5F5"/>
<path d="M15.0504 203.178H10.5322V207.696H15.0504V203.178Z" fill="#F5F5F5"/>
<path d="M25.9684 190.228H21.4502V194.746H25.9684V190.228Z" fill="#F5F5F5"/>
<path d="M10.5319 195.762H7.30176V198.992H10.5319V195.762Z" fill="#F5F5F5"/>
<path d="M19.9005 213.382H16.127V209.599H19.9005V213.382ZM16.6703 212.819H19.337V210.162H16.6905L16.6703 212.819Z" fill="#F5F5F5"/>
<path d="M25.3337 200.823H22.1035V204.053H25.3337V200.823Z" fill="#F5F5F5"/>
<path d="M25.5554 168.925L9.0022 169.116L7.93555 190.308H26.0485L25.5554 168.925ZM19.7291 186.575H16.509V183.355H19.7291V186.575Z" fill="#F5F5F5"/>
<path d="M8.50879 380.635L64.6992 381.641L37.3185 345.214L8.50879 380.635Z" fill="#EBEBEB"/>
<path d="M34.6034 409.183H25.084V419.024H34.6034V409.183Z" fill="#EBEBEB"/>
<path d="M43.6981 419.97H34.1787V429.811H43.6981V419.97Z" fill="#EBEBEB"/>
<path d="M32.3996 433.232H25.084V440.8H32.3996V433.232Z" fill="#EBEBEB"/>
<path d="M50.0891 411.549H42.7734V419.116H50.0891V411.549Z" fill="#EBEBEB"/>
<path d="M25.0819 420.815H19.8594V426.219H25.0819V420.815Z" fill="#EBEBEB"/>
<path d="M40.2877 450.309H34.1494V443.97H40.2877V450.309ZM35.0651 449.373H39.372V444.906H35.0651V449.373Z" fill="#EBEBEB"/>
<path d="M49.0419 429.279H43.8193V434.683H49.0419V429.279Z" fill="#EBEBEB"/>
<path d="M49.414 375.886L22.6069 376.218L20.9062 411.689H50.1788L49.414 375.886ZM40.0255 405.4H34.7627V400.006H40.0255V405.4Z" fill="#EBEBEB"/>
<path d="M20.9062 65.4194L78.908 66.4257L50.6719 30.0488L20.9062 65.4194Z" fill="#E0E0E0"/>
<path d="M47.8655 93.918H38.0342V103.749H47.8655V93.918Z" fill="#E0E0E0"/>
<path d="M57.2542 104.684H47.4229V114.515H57.2542V104.684Z" fill="#E0E0E0"/>
<path d="M45.5812 117.927H38.0342V125.474H45.5812V117.927Z" fill="#E0E0E0"/>
<path d="M63.8449 96.2812H56.2979V103.828H63.8449V96.2812Z" fill="#E0E0E0"/>
<path d="M38.0343 105.539H32.6406V110.933H38.0343V105.539Z" fill="#E0E0E0"/>
<path d="M53.7221 134.973H47.3926V128.644H53.7221V134.973ZM48.3385 134.037H52.7862V129.589H48.3385V134.037Z" fill="#E0E0E0"/>
<path d="M62.7677 113.982H57.374V119.376H62.7677V113.982Z" fill="#E0E0E0"/>
<path d="M63.1712 60.6787L35.4986 61.0108L33.7275 96.4216H63.946L63.1712 60.6787ZM53.4405 90.1425H48.077V84.7488H53.4707L53.4405 90.1425Z" fill="#E0E0E0"/>
<path d="M329.833 370.189L379.654 371.025L355.382 339.83L329.833 370.189Z" fill="#F5F5F5"/>
<path d="M352.937 394.672H344.494V403.115H352.937V394.672Z" fill="#F5F5F5"/>
<path d="M360.998 403.91H352.556V412.353H360.998V403.91Z" fill="#F5F5F5"/>
<path d="M350.985 415.281H344.494V421.772H350.985V415.281Z" fill="#F5F5F5"/>
<path d="M366.663 396.694H360.173V403.185H366.663V396.694Z" fill="#F5F5F5"/>
<path d="M344.484 404.646H339.855V409.274H344.484V404.646Z" fill="#F5F5F5"/>
<path d="M358.009 429.933H352.575V424.499H358.009V429.933ZM353.38 429.128H357.204V425.304H353.38V429.128Z" fill="#F5F5F5"/>
<path d="M365.728 411.9H361.099V416.529H365.728V411.9Z" fill="#F5F5F5"/>
<path d="M366.06 366.113L342.292 366.395L340.763 396.815H366.735L366.06 366.113ZM357.698 391.421H353.059V386.822H357.698V391.421Z" fill="#F5F5F5"/>
<path d="M313.863 46.33L363.684 47.1653L339.403 15.9707L313.863 46.33Z" fill="#F5F5F5"/>
<path d="M336.998 70.8125H328.556V79.2552H336.998V70.8125Z" fill="#F5F5F5"/>
<path d="M345.059 80.0498H336.616V88.4925H345.059V80.0498Z" fill="#F5F5F5"/>
<path d="M335.046 91.4199H328.556V97.9104H335.046V91.4199Z" fill="#F5F5F5"/>
<path d="M350.734 72.835H344.243V79.3254H350.734V72.835Z" fill="#F5F5F5"/>
<path d="M328.556 80.7842H323.927V85.413H328.556V80.7842Z" fill="#F5F5F5"/>
<path d="M342.03 106.073H336.596V100.639H342.03V106.073ZM337.401 105.268H341.225V101.444H337.401V105.268Z" fill="#F5F5F5"/>
<path d="M349.797 88.04H345.168V92.6689H349.797V88.04Z" fill="#F5F5F5"/>
<path d="M350.131 42.2549L326.362 42.5366L324.803 72.9564H350.785L350.131 42.2549ZM341.769 67.5627H337.14V62.9339H341.769V67.5627Z" fill="#F5F5F5"/>
<path d="M380.037 218.172L437.495 219.178L409.501 183.174L380.037 218.172Z" fill="#EBEBEB"/>
<path d="M406.723 246.407H396.982V256.148H406.723V246.407Z" fill="#EBEBEB"/>
<path d="M416.021 257.074H406.28V266.815H416.021V257.074Z" fill="#EBEBEB"/>
<path d="M404.469 270.186H396.982V277.672H404.469V270.186Z" fill="#EBEBEB"/>
<path d="M422.562 248.741H415.075V256.228H422.562V248.741Z" fill="#EBEBEB"/>
<path d="M396.982 257.919H391.639V263.262H396.982V257.919Z" fill="#EBEBEB"/>
<path d="M412.529 287.082H406.311V280.812H412.58L412.529 287.082ZM407.186 286.156H411.604V281.738H407.186V286.156Z" fill="#EBEBEB"/>
<path d="M421.484 266.281H416.141V271.625H421.484V266.281Z" fill="#EBEBEB"/>
<path d="M421.867 213.472L394.456 213.804L392.695 248.883H422.652L421.867 213.472ZM412.227 242.654H406.884V237.31H412.227V242.654Z" fill="#EBEBEB"/>
<path d="M444.026 472.736C444.026 472.887 345.411 472.998 223.652 472.998C101.892 472.998 3.27734 472.887 3.27734 472.736C3.27734 472.585 101.892 472.475 223.652 472.475C345.411 472.475 444.026 472.595 444.026 472.736Z" fill="#263238"/>
<path d="M283.546 472.739L146.692 472.668C130.23 472.668 116.886 459.929 116.896 444.241L116.957 117.201C116.957 101.504 130.32 88.7741 146.793 88.7842L283.646 88.8647C300.109 88.8647 313.452 101.594 313.442 117.282L313.382 444.322C313.342 460.03 299.988 472.749 283.546 472.739Z" fill="#263238"/>
<path d="M282.539 100.365H256.024H178.54H145.947C134.415 100.365 125.057 109.261 125.057 120.259L124.986 439.47C124.986 450.459 134.335 459.374 145.856 459.374L282.479 459.455C294.01 459.455 303.369 450.549 303.369 439.561L303.439 120.34C303.439 109.281 294.101 100.375 282.539 100.365Z" fill="white"/>
<path d="M272.516 128.622H263.479V136.853H272.516V128.622Z" fill="#1C4A9D"/>
<path d="M174.989 127.858H171.186V130.857H174.989V127.858Z" fill="#1C4A9D"/>
<path d="M263.521 122.312H259.717V125.311H263.521V122.312Z" fill="#1C4A9D"/>
<path d="M232.839 107.077H227.043V112.441H232.839V107.077Z" fill="#1C4A9D"/>
<path d="M172.422 136.994H161.142V146.936H172.422V136.994Z" fill="#1C4A9D"/>
<path d="M209.353 115.138H205.721V118.136H209.353V115.138Z" fill="#1C4A9D"/>
<path d="M254.867 122.362H182.697L181.861 285.148H254.867V122.362Z" fill="#1C4A9D"/>
<path d="M222 120.834H214.151V127.314H222V120.834Z" fill="white"/>
<path d="M244.512 120.935H236.975V131.601H244.512V120.935Z" fill="white"/>
<path d="M250.731 120.773H245.75V129.77H250.731V120.773Z" fill="white"/>
<path d="M190.536 121.267H183.804V130.856H190.536V121.267Z" fill="white"/>
<path d="M201.192 121.921H197.529V128.623H201.192V121.921Z" fill="white"/>
<path d="M233.172 118.309H226.018V124.205H233.172V118.309Z" fill="#1C4A9D"/>
<path d="M216.015 77.5841C216.003 78.1784 215.816 78.7561 215.477 79.2445C215.138 79.7329 214.662 80.1105 214.11 80.3297C213.557 80.549 212.952 80.6002 212.371 80.477C211.789 80.3538 211.257 80.0616 210.841 79.6371C210.425 79.2126 210.143 78.6747 210.031 78.0908C209.92 77.5069 209.983 76.9031 210.213 76.3549C210.443 75.8068 210.83 75.3389 211.325 75.0098C211.82 74.6806 212.401 74.505 212.996 74.5049C213.397 74.5048 213.795 74.5848 214.165 74.7403C214.535 74.8958 214.871 75.1236 215.152 75.4103C215.433 75.6971 215.654 76.037 215.802 76.4103C215.95 76.7835 216.023 77.1826 216.015 77.5841Z" fill="#1C4A9D"/>
<path d="M155.709 67.592C157.387 67.592 158.748 66.2134 158.748 64.5128C158.748 62.8122 157.387 61.4336 155.709 61.4336C154.031 61.4336 152.67 62.8122 152.67 64.5128C152.67 66.2134 154.031 67.592 155.709 67.592Z" fill="#1C4A9D"/>
<path d="M183.32 124.104H182.314L183.119 72.12H148.04L148.845 71.2747C149.077 71.0332 154.52 65.2371 155.798 64.3516L156.392 65.1566C155.557 65.7805 152.448 68.9603 150.354 71.1137H184.115L183.32 124.104Z" fill="#1C4A9D"/>
<path d="M164.996 58.1833C165.036 58.7873 164.894 59.3895 164.588 59.9117C164.282 60.4339 163.825 60.8519 163.278 61.1116C162.732 61.3712 162.119 61.4605 161.521 61.3677C160.923 61.275 160.366 61.0045 159.924 60.5915C159.481 60.1784 159.173 59.6419 159.039 59.0515C158.906 58.4611 158.953 57.8441 159.174 57.2807C159.395 56.7172 159.781 56.2333 160.281 55.8919C160.781 55.5504 161.372 55.3671 161.977 55.3657C162.75 55.3413 163.502 55.6239 164.068 56.1518C164.633 56.6797 164.967 57.4101 164.996 58.1833Z" fill="#1C4A9D"/>
<path d="M170.611 51.1091C170.651 51.7131 170.509 52.3153 170.203 52.8375C169.897 53.3597 169.441 53.7777 168.894 54.0374C168.347 54.297 167.735 54.3863 167.136 54.2935C166.538 54.2008 165.982 53.9303 165.539 53.5173C165.097 53.1042 164.788 52.5676 164.655 51.9772C164.521 51.3868 164.568 50.7699 164.789 50.2064C165.011 49.643 165.396 49.1591 165.896 48.8176C166.396 48.4762 166.987 48.2929 167.592 48.2915C168.366 48.267 169.117 48.5496 169.683 49.0776C170.248 49.6055 170.582 50.3359 170.611 51.1091Z" fill="#1C4A9D"/>
<path d="M188.271 37.473C189.711 37.473 190.878 36.2116 190.878 34.6555C190.878 33.0994 189.711 31.8379 188.271 31.8379C186.832 31.8379 185.665 33.0994 185.665 34.6555C185.665 36.2116 186.832 37.473 188.271 37.473Z" fill="#1C4A9D"/>
<path d="M215.722 37.5129C215.718 38.0653 215.55 38.6042 215.241 39.0615C214.931 39.5189 214.492 39.8743 213.981 40.083C213.469 40.2916 212.908 40.3442 212.366 40.234C211.825 40.1238 211.328 39.8558 210.939 39.4637C210.55 39.0717 210.286 38.5732 210.179 38.0312C210.073 37.4891 210.129 36.9276 210.342 36.4176C210.554 35.9076 210.913 35.4719 211.372 35.1654C211.832 34.8589 212.372 34.6953 212.924 34.6953C213.668 34.7006 214.38 34.9998 214.904 35.5276C215.428 36.0555 215.722 36.7691 215.722 37.5129Z" fill="#1C4A9D"/>
<path d="M221.508 14.5002C221.502 15.0502 221.334 15.5861 221.024 16.0405C220.714 16.4949 220.277 16.8474 219.767 17.0538C219.257 17.2601 218.697 17.311 218.159 17.2001C217.62 17.0892 217.126 16.8213 216.739 16.4303C216.353 16.0393 216.09 15.5426 215.985 15.0028C215.88 14.4629 215.937 13.904 216.149 13.3965C216.36 12.8889 216.718 12.4553 217.175 12.1504C217.633 11.8454 218.171 11.6826 218.721 11.6826C219.464 11.6879 220.174 11.9875 220.697 12.5156C221.219 13.0437 221.511 13.7573 221.508 14.5002Z" fill="#1C4A9D"/>
<path d="M236.281 22.1078C237.787 22.1078 239.008 20.8463 239.008 19.2902C239.008 17.7341 237.787 16.4727 236.281 16.4727C234.775 16.4727 233.554 17.7341 233.554 19.2902C233.554 20.8463 234.775 22.1078 236.281 22.1078Z" fill="#1C4A9D"/>
<path d="M265.433 45.4233C265.392 45.9298 265.204 46.4133 264.893 46.8149C264.582 47.2164 264.16 47.5187 263.68 47.6847C263.2 47.8507 262.682 47.8733 262.189 47.7498C261.696 47.6262 261.25 47.3618 260.905 46.9889C260.56 46.6159 260.331 46.1506 260.246 45.6497C260.161 45.1487 260.224 44.6339 260.426 44.168C260.629 43.7021 260.963 43.3054 261.388 43.0261C261.812 42.7469 262.309 42.5974 262.817 42.5957C263.175 42.6087 263.526 42.6922 263.852 42.8415C264.177 42.9908 264.47 43.2029 264.713 43.4657C264.956 43.7284 265.145 44.0366 265.268 44.3726C265.392 44.7086 265.448 45.0657 265.433 45.4233Z" fill="#1C4A9D"/>
<path d="M226.247 52.3068C226.228 52.8395 226.052 53.3545 225.741 53.7879C225.431 54.2213 225 54.5538 224.502 54.7441C224.005 54.9344 223.462 54.974 222.941 54.8581C222.421 54.7422 221.947 54.4758 221.577 54.0921C221.207 53.7085 220.958 53.2244 220.861 52.7003C220.764 52.1762 220.823 51.6352 221.031 51.1446C221.24 50.6539 221.588 50.2354 222.032 49.9411C222.476 49.6468 222.998 49.4896 223.53 49.4893C223.894 49.4958 224.253 49.5739 224.586 49.719C224.919 49.8642 225.22 50.0736 225.473 50.3352C225.725 50.5969 225.923 50.9057 226.056 51.2439C226.189 51.5822 226.254 51.9434 226.247 52.3068Z" fill="#1C4A9D"/>
<path d="M238.324 51.3804C238.303 51.9129 238.125 52.4273 237.813 52.8595C237.501 53.2917 237.069 53.6226 236.57 53.8111C236.072 53.9996 235.529 54.0372 235.009 53.9194C234.489 53.8016 234.015 53.5335 233.647 53.1485C233.278 52.7635 233.031 52.2786 232.936 51.7541C232.841 51.2297 232.902 50.6889 233.112 50.199C233.322 49.7092 233.672 49.2919 234.117 48.9992C234.563 48.7065 235.084 48.5512 235.617 48.5527C235.981 48.5593 236.34 48.6377 236.673 48.7836C237.007 48.9295 237.308 49.14 237.56 49.4029C237.811 49.6657 238.008 49.9758 238.14 50.3152C238.271 50.6546 238.334 51.0166 238.324 51.3804Z" fill="#1C4A9D"/>
<path d="M271.681 58.3734C273.121 58.3734 274.288 57.112 274.288 55.5559C274.288 53.9998 273.121 52.7383 271.681 52.7383C270.242 52.7383 269.075 53.9998 269.075 55.5559C269.075 57.112 270.242 58.3734 271.681 58.3734Z" fill="#1C4A9D"/>
<path d="M229.78 8.46212C229.774 9.01252 229.605 9.54883 229.295 10.0034C228.984 10.458 228.546 10.8106 228.036 11.0166C227.525 11.2227 226.965 11.273 226.427 11.1612C225.888 11.0495 225.394 10.7807 225.007 10.3887C224.621 9.99666 224.359 9.49903 224.255 8.95852C224.151 8.418 224.21 7.8588 224.423 7.35141C224.636 6.84402 224.995 6.41116 225.454 6.1074C225.913 5.80365 226.452 5.64259 227.002 5.64455C227.743 5.65251 228.451 5.9532 228.972 6.48102C229.492 7.00884 229.782 7.72098 229.78 8.46212Z" fill="#1C4A9D"/>
<path d="M202.228 128.119H201.222V95.0023C200.377 94.3683 196.07 91.7721 193.383 90.1721L193.132 90.0312V64.4819L173.127 64.2505L164.07 58.092L164.644 57.2568L173.409 63.2945L194.108 63.5259V89.4979C202.158 94.2979 202.158 94.4589 202.158 94.8211L202.228 128.119Z" fill="#1C4A9D"/>
<path d="M214.193 125.895H213.186V91.5708L203.486 84.7684V54.6707L181.78 40.4118C177.635 44.2759 171.627 49.9211 171.305 50.3035L170.53 49.6494C170.983 49.116 180.321 40.3916 181.378 39.4055L181.67 39.1338L204.502 54.1273V84.2451L214.203 91.0476L214.193 125.895Z" fill="#1C4A9D"/>
<path d="M213.489 78.2085H212.482V46.8027L226.59 37.6657V11.1201H227.597V38.2091L213.489 47.3461V78.2085Z" fill="#1C4A9D"/>
<path d="M213.428 37.5147H212.422V23.447L218.218 20.5791V14.4609H219.224V21.203L213.428 24.0709V37.5147Z" fill="#1C4A9D"/>
<path d="M222.957 126.761H221.951V88.4317L230.022 81.3072V76.3564L223.259 70.2382V54.3994H224.266V69.7854L231.028 75.9136V81.7601L222.957 88.8845V126.761Z" fill="#1C4A9D"/>
<path d="M236.975 51.3809H235.969V130.082H236.975V51.3809Z" fill="#1C4A9D"/>
<path d="M245.628 131.35H244.622L244.813 63.6276L258.096 55.2051H272.013V56.2114H258.388L245.82 64.1911L245.628 131.35Z" fill="#1C4A9D"/>
<path d="M254.967 138.756H253.961V70.571L285.799 69.7559L272.346 57.4592L273.02 56.7246L288.325 70.7018L254.967 71.5471V138.756Z" fill="#1C4A9D"/>
<path d="M263.42 46.0469L251.536 43.8532L237.257 29.1214V28.9704C236.855 26.827 235.557 19.7932 235.557 19.29H236.563C236.563 19.7227 237.569 25.1969 238.213 28.6484L252.13 42.9275L263.702 45.0708L263.42 46.0469Z" fill="#1C4A9D"/>
<path d="M190.062 33.9719L189.76 33.0159L197.88 30.4398L204.341 24.0097L198.957 20.357L218.7 0L226.579 7.16468L225.905 7.90933L218.741 1.39872L200.517 20.196L205.921 23.8588L198.414 31.3254L190.062 33.9719Z" fill="#1C4A9D"/>
<path d="M272.517 146.937H264.869V154.584H272.517V146.937Z" fill="#1C4A9D"/>
<path d="M157.368 134.841H148.704V126.197H157.368V134.841ZM149.71 133.835H156.362V127.204H149.71V133.835Z" fill="#1C4A9D"/>
<path d="M101.832 221.984H86.5361V237.28H101.832V221.984Z" fill="#263238"/>
<path d="M346.417 223.987H331.122V239.283H346.417V223.987Z" fill="#263238"/>
<path d="M323.776 193.548H319.952V197.372H323.776V193.548Z" fill="#263238"/>
<path d="M284.793 182.78H277.377V190.197H284.793V182.78Z" fill="#189E98"/>
<path d="M275.535 175.676H271.007V180.204H275.535V175.676Z" fill="#189E98"/>
<path d="M291.706 161.678H286.182V156.144H291.706V161.678ZM287.188 160.672H290.7V157.15H287.188V160.672Z" fill="#189E98"/>
<path d="M334.423 205.843H327.5V198.93H334.423V205.843ZM328.506 204.837H333.417V199.936H328.506V204.837Z" fill="#263238"/>
<path d="M71.7041 221.32H64.791V214.407H71.7041V221.32ZM65.7973 220.314H70.6979V215.414H65.7973V220.314Z" fill="#263238"/>
<path d="M151.401 205.653H141.358V215.696H151.401V205.653Z" fill="#189E98"/>
<path d="M156.493 189.009H151.392V194.111H156.493V189.009Z" fill="#189E98"/>
<path d="M101.761 154.826H96.6592V159.928H101.761V154.826Z" fill="#263238"/>
<path d="M354.638 243.258H349.536V248.36H354.638V243.258Z" fill="#263238"/>
<path d="M87.1809 247.584H82.0791V252.686H87.1809V247.584Z" fill="#263238"/>
<path d="M145.605 176.602H136.921V185.286H145.605V176.602Z" fill="#189E98"/>
<path d="M168.649 172.938H160.78V165.039H168.69L168.649 172.938ZM161.746 171.932H167.643V166.045H161.787L161.746 171.932Z" fill="#189E98"/>
<path d="M179.474 261.321L135.631 282.252L144.235 390.115L143.238 459.377L278.935 459.457L278.19 399.704L282.044 375.594L300.177 282.252L248.958 259.973L238.684 253.05L187.615 253.171L179.474 261.321Z" fill="#E0E0E0"/>
<g opacity="0.2">
<path d="M143.017 432.238C145.281 435.106 149.578 435.257 153.16 434.502C165.235 432.097 176.194 423.433 188.38 424.882C196.178 425.828 203.776 430.92 211.323 428.757C213.929 428.012 216.284 426.422 218.96 426.05C222.885 425.506 226.608 427.62 230.12 429.441C245.042 437.165 261.723 440.859 278.512 440.158L285.364 421.904L223.982 405.985L174.785 403.167L143.067 421.703L143.017 432.238Z" fill="black"/>
</g>
<path d="M208.656 459.376C208.515 459.376 209.25 422.023 210.306 375.966C211.363 329.909 212.319 292.546 212.48 292.556C212.641 292.566 211.886 329.899 210.83 375.976C209.773 422.053 208.807 459.386 208.656 459.376Z" fill="#263238"/>
<path d="M298.256 282.252C298.256 282.252 309.808 285.381 315.886 310.498C318.452 321.064 331.805 409.113 329.973 421.37C328.142 433.626 309.626 446.074 281.924 442.23C266.638 440.106 240.324 426.673 240.324 426.673L260.621 399.614H280.122L287.831 393.838L281.612 369.979C281.612 369.979 293.727 289.99 298.256 282.252Z" fill="#E0E0E0"/>
<path d="M315.885 395.045C315.835 395.136 314.426 394.2 312.001 393.033C308.862 391.413 305.45 390.39 301.938 390.014C300.014 389.864 298.077 389.976 296.183 390.346L294.915 390.638C294.512 390.749 294.13 390.889 293.747 391C293.063 391.229 292.391 391.495 291.735 391.795C289.28 392.922 287.911 393.938 287.851 393.808C288.135 393.53 288.449 393.284 288.786 393.073C289.671 392.454 290.603 391.905 291.574 391.433C292.245 391.098 292.937 390.809 293.647 390.567C294.029 390.437 294.422 390.276 294.834 390.165L296.122 389.843C298.06 389.435 300.045 389.306 302.019 389.461C305.589 389.82 309.05 390.898 312.192 392.63C313.145 393.136 314.068 393.694 314.96 394.301C315.297 394.511 315.608 394.761 315.885 395.045Z" fill="#263238"/>
<path d="M267.262 399.705C267.543 399.645 267.83 399.622 268.117 399.634L270.502 399.564L279.045 399.473H278.924L286.643 394.502L286.572 394.563C287.095 393.949 287.629 393.285 288.253 392.681C289.358 391.532 290.578 390.5 291.895 389.602C295.196 387.316 298.987 385.837 302.964 385.285C304.63 385.047 306.317 384.987 307.996 385.104C308.589 385.154 309.002 385.234 309.354 385.275C309.516 385.286 309.675 385.319 309.827 385.375C309.213 385.389 308.598 385.369 307.986 385.315C303.837 385.197 299.72 386.062 295.971 387.841C294.657 388.461 293.398 389.192 292.207 390.024C290.919 390.905 289.725 391.917 288.645 393.043C288.041 393.637 287.518 394.291 287.005 394.885L279.166 399.906H279.096L270.552 399.815L268.167 399.755C267.865 399.764 267.562 399.747 267.262 399.705Z" fill="#263238"/>
<path d="M212.481 292.556C212.495 292.602 212.495 292.651 212.481 292.697C212.478 292.73 212.467 292.762 212.449 292.79C212.432 292.818 212.408 292.841 212.38 292.858C212.339 292.876 212.294 292.885 212.249 292.885C212.204 292.885 212.16 292.876 212.118 292.858C211.619 292.634 211.166 292.321 210.78 291.932C209.314 290.548 207.93 289.08 206.634 287.535C203.253 283.631 198.745 277.955 193.693 271.264H194.066C193.57 271.945 193.161 272.685 192.848 273.467C192.476 274.272 192.134 275.118 191.842 275.963C191.168 277.673 190.524 279.445 189.9 281.246C188.833 284.385 187.807 287.465 187.112 290.393L186.961 291.017L186.639 290.473C182.952 284.171 180.606 277.176 179.746 269.925C179.494 267.818 179.377 265.697 179.394 263.576C179.394 262.831 179.394 262.257 179.465 261.875C179.466 261.676 179.483 261.478 179.515 261.281C179.538 261.478 179.538 261.678 179.515 261.875C179.515 262.257 179.515 262.831 179.515 263.576C179.563 265.686 179.728 267.792 180.008 269.885C180.974 277.063 183.369 283.975 187.052 290.212L186.579 290.282C187.283 287.263 188.3 284.244 189.377 281.075C190 279.263 190.644 277.482 191.329 275.772C191.671 274.916 192.013 274.081 192.385 273.256C192.723 272.414 193.173 271.622 193.724 270.901L193.915 270.68L194.106 270.931C199.137 277.643 203.585 283.349 206.886 287.293C208.536 289.306 209.905 290.805 210.911 291.771C211.269 292.173 211.691 292.513 212.159 292.778C212.33 292.848 212.44 292.778 212.46 292.677C212.481 292.576 212.46 292.546 212.481 292.556Z" fill="#263238"/>
<path d="M248.958 259.974C248.997 260.152 249.013 260.335 249.008 260.517C249.008 260.879 249.008 261.403 249.008 262.097C249.008 263.465 248.928 265.478 248.706 267.974C248.304 273.005 247.116 279.948 245.859 287.958L245.768 288.552L245.406 288.069C243.605 285.684 241.864 283.037 240.062 280.24C238.654 278.087 237.265 275.994 235.806 274.051L236.158 274.102C229.205 279.133 222.956 283.329 218.88 286.851C216.817 288.562 215.217 290.001 214.131 291.007L212.893 292.164C212.756 292.306 212.608 292.438 212.45 292.557C212.45 292.557 212.561 292.386 212.823 292.104C213.084 291.822 213.487 291.4 214.01 290.876C215.016 289.87 216.626 288.351 218.669 286.59C222.694 282.997 228.913 278.731 235.866 273.679L236.067 273.538L236.218 273.739C237.688 275.692 239.096 277.765 240.505 279.958C242.296 282.715 244.027 285.392 245.808 287.767L245.355 287.878C246.653 279.827 247.891 272.934 248.374 267.943C248.636 265.458 248.777 263.465 248.827 262.087C248.827 261.403 248.827 260.879 248.827 260.517C248.852 260.332 248.896 260.15 248.958 259.974Z" fill="#263238"/>
<path d="M275.041 335.988C275.041 336.129 267.062 335.515 257.25 334.619C247.439 333.724 239.49 332.879 239.51 332.728C239.53 332.577 247.48 333.201 257.301 334.096C267.122 334.992 275.051 335.837 275.041 335.988Z" fill="#263238"/>
<path d="M186.871 214.67C183.943 206.026 181.055 197.322 179.656 188.316C178.257 179.31 178.428 169.891 181.498 161.307C181.961 159.999 185.966 151.245 187.334 151.375C188.34 151.466 185.895 159.607 186.398 160.432C191.248 168.482 192.657 178.303 192.013 187.712C191.303 196.854 189.578 205.889 186.871 214.65" fill="#263238"/>
<path d="M261.124 176.341C260.719 166.074 256.463 156.337 249.204 149.065C241.946 141.793 232.216 137.52 221.95 137.096L219.837 137.016C196.964 137.408 184.527 157.041 185.543 179.893L187.676 255.525L212.451 289.859L238.614 261.432C238.614 254.991 238.614 253.049 238.664 253.049C238.715 253.049 260.732 250.544 261.909 228.627C262.503 218.041 261.899 196.144 261.124 176.341Z" fill="#FFBF9D"/>
<path d="M238.685 253.05C238.685 253.05 224.828 253.291 210.509 243.43C210.509 243.43 216.697 260.194 238.685 259.128V253.05Z" fill="#FF9A6C"/>
<path d="M250.89 195.964C250.859 196.779 250.512 197.55 249.922 198.113C249.332 198.677 248.546 198.989 247.73 198.983C247.332 198.995 246.934 198.928 246.561 198.785C246.188 198.643 245.848 198.428 245.558 198.152C245.269 197.877 245.038 197.548 244.877 197.182C244.716 196.817 244.629 196.423 244.621 196.024C244.65 195.21 244.995 194.439 245.583 193.876C246.171 193.312 246.956 193 247.771 193.006C248.171 192.992 248.569 193.058 248.943 193.2C249.317 193.342 249.659 193.557 249.949 193.832C250.24 194.108 250.472 194.438 250.634 194.804C250.795 195.17 250.882 195.564 250.89 195.964Z" fill="#263238"/>
<path d="M256.062 185.83C255.649 186.222 253.355 184.371 250.024 184.24C246.693 184.109 244.117 185.689 243.765 185.246C243.594 185.055 244.017 184.331 245.134 183.596C246.634 182.646 248.391 182.183 250.165 182.268C251.917 182.337 253.601 182.961 254.975 184.049C255.941 184.904 256.253 185.659 256.062 185.83Z" fill="#263238"/>
<path d="M220.853 195.964C220.824 196.778 220.479 197.549 219.891 198.113C219.303 198.676 218.518 198.989 217.703 198.983C217.304 198.995 216.907 198.928 216.534 198.785C216.161 198.643 215.82 198.428 215.531 198.152C215.242 197.877 215.01 197.548 214.849 197.182C214.688 196.817 214.602 196.423 214.594 196.024C214.622 195.212 214.966 194.443 215.552 193.879C216.138 193.316 216.92 193.002 217.733 193.006C218.133 192.992 218.532 193.058 218.906 193.2C219.28 193.342 219.622 193.557 219.912 193.832C220.202 194.108 220.435 194.438 220.596 194.804C220.758 195.17 220.845 195.564 220.853 195.964Z" fill="#263238"/>
<path d="M223.721 185.83C223.308 186.222 221.014 184.371 217.683 184.24C214.353 184.109 211.777 185.689 211.424 185.246C211.253 185.055 211.676 184.331 212.793 183.596C214.294 182.646 216.05 182.183 217.824 182.268C219.576 182.337 221.26 182.961 222.634 184.049C223.59 184.904 223.912 185.659 223.721 185.83Z" fill="#263238"/>
<path d="M234.015 211.641C234.015 211.45 236.118 211.168 239.529 210.876C240.395 210.826 241.22 210.685 241.381 210.101C241.493 209.219 241.331 208.323 240.918 207.535L238.644 200.874C235.494 191.405 233.25 183.626 233.613 183.505C233.975 183.385 236.863 190.952 240.002 200.431C240.767 202.765 241.482 204.989 242.176 207.123C242.668 208.184 242.774 209.383 242.478 210.514C242.341 210.813 242.138 211.076 241.883 211.284C241.628 211.491 241.329 211.638 241.009 211.711C240.528 211.825 240.034 211.876 239.54 211.862C236.138 211.902 234.025 211.832 234.015 211.641Z" fill="#263238"/>
<path d="M223.71 178.424C223.258 179.279 220.39 178.303 216.848 178.132C213.306 177.961 210.317 178.505 210.005 177.619C209.874 177.186 210.518 176.432 211.806 175.768C213.466 174.972 215.304 174.625 217.139 174.761C218.96 174.846 220.725 175.416 222.251 176.412C223.409 177.196 223.922 178.022 223.71 178.424Z" fill="#263238"/>
<path d="M256.625 173.121C255.901 173.865 253.174 173 249.873 172.869C246.573 172.738 243.765 173.231 243.151 172.406C242.879 172.014 243.332 171.259 244.58 170.565C246.292 169.738 248.184 169.357 250.083 169.457C251.981 169.557 253.823 170.136 255.438 171.138C256.575 171.953 256.937 172.748 256.625 173.121Z" fill="#263238"/>
<path d="M186.669 196.196C186.297 196.025 171.786 191.165 171.646 206.128C171.505 221.091 186.599 218.203 186.629 217.75C186.659 217.297 186.669 196.196 186.669 196.196Z" fill="#FFBF9D"/>
<path d="M182.102 212.023C182.032 212.023 181.84 212.204 181.398 212.406C180.753 212.672 180.03 212.672 179.385 212.406C177.805 211.812 176.497 209.276 176.447 206.569C176.422 205.282 176.686 204.006 177.222 202.836C177.366 202.361 177.625 201.929 177.976 201.578C178.327 201.227 178.759 200.967 179.234 200.823C179.536 200.75 179.854 200.782 180.135 200.916C180.415 201.05 180.641 201.277 180.774 201.558C180.965 201.981 180.864 202.282 180.945 202.303C181.025 202.323 181.277 202.051 181.156 201.437C181.076 201.064 180.87 200.73 180.572 200.491C180.162 200.177 179.647 200.033 179.134 200.089C178.516 200.206 177.938 200.48 177.456 200.883C176.973 201.286 176.602 201.806 176.376 202.393C175.727 203.688 175.402 205.121 175.43 206.569C175.501 209.588 177.02 212.436 179.184 213.09C179.586 213.209 180.009 213.237 180.423 213.172C180.837 213.108 181.232 212.953 181.579 212.718C182.072 212.385 182.152 212.053 182.102 212.023Z" fill="#FF9A6C"/>
<path d="M251.423 151.466C253.849 150.128 246.563 142.259 240.596 139.552C231.539 135.446 217.804 132.921 209.482 135.275C199.419 138.113 191.137 143.094 186.106 152.201C181.075 161.308 179.183 171.934 179.465 182.389C179.555 185.559 179.877 188.87 181.578 191.556C183.671 194.877 187.686 196.97 187.515 201.549C187.458 202.376 187.565 203.207 187.831 203.993C188.097 204.779 188.517 205.504 189.065 206.127C191.812 209.055 195.173 206.308 196.722 203.561C200.023 197.685 200.395 190.661 200.687 183.929C200.898 179.139 201.089 174.248 199.751 169.65C199.017 167.144 197.839 164.779 197.246 162.244C196.652 159.708 196.722 156.82 198.312 154.747C198.678 154.3 199.086 153.889 199.53 153.519C201.623 151.693 204.164 150.457 206.893 149.939C209.622 149.421 212.44 149.639 215.057 150.571C223.509 153.59 237.939 158.037 241.713 155.169C247.147 151.054 248.445 148.357 248.445 148.357L251.423 151.466Z" fill="#263238"/>
<path d="M223.429 213.744C223.952 213.744 223.972 217.155 226.931 219.591C229.889 222.026 233.562 221.603 233.592 222.106C233.643 222.328 232.777 222.78 231.228 222.831C229.207 222.872 227.236 222.198 225.663 220.929C224.159 219.705 223.188 217.944 222.956 216.018C222.815 214.559 223.167 213.744 223.429 213.744Z" fill="#263238"/>
<path d="M135.621 282.252C135.621 282.252 122.66 292.737 119.309 308.103C115.959 323.469 97.5538 394.18 97.0909 404.605C96.628 415.03 97.0909 437.239 116.361 437.691C135.631 438.144 184.405 415.664 184.405 415.664L175.097 387.488L144.688 388.324L135.621 282.252Z" fill="#E0E0E0"/>
<path d="M175.107 387.448C174.863 387.505 174.613 387.538 174.362 387.548L172.229 387.709L164.35 388.223L152.667 388.907L145.774 389.299C143.316 389.385 140.866 389.627 138.438 390.024C137.168 390.225 135.874 390.225 134.604 390.024C133.367 389.873 132.169 389.651 130.992 389.541C128.717 389.393 126.434 389.593 124.22 390.134C120.461 391.104 116.986 392.949 114.076 395.518C112.098 397.238 110.359 399.214 108.904 401.395C108.381 402.159 108.009 402.773 107.767 403.196C107.653 403.422 107.515 403.634 107.354 403.83C107.436 403.59 107.544 403.361 107.676 403.146C107.991 402.504 108.343 401.882 108.733 401.284C110.142 399.045 111.856 397.013 113.825 395.246C116.759 392.597 120.286 390.689 124.109 389.682C126.373 389.111 128.712 388.894 131.042 389.038C132.25 389.148 133.447 389.37 134.675 389.521C135.889 389.707 137.124 389.707 138.338 389.521C140.791 389.116 143.269 388.874 145.754 388.796L152.647 388.444L164.33 387.86L172.219 387.518L174.362 387.448C174.61 387.43 174.859 387.43 175.107 387.448Z" fill="#263238"/>
<path d="M145.523 388.263C145.468 388.039 145.434 387.81 145.423 387.579C145.372 387.066 145.302 386.412 145.221 385.566C145.06 383.785 144.819 381.31 144.537 378.291C143.943 372.143 143.028 363.67 141.991 354.301C140.955 344.933 140.099 336.51 139.647 330.322C139.395 327.243 139.214 324.757 139.123 323.026C139.123 322.211 139.053 321.547 139.023 321.014C139.009 320.782 139.009 320.551 139.023 320.319C139.087 320.542 139.124 320.772 139.133 321.004C139.184 321.507 139.244 322.161 139.325 323.016C139.496 324.787 139.727 327.263 140.019 330.292C140.603 336.43 141.528 344.913 142.555 354.281C143.581 363.65 144.447 372.132 144.95 378.281C145.201 381.36 145.372 383.856 145.473 385.576C145.473 386.401 145.543 387.056 145.563 387.589C145.575 387.814 145.562 388.041 145.523 388.263Z" fill="#263238"/>
<path d="M182.564 416.499C182.419 416.61 182.264 416.707 182.101 416.791L180.723 417.535C179.525 418.18 177.764 419.045 175.56 420.071C171.163 422.084 164.974 424.761 158.021 427.327C151.068 429.893 144.678 431.955 139.999 433.284C137.664 433.958 135.762 434.441 134.444 434.763L132.914 435.105C132.738 435.157 132.555 435.184 132.371 435.186C132.537 435.104 132.713 435.043 132.894 435.004L134.394 434.562C135.692 434.189 137.584 433.646 139.898 432.932C144.537 431.513 150.897 429.41 157.84 426.833C164.783 424.257 170.922 421.701 175.409 419.739C177.623 418.733 179.435 417.938 180.632 417.354L182.051 416.69C182.212 416.601 182.385 416.537 182.564 416.499Z" fill="#263238"/>
<path d="M292.49 304.38C292.503 304.463 292.503 304.548 292.49 304.631C292.49 304.823 292.49 305.064 292.42 305.356C292.349 306.04 292.249 306.976 292.128 308.153C291.866 310.579 291.444 314.08 290.9 318.407C289.814 327.061 288.173 339.006 286.151 352.158C284.128 365.31 282.126 377.204 280.697 385.808C279.952 390.074 279.338 393.536 278.916 395.981C278.704 397.148 278.533 398.074 278.402 398.738C278.342 399.03 278.292 399.272 278.261 399.463C278.248 399.546 278.224 399.627 278.191 399.704C278.176 399.621 278.176 399.536 278.191 399.453C278.191 399.252 278.251 399.02 278.292 398.728C278.392 398.044 278.533 397.118 278.704 395.951C279.097 393.496 279.64 390.024 280.314 385.747C281.693 377.134 283.615 365.239 285.627 352.077C287.64 338.915 289.351 327.001 290.588 318.397C291.172 314.111 291.645 310.629 291.977 308.163C292.138 306.996 292.269 306.06 292.369 305.386C292.369 305.094 292.45 304.853 292.48 304.662C292.467 304.568 292.471 304.473 292.49 304.38Z" fill="#263238"/>
<path d="M292.107 443.115C291.923 443.139 291.737 443.139 291.554 443.115L289.964 442.974C288.585 442.843 286.603 442.581 284.157 442.189C277.786 441.142 271.498 439.642 265.34 437.701C261.738 436.554 258.296 435.316 255.277 434.099C252.258 432.881 249.552 431.653 247.338 430.546C246.221 430.013 245.225 429.49 244.319 429.027C243.413 428.564 242.699 428.162 242.105 427.809L240.727 427.004C240.561 426.918 240.406 426.813 240.264 426.692C240.446 426.747 240.621 426.821 240.787 426.914L242.206 427.628C242.81 427.96 243.564 428.333 244.45 428.765C245.335 429.198 246.332 429.701 247.469 430.204C249.692 431.271 252.399 432.418 255.428 433.646C258.457 434.873 261.848 436.061 265.441 437.198C271.576 439.129 277.828 440.671 284.157 441.817C286.593 442.259 288.565 442.581 289.933 442.773L291.503 443.014C291.709 443.015 291.913 443.049 292.107 443.115Z" fill="#263238"/>
<g opacity="0.2">
<path d="M245.597 288.449C242.025 284.133 239.63 278.588 236.601 273.889C227.875 279.184 219.774 285.446 212.45 292.555C219.494 288.53 226.538 284.817 233.391 280.48L246.12 296.963C246.382 291.636 246.65 286.309 246.925 280.983L245.597 288.449Z" fill="black"/>
</g>
<g opacity="0.2">
<path d="M282.709 372.365C282.86 371.661 283.011 370.926 283.162 370.191L282.286 372.365H282.709Z" fill="black"/>
</g>
<g opacity="0.2">
<path d="M291.222 312.723C288.928 330.433 286.835 352.39 283.172 370.191C286.694 361.366 290.125 352.471 292.067 343.183C294.16 333.12 294.452 322.473 291.222 312.723Z" fill="black"/>
</g>
<path d="M178.448 369.979C178.448 369.979 172.309 373.118 171.404 375.654C170.889 377.36 170.889 379.18 171.404 380.887L174.724 391.805V403.165C174.724 403.165 177.391 414.707 179.927 415.885C182.463 417.062 186.971 416.891 189.99 412.141C191.712 409.443 193.066 406.525 194.015 403.467L199.247 381.782L200.747 370.713L186.538 378.039L182.513 383.553L178.589 377.294C178.589 377.294 181.788 374.155 181.537 372.202C181.285 370.25 178.448 369.979 178.448 369.979Z" fill="#FFBF9D"/>
<path d="M175.128 378.171C175.128 378.02 175.963 378.03 176.919 377.829C177.875 377.627 178.619 377.295 178.7 377.426C178.78 377.557 178.086 378.121 177.03 378.342C175.973 378.563 175.098 378.302 175.128 378.171Z" fill="#FF9A6C"/>
<path d="M181.548 408.207L182.554 362.12C182.553 360.565 183.151 359.069 184.226 357.944C185.3 356.819 186.767 356.152 188.32 356.082L267.001 354.352C267.932 354.362 268.847 354.585 269.679 355.003C270.51 355.42 271.235 356.022 271.799 356.763C272.363 357.503 272.75 358.362 272.932 359.275C273.114 360.188 273.085 361.13 272.847 362.029L261.054 412.182C260.765 413.53 260.017 414.735 258.938 415.592C257.858 416.449 256.515 416.905 255.137 416.882L187.244 414.547C185.649 414.459 184.154 413.742 183.086 412.554C182.019 411.365 181.466 409.803 181.548 408.207Z" fill="#263238"/>
<path d="M231.216 368.269L230.592 368.168C229.778 368.119 228.976 368.384 228.352 368.91C227.728 369.436 227.33 370.181 227.24 370.992C227.15 371.803 227.376 372.618 227.87 373.267C228.364 373.917 229.089 374.351 229.894 374.481C230.7 374.611 231.524 374.426 232.198 373.965C232.871 373.504 233.341 372.802 233.511 372.004C233.681 371.206 233.537 370.373 233.11 369.678C232.683 368.982 232.005 368.478 231.216 368.269Z" fill="white"/>
<path d="M264.425 359.523C264.425 359.674 247.6 360.077 226.841 360.429C206.081 360.781 189.256 360.962 189.246 360.811C189.236 360.66 206.071 360.268 226.831 359.906C247.59 359.543 264.425 359.382 264.425 359.523Z" fill="#189E98"/>
<path d="M202.739 370.141C202.739 370.141 207.106 365.784 212.299 368.692C217.491 371.601 234.96 384.068 240.988 385.729C247.015 387.389 253.063 388.647 257.611 385.729C262.16 382.81 265.511 379.077 265.722 375.344C265.933 371.611 268.207 363.49 273.198 363.269L275.694 365.14C275.694 365.14 274.688 377.216 274.688 382.388C274.688 387.56 270.079 394.876 270.079 394.876L266.728 400.622L268.449 406.951C268.449 406.951 266.366 416.511 261.173 421.502C255.981 426.493 245.757 426.694 245.757 426.694L212.55 405.915L181.587 396.767C181.587 396.767 182.412 392.612 186.618 392.4C190.825 392.189 197.637 394.996 197.637 394.996L181.547 382.8C181.824 381.534 182.592 380.429 183.682 379.727C184.772 379.026 186.096 378.785 187.363 379.057C192.395 379.681 210.226 390.126 210.226 390.126L191.972 371.812C191.972 371.812 191.559 367.032 195.927 366.78C197.246 366.768 198.55 367.066 199.733 367.649C200.917 368.233 201.946 369.087 202.739 370.141Z" fill="#FFBF9D"/>
<path d="M228.54 390.407C228.142 390.24 227.763 390.027 227.413 389.773C226.699 389.34 225.683 388.696 224.395 387.881C221.909 386.251 218.478 383.957 214.835 381.24C211.694 378.948 208.709 376.45 205.899 373.763C204.833 372.757 204.017 371.821 203.484 371.187C203.19 370.878 202.927 370.541 202.699 370.181C203.042 370.449 203.356 370.753 203.635 371.086C204.209 371.68 205.064 372.535 206.151 373.532C209.021 376.127 212.023 378.573 215.147 380.857C218.78 383.574 222.191 385.889 224.606 387.619L227.484 389.632C227.863 389.851 228.217 390.111 228.54 390.407Z" fill="#FF9A6C"/>
<path d="M217.512 394.945C215.815 394.32 214.226 393.434 212.802 392.319C211.29 391.344 209.933 390.146 208.777 388.766C208.888 388.656 210.73 390.195 213.145 391.896C215.56 393.597 217.582 394.814 217.512 394.945Z" fill="#FF9A6C"/>
<path d="M212.541 403.237C209.594 401.925 206.719 400.457 203.927 398.84C201.056 397.379 198.267 395.759 195.575 393.989C198.518 395.303 201.39 396.771 204.179 398.387C207.055 399.846 209.846 401.465 212.541 403.237Z" fill="#FF9A6C"/>
<path d="M266.91 226.613L292.379 227.045L279.972 211.086L266.91 226.613Z" fill="#189E98"/>
<path d="M279.026 239.131H274.709V243.448H279.026V239.131Z" fill="#189E98"/>
<path d="M282.971 243.689H279.026V247.533H282.971V243.689Z" fill="#189E98"/>
<path d="M278.231 249.153H274.91V252.474H278.231V249.153Z" fill="#189E98"/>
<path d="M286.292 240.167H282.972V243.488H286.292V240.167Z" fill="#189E98"/>
<path d="M274.507 243.689H272.143V246.054H274.507V243.689Z" fill="#189E98"/>
<path d="M282.096 257.456H278.725V254.085H282.096V257.456ZM279.731 256.45H281.089V255.091H279.731V256.45Z" fill="#189E98"/>
<path d="M285.505 247.765H283.141V250.129H285.505V247.765Z" fill="#189E98"/>
<path d="M286.24 224.529L273.008 224.68V240.227H286.281L286.24 224.529ZM282.014 237.47H279.649V235.105H282.014V237.47Z" fill="#189E98"/>
<path d="M181.356 326.678L209.784 327.161L195.937 309.34L181.356 326.678Z" fill="#1C4A9D"/>
<path d="M194.559 340.645H189.739V345.465H194.559V340.645Z" fill="#1C4A9D"/>
<path d="M199.158 345.928H194.338V350.748H199.158V345.928Z" fill="#1C4A9D"/>
<path d="M193.442 352.418H189.739V356.121H193.442V352.418Z" fill="#1C4A9D"/>
<path d="M202.397 341.801H198.694V345.504H202.397V341.801Z" fill="#1C4A9D"/>
<path d="M189.749 346.339H187.103V348.985H189.749V346.339Z" fill="#1C4A9D"/>
<path d="M201.864 350.485H199.218V353.132H201.864V350.485Z" fill="#1C4A9D"/>
<path d="M202.035 324.353L188.47 324.514L187.595 341.872H202.437L202.035 324.353ZM197.265 338.793H194.619V336.156H197.265V338.793Z" fill="#1C4A9D"/>
<path d="M133.841 255.301L175.299 255.996L155.103 230.014L133.841 255.301Z" fill="#189E98"/>
<path d="M153.09 275.679H146.066V282.703H153.09V275.679Z" fill="#189E98"/>
<path d="M159.128 282.783H153.101V288.811H159.128V282.783Z" fill="#189E98"/>
<path d="M151.47 290.14H146.066V295.543H151.47V290.14Z" fill="#189E98"/>
<path d="M164.522 277.359H159.118V282.763H164.522V277.359Z" fill="#189E98"/>
<path d="M146.068 283.367H142.214V287.221H146.068V283.367Z" fill="#189E98"/>
<path d="M157.569 302.606H152.729V297.746H157.589L157.569 302.606ZM153.715 301.6H156.562V298.752H153.735L153.715 301.6Z" fill="#189E98"/>
<path d="M162.972 289.385H159.118V293.239H162.972V289.385Z" fill="#189E98"/>
<path d="M164.593 252.274L143.139 252.163L142.968 277.461H164.593V252.274ZM157.066 272.973H153.212V269.089H157.066V272.973Z" fill="#189E98"/>
<path d="M252.652 289.013L286.081 289.576L269.799 268.636L252.652 289.013Z" fill="#1C4A9D"/>
<path d="M268.178 305.445H262.513V311.111H268.178V305.445Z" fill="#1C4A9D"/>
<path d="M273.591 311.644H267.926V317.309H273.591V311.644Z" fill="#1C4A9D"/>
<path d="M266.86 319.271H262.513V323.619H266.86V319.271Z" fill="#1C4A9D"/>
<path d="M277.385 306.803H273.038V311.15H277.385V306.803Z" fill="#1C4A9D"/>
<path d="M262.514 312.137H259.404V315.246H262.514V312.137Z" fill="#1C4A9D"/>
<path d="M271.79 329.333H267.675V325.218H271.79V329.333ZM268.681 328.327H270.784V326.224H268.681V328.327Z" fill="#1C4A9D"/>
<path d="M276.772 317.007H273.663V320.116H276.772V317.007Z" fill="#1C4A9D"/>
<path d="M276.993 286.285L261.043 286.476L260.037 306.884H277.466L276.993 286.285ZM272.304 303.392H269.204V300.293H272.304V303.392Z" fill="#1C4A9D"/>
<path d="M3.02441 254.054L44.4931 254.749L24.287 228.767L3.02441 254.054Z" fill="#1C4A9D"/>
<path d="M22.2845 274.431H15.2607V281.454H22.2845V274.431Z" fill="#1C4A9D"/>
<path d="M28.3118 281.535H22.2842V287.563H28.3118V281.535Z" fill="#1C4A9D"/>
<path d="M20.6544 288.892H15.2607V294.295H20.6544V288.892Z" fill="#1C4A9D"/>
<path d="M33.7061 276.112H28.3125V281.516H33.7061V276.112Z" fill="#1C4A9D"/>
<path d="M15.2613 282.119H11.4072V285.973H15.2613V282.119Z" fill="#1C4A9D"/>
<path d="M26.2486 297.003H22.3945V300.857H26.2486V297.003Z" fill="#1C4A9D"/>
<path d="M32.1665 288.138H28.3125V291.992H32.1665V288.138Z" fill="#1C4A9D"/>
<path d="M33.7759 251.025L12.3221 250.914L12.1611 276.212H33.7759V251.025ZM26.2591 271.724H22.405V267.87H26.2591V271.724Z" fill="#1C4A9D"/>
<path d="M385.833 399.22L417.873 399.764L402.286 379.688L385.833 399.22Z" fill="#1C4A9D"/>
<path d="M400.714 414.968H395.28V420.402H400.714V414.968Z" fill="#1C4A9D"/>
<path d="M405.374 420.462H400.715V425.121H405.374V420.462Z" fill="#1C4A9D"/>
<path d="M399.456 426.139H395.28V430.315H399.456V426.139Z" fill="#1C4A9D"/>
<path d="M409.55 416.265H405.374V420.441H409.55V416.265Z" fill="#1C4A9D"/>
<path d="M395.28 420.914H392.302V423.893H395.28V420.914Z" fill="#1C4A9D"/>
<path d="M403.784 432.406H400.806V435.385H403.784V432.406Z" fill="#1C4A9D"/>
<path d="M408.353 425.563H405.374V428.542H408.353V425.563Z" fill="#1C4A9D"/>
<path d="M409.59 396.885L393.017 396.795L392.886 416.347H409.59V396.885ZM403.784 412.885H400.765V409.866H403.784V412.885Z" fill="#1C4A9D"/>
<path d="M382.48 98.8362L423.939 99.5406L403.743 73.5586L382.48 98.8362Z" fill="#1C4A9D"/>
<path d="M401.731 119.213H394.707V126.237H401.731V119.213Z" fill="#1C4A9D"/>
<path d="M407.769 126.318H401.741V132.346H407.769V126.318Z" fill="#1C4A9D"/>
<path d="M400.111 133.673H394.707V139.077H400.111V133.673Z" fill="#1C4A9D"/>
<path d="M413.162 120.904H407.759V126.308H413.162V120.904Z" fill="#1C4A9D"/>
<path d="M394.708 126.911H390.854V130.765H394.708V126.911Z" fill="#1C4A9D"/>
<path d="M405.707 141.783H401.853V145.637H405.707V141.783Z" fill="#1C4A9D"/>
<path d="M411.613 132.93H407.759V136.784H411.613V132.93Z" fill="#1C4A9D"/>
<path d="M413.233 95.817L391.779 95.6963L391.608 121.004H413.233V95.817ZM405.706 116.516H401.852V112.662H405.706V116.516Z" fill="#1C4A9D"/>
</svg>
