<svg width="400" height="381" viewBox="0 0 515 381" fill="none" xmlns="http://www.w3.org/2000/svg">
<path d="M72.5122 27.3281L34.2118 104.593L45.647 105.026L13.1894 166.419H30.2364L3.65039 220.967H152.289L119.562 166.419L135.242 165.745L103.882 104.372L115.471 103.698L72.5122 27.3281Z" fill="#F5F5F5"/>
<path d="M78.8454 104.258C79.0283 104.258 78.778 144.291 78.2679 193.67C77.7577 243.05 77.1994 379.281 77.0069 379.281C76.8144 379.281 77.0743 243.059 77.5844 193.661C78.0946 144.262 78.6529 104.258 78.8454 104.258Z" fill="#E0E0E0"/>
<path d="M94.4765 121.303C94.6305 121.419 91.3482 125.914 87.161 131.352C82.9739 136.791 79.4605 141.103 79.2969 140.978C79.1332 140.853 82.4252 136.367 86.622 130.929C90.8187 125.49 94.3321 121.188 94.4765 121.303Z" fill="#E0E0E0"/>
<path d="M78.5361 139.584C78.4206 139.728 75.1767 137.399 71.2976 134.376C67.4185 131.354 64.3672 128.784 64.4827 128.601C64.5982 128.418 67.842 130.786 71.7211 133.808C75.6003 136.831 78.6516 139.43 78.5361 139.584Z" fill="#E0E0E0"/>
<path d="M77.6617 172.109C76.7914 171.549 75.9789 170.904 75.2361 170.184C73.7922 168.962 71.7997 167.296 69.5666 165.458C67.3334 163.619 65.2832 162.021 63.7912 160.857C62.9489 160.27 62.1656 159.603 61.4521 158.864C62.39 159.288 63.2725 159.824 64.0799 160.462C65.6489 161.54 67.7569 163.1 69.9997 164.928C72.2425 166.757 74.1965 168.509 75.5633 169.818C76.3505 170.497 77.0548 171.266 77.6617 172.109Z" fill="#E0E0E0"/>
<path d="M94.4971 151.999C94.6415 152.115 91.0511 156.812 86.479 162.52C81.9068 168.228 78.0758 172.742 77.9218 172.627C77.7677 172.511 81.3677 167.814 85.9495 162.097C90.5313 156.379 94.3527 151.884 94.4971 151.999Z" fill="#E0E0E0"/>
<path d="M419.43 347.929C401.979 335.021 398.668 312.035 400.044 291.514C400.275 288.087 400.044 284.458 401.757 281.513C403.471 278.567 407.437 276.623 410.497 278.172C413.039 279.462 414.069 282.456 415.426 284.958C417.262 288.298 420 291.053 423.328 292.909C425.504 294.112 428.218 294.902 430.442 293.776C433.493 292.245 433.974 288.173 434.071 284.756L434.562 265.688C434.658 262.281 434.754 258.796 435.938 255.591C437.122 252.385 439.586 249.459 442.907 248.66C446.228 247.861 450.232 249.873 450.81 253.232C450.911 254.646 450.911 256.064 450.81 257.477C450.81 258.902 451.483 260.49 452.831 260.933C454.179 261.376 455.613 260.452 456.681 259.489C460.368 256.159 462.928 251.789 465.344 247.467C467.76 243.145 470.09 238.688 473.449 235.04C476.808 231.392 481.381 228.562 486.338 228.446C491.295 228.331 496.474 231.527 497.561 236.368C498.649 241.21 495.636 245.994 492.441 249.786C487.655 255.418 482.082 260.329 475.894 264.369C474.698 264.969 473.724 265.933 473.112 267.122C472.284 269.375 474.402 271.704 476.645 272.532C479.196 273.494 481.997 273.292 484.682 273.697C487.368 274.101 490.246 275.362 491.189 277.913C492.489 281.445 489.418 284.997 486.434 287.298C480.442 291.904 473.707 295.453 466.519 297.789C463.939 298.627 461.244 299.339 459.136 301.033C457.028 302.727 455.69 305.76 456.855 308.195C458.019 310.63 461.167 311.516 463.843 311.082C466.519 310.649 468.954 309.331 471.543 308.474C476.356 306.857 482.468 307.386 485.375 311.535C487.3 314.269 487.3 317.984 486.232 321.161C484.968 324.254 483.092 327.06 480.716 329.41C472.851 338.122 462.812 344.59 451.628 348.151C440.481 351.558 430.24 352.242 419.42 347.929" fill="#EBEBEB"/>
<path d="M440.133 380.195C439.873 375.642 440.008 371.272 441.047 363.158C442.329 353.663 444.527 344.314 447.612 335.243C451.441 324.167 455.905 313.32 460.982 302.757L464.928 294.421C466.228 291.687 467.518 288.973 468.942 286.403C471.692 281.46 474.716 276.675 478 272.07C481.109 267.652 484.218 263.571 487.154 259.769C490.09 255.966 492.929 252.492 495.615 249.431C499.855 244.58 504.474 240.074 509.428 235.955C511.18 234.482 512.575 233.394 513.528 232.663L514.626 231.835C514.866 231.652 515.001 231.565 515.001 231.565C514.893 231.676 514.777 231.779 514.655 231.873L513.596 232.74C512.633 233.5 511.286 234.617 509.563 236.109C504.666 240.294 500.094 244.844 495.885 249.719C493.209 252.79 490.417 256.284 487.491 260.086C484.565 263.888 481.475 267.979 478.395 272.397C475.129 276.991 472.121 281.763 469.385 286.691C467.97 289.252 466.69 291.947 465.391 294.69C464.091 297.434 462.772 300.206 461.444 303.026C456.372 313.57 451.905 324.394 448.064 335.445C444.966 344.482 442.736 353.794 441.403 363.254C440.325 371.33 439.94 375.7 440.133 380.243" fill="#E0E0E0"/>
<path d="M469.076 286.354C468.937 285.873 468.847 285.38 468.807 284.881C468.662 283.919 468.499 282.552 468.316 280.848C467.94 277.441 467.594 272.705 467.218 267.488C466.843 262.271 466.41 257.564 465.967 254.166C465.746 252.462 465.563 251.095 465.409 250.143C465.309 249.654 465.255 249.158 465.245 248.66C465.412 249.132 465.534 249.619 465.611 250.114C465.813 251.076 466.063 252.414 466.323 254.118C466.862 257.506 467.353 262.232 467.729 267.449C468.104 272.666 468.431 277.306 468.691 280.819C468.826 282.456 468.941 283.813 469.018 284.862C469.081 285.357 469.1 285.856 469.076 286.354Z" fill="#E0E0E0"/>
<path d="M513.77 279.625C513.62 279.668 513.464 279.688 513.308 279.683L511.99 279.76C510.844 279.808 509.189 279.885 507.177 280.049C503.096 280.337 497.465 280.934 491.285 281.878C485.105 282.821 479.551 283.928 475.566 284.842C473.564 285.285 471.957 285.689 470.84 285.968L469.56 286.276C469.414 286.325 469.261 286.351 469.107 286.354C469.107 286.354 469.242 286.277 469.531 286.18L470.792 285.776C471.889 285.439 473.487 284.977 475.48 284.486C479.455 283.475 485.019 282.32 491.208 281.367C497.397 280.415 503.047 279.875 507.158 279.683C509.198 279.567 510.863 279.548 511.97 279.558H513.299C513.458 279.557 513.617 279.58 513.77 279.625Z" fill="#E0E0E0"/>
<path d="M448.141 334.433C448.024 334.264 447.93 334.079 447.862 333.885L447.159 332.277C446.562 330.872 445.735 328.812 444.753 326.261C442.828 321.169 440.286 314.046 437.62 306.153C434.954 298.26 432.509 291.118 430.651 285.988C429.689 283.475 428.957 281.415 428.408 279.923C428.158 279.25 427.956 278.701 427.792 278.277C427.708 278.087 427.649 277.887 427.619 277.681C427.723 277.859 427.814 278.046 427.889 278.239L428.591 279.846C429.188 281.252 430.016 283.312 430.998 285.853C432.923 290.954 435.474 298.077 438.13 305.97C440.787 313.863 443.242 321.006 445.128 326.126C446.091 328.639 446.822 330.699 447.381 332.191C447.631 332.864 447.823 333.413 447.987 333.837C448.053 334.031 448.105 334.231 448.141 334.433Z" fill="#E0E0E0"/>
<path d="M507.78 317.618C507.588 317.704 507.388 317.772 507.183 317.82L505.451 318.321L499.059 320.111C493.659 321.632 486.238 323.827 478.037 326.272C469.836 328.717 462.386 330.853 456.957 332.288C454.242 333.01 452.048 333.568 450.517 333.924L448.756 334.328C448.555 334.387 448.348 334.423 448.14 334.434C448.331 334.346 448.531 334.278 448.736 334.232L450.469 333.731L456.86 331.941C462.26 330.42 469.682 328.226 477.883 325.781C486.084 323.336 493.534 321.199 498.963 319.765C501.668 319.043 503.872 318.484 505.403 318.128L507.164 317.724C507.365 317.665 507.571 317.63 507.78 317.618Z" fill="#E0E0E0"/>
<path d="M371.735 47.0323H501.681C501.681 47.0323 490.227 26.0966 456.768 29.1575C424.811 32.0452 423.184 18.8677 406.936 17.241C390.688 15.6142 377.145 28.0794 371.735 47.0323Z" fill="#EBEBEB"/>
<path d="M306.539 83.2918H377.769C377.769 83.2918 371.464 71.8277 353.127 73.4929C335.608 75.0908 334.723 67.8523 325.819 66.9667C316.915 66.0812 309.504 72.9058 306.539 83.2918Z" fill="#EBEBEB"/>
<path d="M509.004 379.029C509.004 379.163 395.046 379.279 254.511 379.279C113.977 379.279 0 379.163 0 379.029C0 378.894 113.968 378.778 254.502 378.778C395.036 378.778 509.004 378.884 509.004 379.029Z" fill="#1C4A9D"/>
<path d="M421.275 289.181H93.6857C92.4425 289.181 91.2502 288.687 90.371 287.808C89.4919 286.929 88.998 285.737 88.998 284.493C88.998 283.25 89.4919 282.058 90.371 281.179C91.2502 280.3 92.4425 279.806 93.6857 279.806H421.275C422.518 279.806 423.711 280.3 424.59 281.179C425.469 282.058 425.963 283.25 425.963 284.493C425.963 285.737 425.469 286.929 424.59 287.808C423.711 288.687 422.518 289.181 421.275 289.181Z" fill="#455A64"/>
<path d="M135.788 289.182H126.519V379.056H135.788V289.182Z" fill="#455A64"/>
<path d="M364.59 289.182H355.32V379.056H364.59V289.182Z" fill="#455A64"/>
<path d="M307.123 122.188C305.225 120.877 302.988 120.143 300.682 120.074C298.376 120.005 296.099 120.604 294.125 121.799C292.152 122.994 290.566 124.735 289.559 126.81C288.552 128.886 288.167 131.208 288.449 133.498C288.748 135.876 289.749 138.263 289.142 140.583C287.997 144.914 281.884 146.608 281.076 151.017C280.758 152.759 281.374 154.511 281.846 156.215C282.318 157.918 282.606 159.843 281.721 161.374C281.076 162.51 279.892 163.222 278.968 164.146C275.984 167.12 276.08 172.338 278.535 175.697C280.989 179.056 285.446 180.721 289.652 180.587C293.875 180.278 297.946 178.886 301.473 176.544" fill="#1C4A9D"/>
<path d="M303.196 123.651C303.888 121.645 305.084 119.852 306.671 118.444C308.258 117.037 310.18 116.061 312.254 115.613C316.364 114.651 321.465 113.284 325.229 115.199C327.578 116.402 329.83 118.145 330.754 120.619C331.851 123.506 330.167 129.012 329.32 132.035C328.473 135.057 327.847 138.484 329.512 141.14C331.178 143.797 334.421 144.721 336.462 146.983C337.818 148.605 338.488 150.692 338.329 152.8C338.171 154.909 337.198 156.872 335.615 158.274C339.253 158.062 342.353 161.768 342.189 165.407C342.026 169.045 339.407 172.241 336.164 173.887C332.92 175.533 329.166 175.879 325.527 175.889C320.999 175.899 316.482 175.431 312.051 174.493C308.413 173.723 304.62 172.501 302.252 169.632C300.077 166.995 299.471 163.395 299.471 160.007C299.471 147.907 305.795 135.943 303.042 124.142" fill="#1C4A9D"/>
<path d="M324.911 213.391L329.58 228.002C330.467 230.982 332.159 233.659 334.471 235.738C336.783 237.817 339.623 239.217 342.68 239.784L373.857 245.559L382.338 245.29L373.857 234.817L350.429 226.828C349.305 226.584 348.269 226.037 347.434 225.246C346.6 224.456 345.997 223.451 345.693 222.342L336.317 202.042L324.507 209.29L324.911 213.391Z" fill="#B78876"/>
<path d="M278.949 199.096C279.383 201.358 285.976 217.818 285.976 217.818C285.976 217.818 311.638 209.154 311.301 207.836C311.022 206.806 306.094 190.327 300.184 181.202C299.072 179.439 297.563 177.962 295.778 176.887C293.993 175.812 291.981 175.17 289.903 175.012C288.748 174.935 286.246 176.139 285.562 176.524C280.162 179.575 275.571 181.625 278.949 199.096Z" fill="#455A64"/>
<path d="M315.142 167.207C326.75 168.506 328.618 176.389 334.046 184.157L341.872 198.596L327.434 207.423L327.934 229.561L334.788 250.738L280.643 245.646L285.639 227.511L278.429 199.039C277.881 195.188 276.389 187.94 277.4 184.128C280.547 172.202 292.955 168.727 301.464 166.494C303.225 166.042 311.715 166.071 313.188 166.427" fill="#189E98"/>
<path d="M279.421 198.864L279.536 199.172C279.604 199.394 279.71 199.702 279.835 200.087C280.095 200.905 280.47 202.079 280.942 203.581C281.904 206.622 283.242 210.964 284.888 216.229L284.705 216.142L308.769 207.248L309.366 206.998L309.27 207.2C307.809 201.777 305.92 196.479 303.62 191.356C301.839 187.141 299.424 183.223 296.458 179.738C295.299 178.427 293.929 177.318 292.406 176.456C291.262 175.797 289.979 175.418 288.661 175.349C288.408 175.335 288.154 175.335 287.901 175.349L287.227 175.416L286.659 175.483L286.197 175.609L285.562 175.772L285.341 175.82C285.406 175.781 285.478 175.755 285.552 175.743L286.178 175.541L286.64 175.406C286.831 175.365 287.023 175.336 287.218 175.32L287.891 175.233C288.151 175.214 288.412 175.214 288.671 175.233C290.022 175.281 291.342 175.651 292.521 176.311C294.072 177.167 295.467 178.276 296.651 179.594C299.666 183.075 302.121 187.004 303.928 191.241C306.251 196.375 308.154 201.69 309.617 207.133V207.277L309.482 207.335L308.875 207.585C299.846 210.964 291.472 213.967 284.744 216.421L284.609 216.479V216.335C283.021 211.05 281.721 206.709 280.759 203.648C280.306 202.137 279.96 200.953 279.719 200.125C279.604 199.74 279.517 199.432 279.45 199.163C279.433 199.064 279.423 198.964 279.421 198.864Z" fill="#1C4A9D"/>
<path d="M308.404 203.93C308.404 204.017 302.869 205.942 295.977 208.224C289.085 210.505 283.464 212.286 283.464 212.189C283.464 212.093 288.999 210.178 295.9 207.896C302.802 205.615 308.346 203.834 308.404 203.93Z" fill="#1C4A9D"/>
<g opacity="0.3">
<path d="M286.063 215.836C287.108 220.549 288.462 225.189 290.116 229.725C291.152 232.61 292.626 235.318 294.486 237.753C297.237 240.926 300.907 243.163 304.987 244.154C309.045 245.135 313.251 245.341 317.385 244.761L296.777 233.114L291.29 214.064L286.063 215.836Z" fill="black"/>
</g>
<path d="M288.429 214.758L293.511 231.391C294.389 234.386 296.077 237.081 298.389 239.178C300.7 241.275 303.545 242.694 306.612 243.279L337.789 249.198L346.269 248.929L337.789 238.292L314.351 230.207C313.221 229.954 312.183 229.396 311.35 228.593C310.516 227.79 309.919 226.773 309.624 225.654L305.283 208.915L288.429 214.758Z" fill="#B78876"/>
<path d="M327.983 228.983C327.9 228.464 327.851 227.94 327.838 227.414C327.79 226.307 327.713 224.863 327.627 223.111C327.473 219.482 327.299 214.448 327.126 208.933C326.953 203.417 326.837 198.345 326.77 194.745C326.77 192.993 326.77 191.549 326.722 190.442C326.699 189.915 326.715 189.388 326.77 188.863C326.866 189.381 326.914 189.906 326.914 190.432C326.972 191.539 327.04 192.983 327.126 194.735C327.28 198.364 327.463 203.398 327.627 208.913C327.79 214.429 327.925 219.502 327.983 223.102C327.983 224.854 327.983 226.307 328.041 227.404C328.071 227.931 328.051 228.46 327.983 228.983Z" fill="#1C4A9D"/>
<g opacity="0.3">
<path d="M324.546 214.757C325.114 215.123 323.651 218.386 320.619 221.495C317.587 224.604 314.372 226.144 313.996 225.577C313.621 225.009 315.998 222.689 318.809 219.743C321.62 216.798 323.949 214.382 324.546 214.757Z" fill="black"/>
</g>
<path d="M339.783 194.756C337.848 196.174 335.818 197.46 333.71 198.606C331.682 199.896 329.565 201.041 327.376 202.033C331.336 199.316 335.482 196.882 339.783 194.746V194.756Z" fill="#1C4A9D"/>
<path d="M305.266 195.738C305.266 195.786 304.881 195.68 304.216 195.738C303.269 195.826 302.36 196.157 301.579 196.7C300.412 197.507 299.354 198.461 298.431 199.54C297.284 200.94 295.756 201.98 294.032 202.533C292.107 202.967 290.278 202.293 288.748 201.86C287.433 201.357 286.016 201.182 284.619 201.35C283.691 201.512 282.853 202.004 282.26 202.736C282.069 203.026 281.901 203.332 281.76 203.65C281.76 203.65 281.76 203.544 281.76 203.361C281.83 203.099 281.94 202.849 282.087 202.62C282.662 201.789 283.533 201.21 284.522 201.003C285.98 200.771 287.473 200.91 288.863 201.407C290.404 201.831 292.146 202.447 293.898 202.052C295.53 201.512 296.979 200.529 298.085 199.213C299.05 198.128 300.157 197.179 301.377 196.392C302.221 195.857 303.198 195.57 304.197 195.564C304.464 195.563 304.729 195.599 304.986 195.67C305.179 195.69 305.275 195.718 305.266 195.738Z" fill="#FAFAFA"/>
<path d="M327.654 192.196C327.339 192.107 327.017 192.052 326.691 192.032C325.812 192.097 324.974 192.433 324.294 192.995C323.832 193.312 323.332 193.717 322.773 194.092C322.151 194.504 321.444 194.771 320.704 194.872C319.019 195.013 317.329 194.68 315.824 193.909C314.387 193.147 312.905 192.472 311.386 191.888C310.166 191.435 308.83 191.394 307.584 191.772C306.738 192.018 305.995 192.531 305.467 193.235C305.12 193.736 305.033 194.092 304.985 194.082C304.937 194.073 304.985 193.986 304.985 193.823C305.046 193.578 305.143 193.344 305.274 193.129C305.774 192.33 306.542 191.733 307.44 191.445C308.755 190.986 310.187 190.986 311.502 191.445C313.049 192.009 314.554 192.681 316.007 193.457C317.425 194.189 319.015 194.521 320.608 194.419C321.888 194.151 323.079 193.558 324.063 192.696C324.81 192.131 325.726 191.833 326.662 191.849C326.918 191.863 327.167 191.932 327.394 192.051C327.548 192.119 327.654 192.177 327.654 192.196Z" fill="#FAFAFA"/>
<path d="M326.405 197.007C327.015 196.851 327.606 196.629 328.167 196.343C329.424 195.468 330.504 194.364 331.353 193.089C332.254 191.755 333.521 190.71 335.001 190.076C335.306 189.949 335.633 189.884 335.964 189.884C336.294 189.884 336.621 189.949 336.926 190.076C336.3 190.096 335.68 190.21 335.088 190.413C333.729 191.113 332.568 192.143 331.709 193.407C330.829 194.734 329.665 195.848 328.302 196.67C327.732 197.01 327.057 197.13 326.405 197.007Z" fill="#FAFAFA"/>
<path d="M412.244 357.485L412.09 347.687L393.734 347.86L393.811 362.202L394.947 362.26C400.02 362.491 420.734 363.097 424.113 362.038C427.877 360.854 412.244 357.485 412.244 357.485Z" fill="#189E98"/>
<g opacity="0.4">
<path d="M419.889 359.409C419.889 359.409 425.365 360.93 424.701 361.835C424.037 362.74 403.073 362.923 393.822 362.201V361.787H418.271C418.271 361.787 418.82 359.457 419.889 359.409Z" fill="white"/>
</g>
<path d="M393.542 361.78H393.86L394.765 361.828L398.105 361.943C400.925 362.02 404.843 362.078 409.126 362.04C413.41 362.001 417.327 361.895 420.138 361.77L423.478 361.606L424.383 361.539C424.488 361.554 424.595 361.554 424.7 361.539H424.383H423.42L420.09 361.635C417.269 361.712 413.352 361.809 409.078 361.837C404.804 361.866 400.877 361.837 398.066 361.837H394.726H393.494L393.542 361.78Z" fill="#1C4A9D"/>
<path d="M418.28 362.029C418.423 361.476 418.626 360.94 418.886 360.432C419.21 359.962 419.588 359.533 420.012 359.151C419.446 359.363 418.979 359.778 418.703 360.316C418.357 360.816 418.206 361.426 418.28 362.029Z" fill="#1C4A9D"/>
<path d="M412.843 359.373C412.843 359.373 413.151 359.084 413.411 358.661C413.671 358.237 413.854 357.862 413.796 357.833C413.738 357.804 413.488 358.122 413.228 358.545C412.968 358.969 412.795 359.334 412.843 359.373Z" fill="#1C4A9D"/>
<path d="M411.399 358.594C411.399 358.642 411.726 358.449 412.044 358.16C412.361 357.872 412.573 357.602 412.535 357.554C412.496 357.506 412.207 357.708 411.89 357.997C411.572 358.286 411.312 358.555 411.399 358.594Z" fill="#1C4A9D"/>
<path d="M410.435 356.87C410.435 356.938 410.858 356.986 411.397 356.986C411.722 357.019 412.05 356.983 412.36 356.88C412.053 356.765 411.723 356.726 411.397 356.764C411.072 356.729 410.744 356.765 410.435 356.87Z" fill="#1C4A9D"/>
<path d="M410.061 355.656C410.394 355.828 410.759 355.93 411.133 355.955C411.508 355.98 411.883 355.927 412.236 355.801C411.51 355.759 410.785 355.711 410.061 355.656Z" fill="#1C4A9D"/>
<path d="M413.447 357.765C413.839 357.831 414.239 357.831 414.631 357.765C415.056 357.708 415.475 357.612 415.883 357.477C416.13 357.404 416.37 357.304 416.595 357.178C416.735 357.094 416.838 356.96 416.884 356.803C416.901 356.715 416.893 356.624 416.861 356.54C416.828 356.457 416.773 356.384 416.701 356.331C416.248 356.116 415.735 356.065 415.249 356.186C414.763 356.307 414.333 356.593 414.034 356.995C413.854 357.228 413.726 357.498 413.659 357.785C413.634 357.889 413.634 357.998 413.659 358.102C413.777 357.753 413.957 357.427 414.188 357.14C414.44 356.831 414.773 356.601 415.151 356.476C415.379 356.396 415.621 356.363 415.862 356.378C416.104 356.393 416.339 356.456 416.556 356.562C416.749 356.697 416.672 356.918 416.47 357.043C416.258 357.161 416.036 357.258 415.806 357.332C415.41 357.471 415.004 357.58 414.593 357.66C413.9 357.717 413.447 357.727 413.447 357.765Z" fill="#1C4A9D"/>
<path d="M413.756 357.821C413.901 357.571 413.945 357.275 413.881 356.993C413.845 356.685 413.732 356.391 413.554 356.137C413.455 355.966 413.315 355.822 413.147 355.718C412.979 355.614 412.788 355.553 412.591 355.54C412.472 355.568 412.368 355.64 412.3 355.742C412.232 355.844 412.205 355.968 412.225 356.089C412.259 356.278 412.331 356.458 412.437 356.618C412.594 356.877 412.781 357.116 412.995 357.33C413.182 357.541 413.416 357.703 413.679 357.802C413.679 357.802 413.438 357.59 413.111 357.215C412.919 356.999 412.752 356.764 412.61 356.512C412.447 356.262 412.331 355.819 412.61 355.761C412.89 355.704 413.207 356.021 413.39 356.262C413.557 356.488 413.671 356.747 413.727 357.022C413.762 357.287 413.772 357.555 413.756 357.821Z" fill="#1C4A9D"/>
<path d="M393.879 356.754C393.879 356.754 394.399 356.696 395.236 356.754C396.317 356.865 397.345 357.279 398.201 357.948C399.069 358.617 399.735 359.513 400.126 360.537C400.405 361.326 400.444 361.856 400.482 361.846C400.501 361.725 400.501 361.602 400.482 361.48C400.443 361.153 400.372 360.831 400.27 360.518C399.932 359.441 399.275 358.492 398.387 357.796C397.499 357.1 396.42 356.69 395.294 356.619C394.958 356.587 394.619 356.587 394.283 356.619C394.004 356.706 393.879 356.735 393.879 356.754Z" fill="#1C4A9D"/>
<path d="M395.719 349.103C395.594 350.353 395.549 351.61 395.584 352.866C395.549 354.125 395.581 355.384 395.68 356.639C395.805 355.386 395.85 354.125 395.815 352.866C395.85 351.611 395.818 350.354 395.719 349.103Z" fill="#1C4A9D"/>
<path d="M402.733 360.183C403.615 360.378 404.517 360.458 405.419 360.424C406.32 360.465 407.223 360.387 408.105 360.193C408.105 360.126 406.901 360.193 405.419 360.193C403.937 360.193 402.733 360.106 402.733 360.183Z" fill="#1C4A9D"/>
<path d="M399.164 360.209C399.164 360.258 399.26 360.46 399.385 360.739C399.511 361.018 399.578 361.249 399.645 361.249C399.713 361.249 399.732 360.96 399.588 360.643C399.443 360.325 399.203 360.161 399.164 360.209Z" fill="#1C4A9D"/>
<path d="M397.786 358.535C397.786 358.535 397.863 358.766 398.056 358.959C398.248 359.151 398.441 359.267 398.479 359.228C398.518 359.19 398.402 358.988 398.21 358.795C398.017 358.603 397.834 358.487 397.786 358.535Z" fill="#1C4A9D"/>
<path d="M395.841 357.774C395.841 357.841 396.101 357.832 396.37 357.928C396.64 358.024 396.832 358.159 396.88 358.12C396.928 358.082 396.774 357.822 396.438 357.716C396.101 357.61 395.822 357.726 395.841 357.774Z" fill="#1C4A9D"/>
<path d="M394.456 357.429C394.456 357.487 394.543 357.584 394.698 357.642C394.852 357.7 394.987 357.7 395.016 357.642C395.045 357.584 394.93 357.487 394.775 357.429C394.62 357.371 394.475 357.371 394.456 357.429Z" fill="#1C4A9D"/>
<g opacity="0.3">
<path d="M393.9 356.263L412.237 355.801L412.189 353.587L393.766 353.876L393.9 356.263Z" fill="black"/>
</g>
<path d="M337.791 251.566L391.425 252.529C395.581 252.608 399.568 254.188 402.652 256.976C405.735 259.763 407.706 263.572 408.203 267.699L418.839 354.137H389.712L380.808 279.481H338.513L337.791 251.566Z" fill="#1C4A9D"/>
<path d="M418.474 348.63C418.474 348.765 412.092 348.919 404.228 348.967C396.364 349.015 389.973 348.967 389.973 348.813C389.973 348.659 396.345 348.515 404.219 348.467C412.092 348.418 418.474 348.495 418.474 348.63Z" fill="#455A64"/>
<path d="M287.506 279.808C266.099 272.724 280.711 244.059 280.711 244.059L374.281 252.856C376.068 252.844 377.839 253.185 379.492 253.86C381.146 254.535 382.65 255.531 383.917 256.79C385.184 258.049 386.189 259.546 386.875 261.195C387.56 262.845 387.913 264.613 387.911 266.4C387.913 268.177 387.563 269.938 386.884 271.58C386.204 273.223 385.207 274.715 383.95 275.972C382.693 277.229 381.201 278.226 379.558 278.906C377.916 279.585 376.155 279.935 374.378 279.933L287.506 279.808Z" fill="#1C4A9D"/>
<path d="M316.046 249.428L316.315 247.407L340.264 246.464L352.017 216.826L396.795 219.868L381.683 252.768L316.046 249.428Z" fill="#455A64"/>
<path d="M369.642 236.05C369.394 236.443 369.036 236.755 368.611 236.944C368.187 237.134 367.716 237.193 367.257 237.115C366.799 237.036 366.375 236.824 366.037 236.504C365.7 236.184 365.465 235.771 365.363 235.318C365.26 234.865 365.294 234.391 365.461 233.957C365.628 233.523 365.92 233.149 366.3 232.881C366.679 232.613 367.13 232.463 367.595 232.452C368.06 232.44 368.517 232.567 368.91 232.816C369.435 233.148 369.807 233.675 369.944 234.282C370.081 234.888 369.972 235.524 369.642 236.05Z" fill="white"/>
<path d="M306.979 248.842C307.072 248.825 307.166 248.825 307.259 248.842H308.077L311.205 248.967L322.756 249.506L360.719 251.431C362.568 251.518 364.406 251.672 366.206 251.691C368.006 251.71 369.796 251.787 371.548 251.893C373.3 251.999 375.023 252.114 376.698 252.288C378.363 252.395 380.006 252.719 381.588 253.25C383.099 253.785 384.485 254.623 385.659 255.714C386.75 256.769 387.594 258.051 388.133 259.468C388.607 260.778 388.93 262.138 389.096 263.521C389.279 264.796 389.369 266.083 389.365 267.371C389.4 269.591 388.96 271.793 388.076 273.83C387.382 275.358 386.34 276.703 385.034 277.757C384.207 278.414 383.267 278.916 382.262 279.239C381.912 279.352 381.55 279.423 381.184 279.451C381.184 279.451 381.559 279.374 382.233 279.143C383.208 278.791 384.114 278.27 384.909 277.603C386.151 276.556 387.139 275.239 387.796 273.753C388.638 271.746 389.045 269.585 388.99 267.41C388.982 266.146 388.883 264.885 388.692 263.636C388.524 262.285 388.201 260.957 387.729 259.68C387.214 258.321 386.401 257.095 385.351 256.09C384.214 255.051 382.878 254.252 381.424 253.741C379.869 253.211 378.251 252.887 376.611 252.779C374.946 252.615 373.233 252.499 371.481 252.403C369.729 252.307 367.958 252.24 366.158 252.211C364.358 252.182 362.519 252.037 360.662 251.951L322.698 249.833L311.147 249.13L308.019 248.919L307.211 248.851L306.979 248.842Z" fill="#455A64"/>
<path d="M295.534 125.508L295.592 128.396L296.169 171.451C296.237 176.456 306.507 181.635 311.859 181.52C317.259 181.404 315.334 175.658 315.71 170.931C315.989 167.312 316.034 163.679 315.844 160.054C315.844 160.054 322.669 158.919 324.084 150.005C324.786 145.577 324.565 138.31 324.19 132.371C324.111 131.104 323.777 129.866 323.207 128.732C322.637 127.598 321.843 126.591 320.874 125.771C319.904 124.952 318.779 124.337 317.565 123.964C316.352 123.592 315.076 123.468 313.813 123.602L295.534 125.508Z" fill="#B78876"/>
<path d="M321.879 138.109C321.882 138.408 321.767 138.696 321.561 138.912C321.354 139.127 321.071 139.254 320.772 139.264C320.627 139.276 320.481 139.258 320.342 139.212C320.204 139.167 320.076 139.093 319.967 138.997C319.857 138.901 319.768 138.784 319.705 138.653C319.641 138.522 319.605 138.379 319.598 138.234C319.595 137.937 319.708 137.65 319.913 137.434C320.117 137.219 320.398 137.091 320.695 137.079C320.841 137.067 320.987 137.084 321.126 137.13C321.265 137.176 321.393 137.249 321.504 137.345C321.614 137.441 321.704 137.558 321.768 137.689C321.833 137.82 321.87 137.963 321.879 138.109Z" fill="#1C4A9D"/>
<path d="M322.66 136.126C322.515 136.271 321.649 135.635 320.417 135.635C319.185 135.635 318.29 136.251 318.155 136.107C318.02 135.963 318.232 135.77 318.627 135.481C319.158 135.113 319.79 134.918 320.436 134.923C321.077 134.918 321.701 135.121 322.217 135.501C322.602 135.828 322.727 136.059 322.66 136.126Z" fill="#1C4A9D"/>
<path d="M309.897 138.109C309.902 138.407 309.79 138.695 309.584 138.911C309.379 139.127 309.097 139.254 308.799 139.264C308.653 139.277 308.506 139.26 308.367 139.215C308.227 139.17 308.098 139.097 307.988 139.001C307.877 138.905 307.787 138.787 307.723 138.656C307.659 138.524 307.622 138.38 307.615 138.234C307.613 137.937 307.725 137.65 307.93 137.434C308.135 137.219 308.416 137.091 308.713 137.079C308.858 137.067 309.005 137.084 309.144 137.13C309.283 137.176 309.411 137.249 309.521 137.345C309.632 137.441 309.722 137.558 309.786 137.689C309.85 137.82 309.888 137.963 309.897 138.109Z" fill="#1C4A9D"/>
<path d="M310.568 136.357C310.423 136.501 309.557 135.866 308.325 135.866C307.093 135.866 306.198 136.482 306.063 136.337C305.928 136.193 306.14 136.001 306.535 135.712C307.069 135.342 307.704 135.147 308.354 135.153C308.994 135.151 309.618 135.354 310.135 135.731C310.51 136.02 310.635 136.289 310.568 136.357Z" fill="#1C4A9D"/>
<path d="M315.037 145.454C315.683 145.252 316.353 145.132 317.03 145.098C317.347 145.098 317.646 145.002 317.694 144.79C317.728 144.455 317.654 144.117 317.482 143.827C317.193 143.067 316.876 142.268 316.519 141.431C315.659 139.407 314.961 137.318 314.431 135.184C315.457 137.135 316.323 139.166 317.02 141.257L317.906 143.654C318.103 144.033 318.161 144.469 318.069 144.886C318.023 144.997 317.952 145.097 317.862 145.177C317.772 145.257 317.665 145.315 317.549 145.348C317.377 145.398 317.199 145.424 317.02 145.425C316.363 145.517 315.697 145.527 315.037 145.454Z" fill="#1C4A9D"/>
<path d="M315.884 160.025C311.687 160.088 307.555 158.985 303.948 156.839C303.948 156.839 306.836 162.961 315.759 162.123L315.884 160.025Z" fill="#AA6550"/>
<path d="M314.514 148.435C314.28 148.139 313.974 147.909 313.625 147.766C313.276 147.623 312.896 147.571 312.522 147.617C312.251 147.638 311.988 147.716 311.747 147.843C311.507 147.97 311.296 148.146 311.126 148.358C310.96 148.563 310.862 148.815 310.845 149.079C310.827 149.343 310.892 149.605 311.03 149.831C311.228 150.049 311.486 150.204 311.772 150.276C312.059 150.348 312.36 150.334 312.637 150.235C313.223 150.023 313.76 149.696 314.216 149.272C314.351 149.17 314.468 149.047 314.563 148.906C314.61 148.839 314.635 148.758 314.635 148.675C314.635 148.593 314.61 148.512 314.563 148.444" fill="#AA6550"/>
<path d="M311.417 146.319C311.61 146.319 311.619 147.648 312.755 148.591C313.891 149.534 315.325 149.4 315.335 149.554C315.344 149.708 315.017 149.813 314.372 149.833C313.591 149.84 312.832 149.575 312.226 149.082C311.64 148.601 311.267 147.91 311.186 147.157C311.176 146.647 311.292 146.319 311.417 146.319Z" fill="#1C4A9D"/>
<path d="M302.782 121.389C302.782 121.283 302.927 121.225 303.004 121.254C303.082 121.283 303.101 121.398 303.062 121.505C303.024 121.611 302.917 121.669 302.84 121.64C302.799 121.614 302.77 121.573 302.76 121.526C302.749 121.479 302.757 121.43 302.782 121.389Z" fill="#1C4A9D"/>
<path d="M295.072 167.669C296.379 167.171 297.564 166.398 298.546 165.401C299.527 164.405 300.283 163.208 300.761 161.894C301.694 159.247 301.762 156.371 300.953 153.683C300.597 152.441 300.096 151.084 300.645 149.919C301.149 149.132 301.803 148.452 302.57 147.917C304.101 146.439 305.007 144.431 305.102 142.306C305.178 140.191 304.79 138.085 303.966 136.136C303.542 135.057 303.003 133.883 303.417 132.786C303.774 132.03 304.305 131.371 304.967 130.861C306.237 129.675 307.287 128.274 308.066 126.722C308.395 126.201 308.604 125.614 308.677 125.003C308.75 124.392 308.687 123.772 308.49 123.189C307.845 121.851 306.161 121.428 304.64 121.322C301.117 121.052 297.218 121.832 295.014 124.565C293.002 127.01 292.771 130.427 292.627 133.594C292.184 143.576 291.741 153.654 293.464 163.501" fill="#1C4A9D"/>
<path d="M327.654 124.518C327.165 124.824 326.657 125.1 326.134 125.345C325.676 125.684 325.245 126.057 324.844 126.462C324.622 126.683 324.372 126.934 324.151 127.184C324.083 127.251 324.055 127.319 323.987 127.386L323.737 127.636L323.111 128.223C322.511 128.775 321.867 129.277 321.186 129.725C320.179 130.405 319.057 130.898 317.875 131.178C315.6 131.671 313.225 131.379 311.137 130.351C309.689 129.654 308.418 128.637 307.421 127.376C305.91 125.355 305.67 123.719 306.372 122.823C307.075 121.928 308.827 122.063 310.79 122.544C311.741 122.793 312.705 122.986 313.678 123.122C314.449 123.235 315.234 123.215 315.998 123.064C316.37 122.973 316.731 122.844 317.076 122.679C317.576 122.458 318.202 122.121 318.914 121.784C319.28 121.611 319.656 121.437 320.069 121.283L320.686 121.062C320.907 120.985 321.157 120.898 321.388 120.841C322.262 120.621 323.167 120.55 324.064 120.629C324.775 120.661 325.47 120.85 326.1 121.183C326.729 121.516 327.276 121.984 327.703 122.554C328.251 123.459 328.03 124.161 327.654 124.518Z" fill="#1C4A9D"/>
<path d="M310.886 131.535C310.761 131.872 309.539 131.708 308.095 131.881C306.651 132.055 305.486 132.449 305.294 132.151C305.207 132.006 305.409 131.698 305.881 131.371C306.505 130.963 307.218 130.712 307.96 130.64C308.699 130.556 309.447 130.645 310.145 130.9C310.675 131.111 310.935 131.381 310.886 131.535Z" fill="#1C4A9D"/>
<path d="M322.205 132.564C321.983 132.843 321.136 132.564 320.116 132.564C319.096 132.564 318.239 132.747 318.037 132.458C317.95 132.314 318.085 132.034 318.47 131.765C318.977 131.451 319.565 131.294 320.161 131.313C320.757 131.332 321.334 131.526 321.82 131.871C322.176 132.14 322.301 132.429 322.205 132.564Z" fill="#1C4A9D"/>
<path d="M59.0337 262.646L68.5439 260.259L73.1161 278.038L59.2455 281.676L58.8894 280.588C57.3589 275.776 51.4295 255.889 51.5739 252.356C51.7471 248.448 59.0337 262.646 59.0337 262.646Z" fill="#189E98"/>
<g opacity="0.4">
<path d="M55.2522 255.756C55.2522 255.756 52.3645 250.856 51.6618 251.742C50.9591 252.627 56.1955 272.918 59.2853 281.678L59.6799 281.543L53.327 257.921C53.327 257.921 55.435 256.805 55.2522 255.756Z" fill="white"/>
</g>
<path d="M59.7184 281.82C59.6717 281.725 59.6362 281.624 59.6125 281.521C59.5259 281.261 59.4296 280.973 59.3334 280.655C59.0639 279.789 58.7366 278.73 58.3708 277.459C57.5719 274.754 56.5131 271.01 55.435 266.871C54.3569 262.732 53.5099 258.911 52.8553 256.158L52.1527 252.895C52.0949 252.558 52.0372 252.269 51.9794 251.999C51.9216 251.73 51.9313 251.691 51.9313 251.691C51.9757 251.786 52.0081 251.887 52.0275 251.99C52.0853 252.259 52.1623 252.548 52.2393 252.875C52.451 253.761 52.7013 254.8 53.0093 256.119C53.6542 258.863 54.5783 262.655 55.6468 266.813C56.7152 270.972 57.7644 274.735 58.5345 277.45C58.8906 278.711 59.1986 279.789 59.4393 280.655C59.5259 280.982 59.6125 281.271 59.6799 281.541C59.7014 281.632 59.7142 281.726 59.7184 281.82Z" fill="#1C4A9D"/>
<path d="M53.0459 257.998C53.5451 257.729 54.0132 257.406 54.4416 257.035C54.8226 256.604 55.1461 256.125 55.4042 255.61C55.3079 256.205 55.0323 256.756 54.6143 257.189C54.1962 257.623 53.6557 257.918 53.0651 258.036L53.0459 257.998Z" fill="#1C4A9D"/>
<path d="M57.0703 262.549C57.0703 262.549 57.2628 262.183 57.5997 261.818C57.9366 261.452 58.2543 261.192 58.3024 261.23C58.3505 261.269 58.1099 261.606 57.7634 261.972C57.4168 262.337 57.1088 262.597 57.0703 262.549Z" fill="#1C4A9D"/>
<path d="M58.1961 263.849C58.148 263.849 58.2538 263.484 58.456 263.108C58.6581 262.733 58.8506 262.454 58.9084 262.483C58.9661 262.511 58.8506 262.839 58.6485 263.214C58.4463 263.589 58.2538 263.849 58.1961 263.849Z" fill="#1C4A9D"/>
<path d="M60.1119 264.272C59.8058 263.702 59.6346 263.07 59.6113 262.424C59.7972 262.691 59.9191 262.997 59.9675 263.319C60.0832 263.623 60.1325 263.948 60.1119 264.272Z" fill="#1C4A9D"/>
<path d="M61.3723 264.282C61.092 264.024 60.8944 263.689 60.8044 263.319C60.6492 262.975 60.6022 262.593 60.6696 262.222C60.82 262.552 60.9362 262.897 61.0162 263.252C61.1718 263.581 61.2912 263.926 61.3723 264.282Z" fill="#1C4A9D"/>
<path d="M58.4564 261.548C58.3013 261.184 58.207 260.798 58.1772 260.403C58.1362 259.977 58.1362 259.549 58.1772 259.123C58.1819 258.863 58.2174 258.604 58.2831 258.353C58.3241 258.196 58.4242 258.062 58.5623 257.977C58.6426 257.939 58.7323 257.924 58.8209 257.934C58.9095 257.944 58.9934 257.979 59.0628 258.035C59.3894 258.415 59.5738 258.896 59.5844 259.396C59.5949 259.897 59.4309 260.386 59.1205 260.778C58.9423 261.013 58.7158 261.207 58.4564 261.346C58.3657 261.405 58.2642 261.444 58.158 261.462C58.4767 261.252 58.7595 260.992 58.9954 260.692C59.2298 260.354 59.3634 259.957 59.3804 259.546C59.4073 259.06 59.2491 258.582 58.9377 258.208C58.7548 258.064 58.5526 258.208 58.4853 258.42C58.4305 258.654 58.395 258.892 58.3794 259.132C58.3455 259.552 58.3455 259.974 58.3794 260.393C58.389 261.106 58.4949 261.539 58.4564 261.548Z" fill="#1C4A9D"/>
<path d="M58.3301 261.27C58.5393 261.075 58.814 260.965 59.1001 260.962C59.424 260.915 59.7545 260.948 60.0627 261.058C60.2564 261.112 60.4337 261.213 60.5783 261.353C60.7229 261.492 60.8302 261.666 60.8905 261.857C60.8934 261.98 60.8491 262.1 60.7667 262.191C60.6844 262.282 60.5703 262.339 60.4477 262.348C60.2596 262.365 60.0702 262.345 59.8894 262.291C59.5988 262.205 59.3205 262.082 59.0616 261.925C58.813 261.798 58.5959 261.617 58.4263 261.395C58.4263 261.395 58.6958 261.569 59.1386 261.79C59.3969 261.918 59.6679 262.018 59.9472 262.088C60.2263 262.185 60.6884 262.175 60.6595 261.877C60.6306 261.578 60.2552 261.366 59.9857 261.251C59.7219 261.15 59.4401 261.104 59.1579 261.116C58.878 261.144 58.6011 261.195 58.3301 261.27Z" fill="#1C4A9D"/>
<path d="M64.4921 280.213C64.4921 280.213 64.4055 279.683 64.1071 278.913C63.7204 277.894 63.0533 277.006 62.1829 276.35C61.3126 275.694 60.2744 275.298 59.1884 275.207C58.3606 275.14 57.8408 275.207 57.8408 275.207C57.9537 275.158 58.0742 275.129 58.197 275.121C58.5304 275.061 58.8697 275.042 59.2077 275.063C60.334 275.113 61.4187 275.503 62.319 276.182C63.2193 276.861 63.893 277.796 64.2515 278.865C64.3586 279.178 64.436 279.5 64.4825 279.828C64.501 279.955 64.5043 280.084 64.4921 280.213Z" fill="#1C4A9D"/>
<path d="M71.4126 276.449C70.2316 276.885 69.0264 277.251 67.803 277.547C66.5978 277.919 65.3695 278.211 64.126 278.422C65.3174 277.989 66.5321 277.623 67.7645 277.325C68.9628 276.964 70.1809 276.672 71.4126 276.449Z" fill="#1C4A9D"/>
<path d="M58.8783 272.512C58.1101 270.882 57.6407 269.128 57.4922 267.333C57.5596 267.333 57.781 268.498 58.166 269.932C58.551 271.366 58.9457 272.512 58.8783 272.512Z" fill="#1C4A9D"/>
<path d="M59.7837 275.987C59.7837 276.045 59.5142 275.987 59.2158 275.91C58.9174 275.833 58.6671 275.852 58.6575 275.794C58.6479 275.737 58.9174 275.631 59.2543 275.689C59.5912 275.746 59.8222 275.939 59.7837 275.987Z" fill="#1C4A9D"/>
<path d="M61.7587 276.882C61.7587 276.882 61.5181 276.882 61.2774 276.728C61.0368 276.574 60.8828 276.439 60.9117 276.391C60.9405 276.343 61.1619 276.391 61.393 276.535C61.624 276.68 61.7876 276.824 61.7587 276.882Z" fill="#1C4A9D"/>
<path d="M62.9512 278.566C62.8839 278.566 62.8261 278.335 62.6721 278.094C62.5181 277.854 62.3256 277.7 62.3545 277.652C62.3833 277.604 62.6625 277.652 62.855 277.969C63.0475 278.287 63.0475 278.566 62.9512 278.566Z" fill="#1C4A9D"/>
<path d="M63.6941 279.811C63.6361 279.811 63.5201 279.811 63.4235 279.637C63.3269 279.463 63.2979 279.366 63.3462 279.328C63.3945 279.289 63.5105 279.376 63.6071 279.511C63.7037 279.646 63.7424 279.782 63.6941 279.811Z" fill="#1C4A9D"/>
<g opacity="0.3">
<path d="M64.9649 280.048L60.6719 262.222L62.8184 261.692L67.3039 279.558L64.9649 280.048Z" fill="black"/>
</g>
<path d="M67.1677 281.04L138.657 274.437L245.8 276.834L223.267 252.298L146.339 248.611L61.4404 256.629L67.1677 281.04Z" fill="#002C7C"/>
<path d="M78.7358 267.132C78.0127 267.477 77.2264 267.67 76.4257 267.7C75.625 267.859 74.8007 267.859 74 267.7C75.5483 267.182 77.1866 266.989 78.8128 267.132H78.7358Z" fill="#455A64"/>
<path d="M88.3044 266.13C87.5561 266.451 86.7508 266.618 85.9366 266.621C85.1396 266.785 84.3175 266.785 83.5205 266.621C85.0733 266.125 86.7131 265.961 88.3333 266.14L88.3044 266.13Z" fill="#455A64"/>
<path d="M97.8922 265.273C97.1405 265.59 96.3302 265.744 95.5147 265.725C94.7174 265.887 93.8959 265.887 93.0986 265.725C93.8502 265.407 94.6601 265.249 95.4762 265.263C96.2743 265.107 97.0954 265.11 97.8922 265.273Z" fill="#455A64"/>
<path d="M107.49 264.57C105.925 265.011 104.287 265.126 102.677 264.907C103.431 264.601 104.241 264.457 105.054 264.484C105.863 264.343 106.693 264.373 107.49 264.57Z" fill="#455A64"/>
<path d="M117.095 264.003C116.335 264.295 115.522 264.426 114.708 264.388C113.903 264.514 113.081 264.475 112.292 264.273C113.053 263.981 113.865 263.85 114.679 263.888C115.484 263.762 116.306 263.801 117.095 264.003Z" fill="#455A64"/>
<path d="M126.711 263.59C125.138 263.989 123.499 264.054 121.898 263.782C122.66 263.498 123.474 263.38 124.286 263.436C125.096 263.314 125.923 263.367 126.711 263.59Z" fill="#455A64"/>
<path d="M136.337 263.31C135.566 263.568 134.752 263.673 133.94 263.618C133.13 263.72 132.308 263.655 131.524 263.426C132.294 263.162 133.11 263.057 133.921 263.118C134.731 263.01 135.555 263.076 136.337 263.31Z" fill="#455A64"/>
<path d="M145.963 263.165C145.187 263.416 144.369 263.511 143.557 263.444C142.747 263.535 141.928 263.456 141.15 263.213C142.738 262.886 144.376 262.886 145.963 263.213V263.165Z" fill="#455A64"/>
<path d="M155.587 263.167C154.81 263.41 153.991 263.492 153.181 263.408C152.369 263.492 151.549 263.403 150.774 263.148C152.361 262.814 154 262.814 155.587 263.148V263.167Z" fill="#455A64"/>
<path d="M165.212 263.31C164.429 263.539 163.607 263.607 162.796 263.512C161.986 263.58 161.17 263.482 160.399 263.223C161.178 262.987 161.998 262.915 162.806 263.011C163.62 262.945 164.439 263.047 165.212 263.31Z" fill="#455A64"/>
<path d="M174.83 263.589C174.044 263.805 173.223 263.864 172.414 263.762C171.602 263.81 170.788 263.699 170.018 263.435C170.802 263.207 171.625 263.148 172.434 263.261C173.246 263.205 174.062 263.317 174.83 263.589Z" fill="#455A64"/>
<path d="M184.446 264.023C183.657 264.225 182.835 264.268 182.03 264.148C181.217 264.198 180.403 264.073 179.643 263.782C180.431 263.579 181.252 263.533 182.059 263.648C182.872 263.603 183.685 263.731 184.446 264.023Z" fill="#455A64"/>
<path d="M194.052 264.589C192.444 264.823 190.805 264.718 189.239 264.281C190.034 264.092 190.858 264.06 191.665 264.185C192.48 264.158 193.292 264.296 194.052 264.589Z" fill="#455A64"/>
<path d="M203.658 265.321C202.044 265.53 200.405 265.399 198.845 264.936C199.638 264.755 200.46 264.736 201.261 264.879C202.082 264.858 202.898 265.009 203.658 265.321Z" fill="#455A64"/>
<path d="M208.743 265.774C208.743 265.919 208.656 266.026 208.569 266.016C208.482 266.006 208.434 265.89 208.453 265.745C208.473 265.6 208.54 265.504 208.618 265.513C208.695 265.523 208.753 265.629 208.743 265.774Z" fill="#455A64"/>
<path d="M72.8958 280.319C72.7136 280.046 72.571 279.747 72.4723 279.434C72.2316 278.856 71.9044 277.999 71.5097 276.931C70.7493 274.813 69.7867 271.839 68.8915 268.499C67.9964 265.159 67.3707 262.108 66.9664 259.884C66.7739 258.767 66.6295 257.872 66.5525 257.237C66.485 256.921 66.4623 256.597 66.4851 256.274C66.8272 257.445 67.1036 258.634 67.3129 259.836C67.7942 262.04 68.4873 265.072 69.3728 268.393C70.2584 271.714 71.1632 274.688 71.837 276.844C72.2524 277.983 72.6059 279.143 72.8958 280.319Z" fill="#455A64"/>
<path d="M117.489 274.263L118.981 264.57L137.145 267.256L135.143 281.454L134.007 281.357C128.953 280.895 108.345 278.653 105.13 277.141C101.54 275.447 117.489 274.263 117.489 274.263Z" fill="#189E98"/>
<g opacity="0.4">
<path d="M109.653 275.111C109.653 275.111 104.012 275.872 104.561 276.863C105.11 277.855 125.834 280.906 135.103 281.455V281.041L110.885 277.691C110.885 277.691 110.702 275.313 109.653 275.111Z" fill="white"/>
</g>
<path d="M135.422 281.08H135.104L134.199 281.003L130.879 280.656C128.078 280.348 124.208 279.867 119.953 279.251C115.699 278.635 111.849 277.971 109.077 277.461L105.794 276.845L104.909 276.652C104.803 276.64 104.7 276.614 104.601 276.575H104.909L105.813 276.72L109.154 277.326C111.926 277.798 115.776 278.423 120.03 279.049C124.285 279.675 128.145 280.175 130.946 280.522L134.257 280.936L135.152 281.061L135.422 281.08Z" fill="#1C4A9D"/>
<path d="M110.877 277.971C110.815 277.402 110.686 276.843 110.492 276.305C110.222 275.795 109.899 275.314 109.529 274.871C110.062 275.166 110.47 275.645 110.675 276.219C110.96 276.756 111.033 277.382 110.877 277.971Z" fill="#1C4A9D"/>
<path d="M116.642 276.045C116.585 276.045 116.373 275.718 116.171 275.256C115.969 274.794 115.892 274.438 115.892 274.438C115.892 274.438 116.161 274.765 116.363 275.217C116.513 275.47 116.608 275.753 116.642 276.045Z" fill="#1C4A9D"/>
<path d="M118.223 275.477C118.223 275.477 117.925 275.285 117.646 274.957C117.367 274.63 117.193 274.332 117.241 274.293C117.29 274.255 117.549 274.486 117.819 274.813C118.088 275.14 118.271 275.4 118.223 275.477Z" fill="#1C4A9D"/>
<path d="M119.407 273.899C119.091 273.981 118.76 273.981 118.444 273.899C118.11 273.897 117.78 273.818 117.481 273.668C117.481 273.601 117.915 273.61 118.444 273.668C118.778 273.672 119.107 273.751 119.407 273.899Z" fill="#1C4A9D"/>
<path d="M119.907 272.744C119.56 272.901 119.175 272.951 118.8 272.889C118.422 272.896 118.051 272.792 117.731 272.59C118.096 272.577 118.46 272.603 118.819 272.667C119.183 272.657 119.548 272.683 119.907 272.744Z" fill="#1C4A9D"/>
<path d="M116.259 274.359C115.863 274.375 115.468 274.316 115.094 274.186C114.678 274.074 114.275 273.92 113.891 273.724C113.65 273.624 113.423 273.491 113.217 273.33C113.095 273.227 113.013 273.083 112.986 272.925C112.981 272.836 113 272.747 113.043 272.669C113.085 272.591 113.149 272.526 113.227 272.482C113.706 272.331 114.223 272.349 114.689 272.535C115.156 272.721 115.544 273.063 115.787 273.503C115.93 273.762 116.022 274.046 116.057 274.34C116.077 274.445 116.077 274.553 116.057 274.658C115.989 274.28 115.859 273.915 115.672 273.58C115.453 273.235 115.139 272.96 114.767 272.791C114.552 272.679 114.317 272.612 114.076 272.592C113.835 272.572 113.592 272.6 113.362 272.675C113.16 272.791 113.198 273.012 113.362 273.166C113.548 273.314 113.752 273.44 113.968 273.541C114.343 273.736 114.732 273.9 115.133 274.032C115.816 274.263 116.259 274.331 116.259 274.359Z" fill="#1C4A9D"/>
<path d="M115.95 274.378C115.845 274.112 115.845 273.816 115.95 273.551C116.03 273.249 116.182 272.972 116.393 272.742C116.516 272.583 116.678 272.458 116.863 272.378C117.049 272.299 117.251 272.269 117.452 272.29C117.566 272.331 117.66 272.416 117.712 272.526C117.764 272.636 117.771 272.762 117.731 272.877C117.678 273.061 117.586 273.232 117.461 273.377C117.266 273.608 117.046 273.818 116.807 274.003C116.595 274.186 116.34 274.312 116.065 274.369C116.065 274.369 116.325 274.195 116.701 273.878C116.923 273.689 117.123 273.476 117.298 273.243C117.49 273.021 117.673 272.598 117.384 272.501C117.224 272.497 117.066 272.529 116.92 272.596C116.775 272.663 116.647 272.762 116.547 272.886C116.35 273.086 116.199 273.325 116.104 273.589C116.025 273.846 115.973 274.111 115.95 274.378Z" fill="#1C4A9D"/>
<path d="M135.778 276.053C135.332 275.979 134.882 275.928 134.431 275.899C133.345 275.867 132.272 276.137 131.331 276.679C130.395 277.232 129.63 278.031 129.117 278.989C128.723 279.73 128.626 280.25 128.578 280.241C128.577 280.113 128.597 279.987 128.636 279.865C128.719 279.534 128.835 279.211 128.982 278.903C129.467 277.886 130.245 277.038 131.216 276.467C132.19 275.898 133.315 275.64 134.44 275.726C134.767 275.746 135.09 275.804 135.403 275.899C135.663 275.986 135.788 276.034 135.778 276.053Z" fill="#1C4A9D"/>
<path d="M135.018 268.22C134.957 269.478 134.826 270.731 134.623 271.974C134.489 273.223 134.283 274.464 134.007 275.689C134.067 274.431 134.199 273.178 134.401 271.935C134.53 270.685 134.735 269.444 135.018 268.22Z" fill="#1C4A9D"/>
<path d="M126.481 278.229C125.581 278.302 124.676 278.26 123.786 278.104C122.891 278.018 122.01 277.814 121.168 277.498C121.168 277.43 122.352 277.68 123.815 277.883C125.278 278.085 126.481 278.162 126.481 278.229Z" fill="#1C4A9D"/>
<path d="M130.081 278.75C130.081 278.75 129.946 278.99 129.783 279.241C129.619 279.491 129.523 279.722 129.456 279.712C129.388 279.703 129.407 279.414 129.59 279.116C129.773 278.817 130.043 278.702 130.081 278.75Z" fill="#1C4A9D"/>
<path d="M131.659 277.326C131.659 277.374 131.553 277.548 131.341 277.711C131.13 277.875 130.918 277.961 130.879 277.913C130.841 277.865 130.985 277.692 131.207 277.528C131.428 277.365 131.63 277.23 131.659 277.326Z" fill="#1C4A9D"/>
<path d="M133.699 276.797C133.699 276.855 133.43 276.797 133.151 276.874C132.871 276.951 132.66 277.047 132.612 276.999C132.563 276.951 132.766 276.72 133.112 276.653C133.459 276.585 133.718 276.749 133.699 276.797Z" fill="#1C4A9D"/>
<path d="M135.143 276.643C135.143 276.701 135.037 276.778 134.883 276.816C134.729 276.855 134.575 276.816 134.565 276.768C134.555 276.72 134.671 276.633 134.825 276.595C134.979 276.556 135.143 276.576 135.143 276.643Z" fill="#1C4A9D"/>
<g opacity="0.3">
<path d="M135.826 275.563L117.729 272.588L118.086 270.403L136.288 273.214L135.826 275.563Z" fill="black"/>
</g>
<path d="M214.074 123.228C211.36 127.607 213.237 134.778 214.074 139.88C214.911 144.981 215.999 150.247 214.536 155.185C213.747 157.851 212.216 160.334 212.033 163.097C211.793 166.668 213.805 169.931 215.335 173.156C216.865 176.38 217.934 180.394 215.961 183.378C215.219 184.514 214.036 185.573 214.18 186.93C214.372 188.595 216.663 189.279 218.165 188.518C219.667 187.758 220.514 186.16 221.255 184.668C221.684 185.565 221.925 186.54 221.961 187.534C221.998 188.527 221.829 189.518 221.467 190.443C224.105 191.434 226.968 191.668 229.733 191.121C232.498 190.573 235.056 189.265 237.118 187.344V148.553L214.074 123.228Z" fill="#189E98"/>
<path d="M221.234 173.484L200.731 196.171L211.984 213.266C211.984 213.266 237.434 192.87 238.281 190.28C240.341 183.985 241.4 167.294 229.705 168.863C226.423 169.351 223.421 170.989 221.234 173.484Z" fill="#455A64"/>
<path d="M228.849 172.876L249.621 162.211C249.621 162.211 268.459 165.84 268.805 187.132C269.152 208.424 267.756 242.806 267.756 242.806H219.021L228.849 172.876Z" fill="#455A64"/>
<path d="M230.804 170.172C229.899 165.138 228.879 159.844 228.879 159.844C228.879 159.844 222.198 159.911 219.359 151.672C216.654 143.817 214.69 124.913 214.69 124.913C218.976 122.249 223.974 120.96 229.013 121.218C234.053 121.476 238.893 123.269 242.884 126.356L249.545 167.41C250.325 172.174 246.84 176.631 241.729 177.42C236.541 178.181 231.66 174.975 230.804 170.172Z" fill="#FFBE9D"/>
<path d="M217.923 139.273C217.97 139.557 218.126 139.812 218.358 139.982C218.59 140.153 218.879 140.227 219.164 140.188C219.306 140.176 219.443 140.136 219.568 140.07C219.693 140.004 219.804 139.913 219.894 139.804C219.984 139.695 220.05 139.568 220.09 139.432C220.131 139.297 220.143 139.154 220.127 139.013C220.08 138.73 219.923 138.475 219.692 138.304C219.46 138.134 219.171 138.06 218.885 138.099C218.744 138.111 218.607 138.151 218.482 138.217C218.356 138.283 218.246 138.373 218.156 138.483C218.066 138.592 217.999 138.719 217.959 138.855C217.919 138.99 217.907 139.133 217.923 139.273Z" fill="#1C4A9D"/>
<path d="M217.665 138.166C217.819 138.282 218.541 137.531 219.706 137.329C220.871 137.127 221.843 137.56 221.939 137.386C222.036 137.213 221.804 137.088 221.391 136.876C220.821 136.619 220.187 136.539 219.571 136.645C218.962 136.749 218.402 137.046 217.973 137.492C217.665 137.839 217.588 138.108 217.665 138.166Z" fill="#1C4A9D"/>
<path d="M229.917 137.752C229.967 138.034 230.124 138.286 230.355 138.455C230.587 138.623 230.875 138.696 231.159 138.657C231.3 138.645 231.437 138.604 231.562 138.539C231.687 138.473 231.798 138.382 231.888 138.273C231.978 138.163 232.045 138.037 232.085 137.901C232.125 137.765 232.137 137.623 232.121 137.482C232.074 137.198 231.918 136.944 231.686 136.773C231.454 136.603 231.165 136.529 230.879 136.568C230.738 136.581 230.601 136.622 230.475 136.689C230.35 136.756 230.239 136.847 230.15 136.958C230.06 137.068 229.993 137.195 229.953 137.331C229.913 137.468 229.901 137.611 229.917 137.752Z" fill="#1C4A9D"/>
<path d="M229.937 136.445C230.1 136.561 230.813 135.8 231.987 135.598C233.161 135.396 234.114 135.829 234.22 135.665C234.326 135.502 234.085 135.357 233.662 135.155C233.096 134.897 232.465 134.817 231.852 134.924C231.243 135.028 230.683 135.325 230.254 135.771C229.937 136.108 229.86 136.387 229.937 136.445Z" fill="#1C4A9D"/>
<path d="M227.222 145.857C226.583 145.781 225.936 145.781 225.297 145.857C224.999 145.857 224.7 145.857 224.614 145.674C224.512 145.362 224.512 145.025 224.614 144.712C224.768 143.942 224.931 143.133 225.095 142.286C225.587 140.214 225.909 138.106 226.057 135.981C225.418 138.01 224.939 140.086 224.623 142.19C224.469 143.047 224.315 143.855 224.18 144.625C224.038 145.014 224.038 145.44 224.18 145.828C224.24 145.928 224.323 146.011 224.422 146.071C224.521 146.131 224.633 146.167 224.748 146.175C224.921 146.2 225.096 146.2 225.268 146.175C225.93 146.154 226.587 146.047 227.222 145.857Z" fill="#1C4A9D"/>
<path d="M228.85 159.892C232.852 159.25 236.597 157.511 239.669 154.867C239.669 154.867 237.946 161.172 229.321 161.875L228.85 159.892Z" fill="#EB996E"/>
<path d="M228.213 148.591C228.389 148.274 228.642 148.006 228.948 147.811C229.254 147.616 229.603 147.5 229.965 147.474C230.227 147.455 230.49 147.487 230.74 147.57C230.989 147.652 231.22 147.783 231.418 147.956C231.611 148.122 231.746 148.343 231.807 148.59C231.867 148.837 231.849 149.096 231.755 149.332C231.606 149.576 231.386 149.77 231.125 149.888C230.865 150.007 230.575 150.044 230.292 149.996C229.704 149.894 229.142 149.678 228.637 149.361C228.488 149.29 228.354 149.192 228.242 149.072C228.19 149.014 228.156 148.942 228.144 148.865C228.133 148.789 228.143 148.71 228.175 148.639" fill="#EB996E"/>
<path d="M230.804 146.069C230.621 146.069 230.804 147.359 229.908 148.447C229.013 149.535 227.608 149.64 227.627 149.823C227.646 150.006 227.974 150.016 228.542 149.929C229.289 149.811 229.971 149.432 230.467 148.861C230.934 148.305 231.174 147.594 231.141 146.868C231.092 146.329 230.89 146.04 230.804 146.069Z" fill="#1C4A9D"/>
<path d="M237.117 120.292C234.855 125.288 227.492 131.371 221.851 133.527C222.361 132.497 225.547 129.6 226.067 128.561C223.776 131.054 220.474 134.423 216.98 135.299C216.572 135.418 216.138 135.418 215.729 135.299C215.501 135.177 215.304 135.004 215.154 134.794C215.003 134.583 214.904 134.341 214.863 134.086C214.185 131.57 213.782 128.988 213.66 126.385C213.543 124.185 214.27 122.024 215.691 120.34C217.616 118.175 220.773 117.135 223.805 116.49C226.32 115.851 228.937 115.714 231.505 116.086C234.018 116.577 236.318 118.011 237.117 120.148" fill="#189E98"/>
<path d="M250.652 139.11C250.693 137.183 250.623 135.254 250.44 133.335C249.863 128.927 247.716 111.716 229.408 115.884L235.261 121.12C235.261 121.12 234.125 131.448 241.719 136.983C241.719 136.983 241.719 147.292 246.956 151.008C246.956 151.008 250.623 144.02 250.652 139.149" fill="#189E98"/>
<path d="M241.382 136.253C242.257 135.897 243.213 135.791 244.144 135.945C245.08 136.107 245.914 136.633 246.464 137.408C246.964 138.215 247.142 139.18 246.965 140.112C246.782 141.035 246.398 141.907 245.839 142.663C245.469 143.23 244.971 143.701 244.385 144.04C244.09 144.201 243.759 144.286 243.422 144.286C243.086 144.286 242.755 144.201 242.46 144.04" fill="#FFBE9D"/>
<path d="M242.856 141.651C242.759 141.709 243.25 142.19 244.04 141.815C244.455 141.583 244.765 141.201 244.906 140.746C245.066 140.233 245.128 139.694 245.089 139.158C245.057 138.585 244.821 138.042 244.425 137.628C244.259 137.451 244.054 137.315 243.827 137.229C243.6 137.144 243.357 137.113 243.116 137.137C242.259 137.272 242.095 137.907 242.153 137.907C242.211 137.907 242.519 137.599 243.116 137.637C243.478 137.708 243.803 137.906 244.033 138.196C244.262 138.485 244.381 138.847 244.367 139.216C244.439 139.601 244.422 139.997 244.316 140.374C244.211 140.751 244.021 141.099 243.76 141.391C243.318 141.738 242.952 141.603 242.856 141.651Z" fill="#EB996E"/>
<path d="M265.167 242.808H247.023L249.621 191.417L225.654 192.215C225.654 192.215 221.572 227.83 221.158 232.451C195.362 208.887 177.574 194.015 165.282 185.16C148.918 173.34 140.082 182.474 136.665 186.738C127.636 198 112.129 269.827 112.129 269.827L140.245 274.293L154.953 212.189C154.953 212.189 187.007 251.355 212.919 274.072C222.092 282.119 239.264 281.041 245.8 278.461C245.839 278.461 265.802 267.613 265.167 242.808Z" fill="#1C4A9D"/>
<path d="M237.935 248.449C237.714 249.555 237.607 250.681 237.618 251.809C237.648 253.159 237.963 254.488 238.54 255.709C239.118 256.93 239.947 258.015 240.972 258.895C241.997 259.775 243.195 260.429 244.49 260.815C245.784 261.201 247.145 261.31 248.485 261.136C249.597 260.972 250.69 260.698 251.748 260.318C251.51 260.515 251.239 260.672 250.949 260.78C250.181 261.136 249.363 261.373 248.523 261.482C247.134 261.694 245.716 261.604 244.365 261.218C243.013 260.832 241.761 260.159 240.693 259.246C239.626 258.332 238.767 257.199 238.177 255.924C237.586 254.649 237.277 253.262 237.271 251.857C237.255 251.008 237.365 250.161 237.598 249.344C237.665 249.031 237.779 248.729 237.935 248.449Z" fill="#455A64"/>
<path d="M141.314 268.805C141.314 268.95 135.028 268.093 127.328 266.88C119.627 265.667 113.39 264.618 113.409 264.474C113.428 264.329 119.695 265.196 127.405 266.399C135.115 267.602 141.333 268.661 141.314 268.805Z" fill="#455A64"/>
<path d="M128.493 265.274C128.55 266.087 128.439 266.903 128.166 267.671C128.061 268.48 127.785 269.258 127.357 269.952C127.411 268.332 127.798 266.739 128.493 265.274Z" fill="#455A64"/>
<path d="M130.85 255.938C130.893 256.752 130.772 257.567 130.494 258.334C130.371 259.142 130.082 259.915 129.646 260.606C129.728 258.985 130.138 257.397 130.85 255.938Z" fill="#455A64"/>
<path d="M133.375 246.649C133.405 247.464 133.271 248.275 132.98 249.037C132.842 249.84 132.54 250.606 132.095 251.289C132.066 250.475 132.2 249.663 132.489 248.902C132.628 248.098 132.929 247.332 133.375 246.649Z" fill="#455A64"/>
<path d="M136.105 237.416C135.972 239.031 135.507 240.6 134.738 242.027C134.723 241.212 134.873 240.403 135.181 239.649C135.328 238.848 135.643 238.087 136.105 237.416Z" fill="#455A64"/>
<path d="M138.906 228.234C138.909 229.051 138.745 229.86 138.425 230.612C138.253 231.406 137.926 232.159 137.462 232.826C137.454 232.011 137.618 231.204 137.943 230.458C138.107 229.658 138.435 228.901 138.906 228.234Z" fill="#455A64"/>
<path d="M141.882 219.082C141.877 219.896 141.699 220.7 141.362 221.44C141.192 222.232 140.865 222.982 140.399 223.645C140.589 222.036 141.107 220.483 141.92 219.082H141.882Z" fill="#455A64"/>
<path d="M145.058 209.946C145.033 210.759 144.843 211.558 144.5 212.295C144.314 213.088 143.963 213.832 143.47 214.48C143.679 212.875 144.22 211.331 145.058 209.946Z" fill="#455A64"/>
<path d="M148.321 200.928C148.283 201.742 148.083 202.54 147.734 203.276C147.532 204.066 147.172 204.806 146.675 205.452C146.707 204.637 146.907 203.837 147.262 203.103C147.459 202.312 147.82 201.571 148.321 200.928Z" fill="#455A64"/>
<path d="M153.299 200.425C153.193 200.521 152.394 199.789 151.499 198.808C150.603 197.826 149.968 196.95 150.074 196.882C150.18 196.815 150.979 197.518 151.874 198.499C152.769 199.481 153.433 200.319 153.299 200.425Z" fill="#455A64"/>
<path d="M159.795 207.53C159.699 207.626 158.881 206.904 157.985 205.922C157.09 204.94 156.436 204.074 156.542 203.997C156.647 203.92 157.456 204.623 158.351 205.604C159.246 206.586 159.901 207.433 159.795 207.53Z" fill="#455A64"/>
<path d="M166.339 214.584C166.233 214.68 165.376 213.968 164.52 212.996C163.663 212.024 162.96 211.157 163.057 211.071C163.153 210.984 164.019 211.687 164.886 212.659C165.49 213.2 165.984 213.854 166.339 214.584Z" fill="#455A64"/>
<path d="M172.915 221.611C172.819 221.707 171.952 221.005 171.086 220.032C170.22 219.06 169.517 218.204 169.623 218.107C169.729 218.011 170.585 218.723 171.452 219.686C172.059 220.227 172.556 220.881 172.915 221.611Z" fill="#455A64"/>
<path d="M179.517 228.619C179.411 228.715 178.555 228.013 177.679 227.04C176.803 226.068 176.11 225.212 176.216 225.115C176.322 225.019 177.13 225.722 178.045 226.694C178.959 227.666 179.614 228.523 179.517 228.619Z" fill="#455A64"/>
<path d="M186.159 235.607C186.063 235.704 185.196 235.001 184.33 234.038C183.464 233.076 182.751 232.209 182.848 232.113C182.944 232.017 183.81 232.729 184.686 233.692C185.562 234.654 186.236 235.511 186.159 235.607Z" fill="#455A64"/>
<path d="M192.761 242.596C192.655 242.692 191.799 241.99 190.923 241.018C190.047 240.045 189.344 239.198 189.44 239.092C189.537 238.987 190.403 239.699 191.279 240.671C192.155 241.643 192.896 242.5 192.761 242.596Z" fill="#455A64"/>
<path d="M199.385 249.584C199.279 249.67 198.423 248.968 197.547 248.005C196.671 247.043 195.968 246.176 196.074 246.08C196.18 245.984 197.037 246.687 197.913 247.649C198.788 248.612 199.482 249.488 199.385 249.584Z" fill="#455A64"/>
<path d="M205.988 256.572C205.892 256.668 205.026 255.965 204.159 254.993C203.293 254.021 202.59 253.174 202.687 253.068C202.783 252.962 203.649 253.674 204.525 254.647C205.401 255.619 206.094 256.485 205.988 256.572Z" fill="#455A64"/>
<path d="M212.88 263.281C212.103 263.008 211.406 262.549 210.849 261.943C209.886 261.048 209.193 260.172 209.289 260.076C209.385 259.98 210.252 260.692 211.214 261.568C212.177 262.444 212.957 263.166 212.88 263.281Z" fill="#455A64"/>
<path d="M221.581 267.179C219.927 267.24 218.301 266.745 216.961 265.773C217.76 265.865 218.542 266.072 219.281 266.389C220.081 266.543 220.855 266.809 221.581 267.179Z" fill="#455A64"/>
<path d="M231.044 266.292C230.407 266.819 229.632 267.153 228.811 267.255C228.251 267.393 227.675 267.464 227.098 267.466C226.655 267.466 226.376 267.466 226.376 267.36C226.376 267.255 227.435 267.062 228.696 266.773C229.457 266.52 230.245 266.359 231.044 266.292Z" fill="#455A64"/>
<path d="M238.85 260.761C238.947 260.857 238.273 261.724 237.253 262.59C236.232 263.456 235.279 264.014 235.202 263.899C235.125 263.783 235.934 263.081 236.925 262.214C237.917 261.348 238.754 260.665 238.85 260.761Z" fill="#455A64"/>
<path d="M191.935 184.207L167.697 170.914L166.831 172.791L190.953 186.305L191.935 184.207Z" fill="#1C4A9D"/>
<path d="M186.101 183.59C186.101 183.59 180.479 176.275 179.661 174.677C178.843 173.079 177.457 170.297 177.024 170.278C176.591 170.259 175.099 170.634 177.524 175.399C179.95 180.164 175.291 177.526 175.291 177.526L170.642 174.927C170.642 174.927 168.236 185.246 170.43 188.124C172.509 190.601 174.813 192.879 177.313 194.929L186.101 183.59Z" fill="#FFBE9D"/>
<path d="M175.802 193.004C175.802 193.004 204.977 230.708 215.431 233.211C225.884 235.713 253.365 206.567 253.365 206.567L241.449 191.705C241.449 191.705 219.079 212.275 217.587 211.486C216.095 210.696 186.101 183.571 186.101 183.571L175.802 193.004Z" fill="#FFBE9D"/>
<path d="M250.411 179.75L227.155 203.506L241.988 222.988C241.988 222.988 265.571 204.488 265.773 196.922C265.947 190.492 264.021 178.287 256.513 177.421C255.386 177.323 254.252 177.481 253.195 177.885C252.138 178.288 251.186 178.926 250.411 179.75Z" fill="#455A64"/>
<path d="M146.693 245.186C146.679 245.38 146.65 245.573 146.607 245.763C146.53 246.167 146.424 246.726 146.289 247.39C145.981 248.853 145.558 250.913 145.028 253.464L140.523 274.342L140.475 274.563H140.244L129.367 272.821L112.089 270.049H111.849L111.906 269.818C113.533 263.147 114.919 257.506 115.901 253.454C116.392 251.529 116.787 249.95 117.075 248.824C117.21 248.324 117.316 247.919 117.403 247.611C117.431 247.468 117.476 247.33 117.537 247.197C117.53 247.34 117.507 247.482 117.47 247.621L117.21 248.863C116.96 249.979 116.604 251.548 116.171 253.512L112.32 269.875L112.137 269.606L129.464 272.32L140.302 274.053L140.032 274.236C141.909 265.861 143.536 258.613 144.711 253.396L146.106 247.351C146.28 246.687 146.405 246.148 146.511 245.744C146.547 245.551 146.609 245.363 146.693 245.186Z" fill="#455A64"/>
<path d="M218.886 277.46C218.748 277.477 218.609 277.477 218.472 277.46C218.077 277.404 217.689 277.304 217.317 277.161C215.959 276.604 214.725 275.783 213.688 274.745L203.34 264.812C199.307 260.961 195.64 257.419 193.079 254.849L190.009 251.827C189.62 251.464 189.259 251.071 188.931 250.652C189.363 250.962 189.768 251.306 190.144 251.682L193.33 254.637C195.996 257.14 199.663 260.625 203.687 264.494C207.71 268.364 211.387 271.877 213.938 274.466C214.922 275.503 216.091 276.349 217.384 276.959C218.318 277.373 218.886 277.402 218.886 277.46Z" fill="#455A64"/>
<path d="M232.488 246.697C230.039 244.595 227.697 242.372 225.47 240.036C223.134 237.81 220.911 235.468 218.81 233.019C221.267 235.111 223.609 237.335 225.827 239.68C228.169 241.9 230.392 244.242 232.488 246.697Z" fill="#455A64"/>
<path d="M227.154 169.518L225.623 192.215L229.31 192.629L230.513 168.758C229.351 168.764 228.205 169.024 227.154 169.518Z" fill="#455A64"/>
<path d="M226.964 176.642C224.285 176.976 221.576 176.976 218.897 176.642C221.576 176.308 224.285 176.308 226.964 176.642Z" fill="#FAFAFA"/>
<path d="M268.623 184.149C268.623 184.283 255.811 184.399 240.006 184.399C224.201 184.399 211.398 184.283 211.398 184.149C211.398 184.014 224.201 183.898 240.006 183.898C255.811 183.898 268.623 184.014 268.623 184.149Z" fill="#FAFAFA"/>
<path d="M224.718 193.909C224.718 194.044 219.799 194.16 213.735 194.16C207.671 194.16 202.762 194.044 202.762 193.909C202.762 193.775 207.671 193.659 213.735 193.659C219.799 193.659 224.718 193.765 224.718 193.909Z" fill="#FAFAFA"/>
<path d="M268.622 193.158C268.622 193.292 261.884 193.408 253.606 193.408C245.328 193.408 238.6 193.292 238.6 193.158C238.6 193.023 245.338 192.907 253.606 192.907C261.874 192.907 268.622 193.013 268.622 193.158Z" fill="#FAFAFA"/>
<path d="M268.621 202.351C268.621 202.486 259.958 202.601 249.196 202.601C238.435 202.601 229.781 202.486 229.781 202.351C229.781 202.216 238.444 202.101 249.196 202.101C259.948 202.101 268.621 202.245 268.621 202.351Z" fill="#FAFAFA"/>
<path d="M268.852 213.796C268.852 213.941 261.325 214.046 252.036 214.046C242.747 214.046 235.249 213.931 235.249 213.796C235.249 213.661 242.776 213.546 252.065 213.546C261.354 213.546 268.852 213.652 268.852 213.796Z" fill="#FAFAFA"/>
<path d="M268.246 222.238C268.246 222.372 263.665 222.488 258.014 222.488C252.364 222.488 247.792 222.372 247.792 222.238C247.792 222.103 252.374 221.987 258.014 221.987C263.655 221.987 268.246 222.103 268.246 222.238Z" fill="#FAFAFA"/>
<path d="M268.246 230.66C268.246 230.795 263.665 230.911 258.014 230.911C252.364 230.911 247.792 230.795 247.792 230.66C247.792 230.526 252.374 230.41 258.014 230.41C263.655 230.41 268.246 230.526 268.246 230.66Z" fill="#FAFAFA"/>
<path d="M264.578 200.446C264.492 200.63 264.385 200.805 264.26 200.965L263.297 202.438C261.964 204.219 260.541 205.932 259.033 207.569C253.803 213.17 248.173 218.385 242.188 223.172L241.996 223.335L241.852 223.124L234.286 212.901L227.269 203.208L227.144 203.035L227.288 202.89L243.911 186.344L248.724 181.531L250.033 180.27C250.182 180.116 250.343 179.974 250.515 179.847C250.389 180.017 250.251 180.178 250.101 180.328L248.84 181.647C247.704 182.821 246.096 184.477 244.085 186.527L227.634 203.227V202.91L234.709 212.535L242.179 222.777H241.832C247.809 218.026 253.463 212.881 258.754 207.376C260.679 205.316 262.133 203.526 263.105 202.351C263.548 201.755 263.904 201.283 264.173 200.936C264.291 200.76 264.427 200.595 264.578 200.446Z" fill="#1C4A9D"/>
<path d="M234.952 123.7C233.566 127.203 234.952 133.989 238.099 137.07C240.775 139.707 241.863 143.75 242.229 147.504C242.662 151.932 240.583 156.465 241.719 160.777C242.489 163.665 244.606 166.004 245.723 168.776C246.629 171.143 246.799 173.729 246.209 176.194C245.62 178.659 244.3 180.888 242.421 182.589C243.42 183.396 244.604 183.941 245.866 184.174C247.129 184.407 248.429 184.32 249.65 183.922C250.87 183.525 251.972 182.828 252.855 181.896C253.737 180.963 254.373 179.825 254.704 178.585L254.954 183.86C258.704 181.614 261.426 177.989 262.538 173.762C263.65 169.534 263.063 165.04 260.903 161.24C259.16 158.188 256.378 155.464 256.205 151.941C256.09 149.641 257.168 147.407 257.168 145.107C257.12 141.42 254.396 138.369 252.827 135.077C251.441 132.112 250.959 128.811 249.785 125.759C248.611 122.708 246.426 119.715 243.239 119.021" fill="#189E98"/>
<path d="M55.2506 351.5C58.3194 349.833 61.8407 349.193 65.2998 349.671C67.1801 349.721 68.9895 350.398 70.4399 351.596C71.7682 352.895 72.1436 355.311 70.7768 356.582C69.8862 357.252 68.7908 357.592 67.6773 357.545C64.9918 357.67 61.9982 357.381 59.9768 359.114C58.8121 360.076 58.0517 361.674 56.656 362.213C55.9355 362.426 55.1651 362.399 54.4617 362.135C53.7582 361.871 53.16 361.384 52.7576 360.75C51.9899 359.448 51.7456 357.903 52.0742 356.428C52.1933 355.419 52.5414 354.45 53.0919 353.596C53.6424 352.742 54.3808 352.025 55.2506 351.5Z" fill="#189E98"/>
<path opacity="0.2" d="M55.2506 351.5C58.3194 349.833 61.8407 349.193 65.2998 349.671C67.1801 349.721 68.9895 350.398 70.4399 351.596C71.7682 352.895 72.1436 355.311 70.7768 356.582C69.8862 357.252 68.7908 357.592 67.6773 357.545C64.9918 357.67 61.9982 357.381 59.9768 359.114C58.8121 360.076 58.0517 361.674 56.656 362.213C55.9355 362.426 55.1651 362.399 54.4617 362.135C53.7582 361.871 53.16 361.384 52.7576 360.75C51.9899 359.448 51.7456 357.903 52.0742 356.428C52.1933 355.419 52.5414 354.45 53.0919 353.596C53.6424 352.742 54.3808 352.025 55.2506 351.5Z" fill="white"/>
<path d="M47.4154 338.293C49.456 340.873 53.0657 339.766 54.6635 338.023C56.2614 336.281 56.8389 333.865 57.3587 331.555C58.5523 326.28 59.7362 320.755 58.3213 315.547C57.9598 313.963 57.1708 312.508 56.04 311.341C55.4673 310.768 54.7543 310.356 53.9723 310.144C53.1902 309.933 52.3665 309.931 51.5833 310.138C49.7641 310.735 48.6956 312.612 47.993 314.383C45.8517 319.601 44.8982 325.23 45.2015 330.862C45.3459 333.49 45.8175 336.214 47.425 338.293" fill="#189E98"/>
<path opacity="0.3" d="M47.4154 338.293C49.456 340.873 53.0657 339.766 54.6635 338.023C56.2614 336.281 56.8389 333.865 57.3587 331.555C58.5523 326.28 59.7362 320.755 58.3213 315.547C57.9598 313.963 57.1708 312.508 56.04 311.341C55.4673 310.768 54.7543 310.356 53.9723 310.144C53.1902 309.933 52.3665 309.931 51.5833 310.138C49.7641 310.735 48.6956 312.612 47.993 314.383C45.8517 319.601 44.8982 325.23 45.2015 330.862C45.3459 333.49 45.8175 336.214 47.425 338.293" fill="black"/>
<path d="M42.4677 342.452C43.3558 341.131 43.9077 339.612 44.0755 338.028C44.2432 336.445 44.0218 334.844 43.4303 333.366C42.2255 330.405 40.227 327.833 37.6549 325.935C34.7236 323.619 31.3692 321.896 27.779 320.862C26.3835 320.391 24.902 320.23 23.4378 320.39C22.7076 320.474 22.009 320.735 21.4032 321.151C20.7974 321.568 20.3029 322.126 19.963 322.778C19.0678 324.703 20.1651 327.023 21.3202 328.861C23.3546 332.096 25.6397 335.166 28.1544 338.044C30.1758 340.354 32.4763 342.626 35.4025 343.55C38.3287 344.474 41.303 344.175 42.7084 342.096" fill="#189E98"/>
<path d="M49.6672 378.866C49.7465 378.46 49.782 378.047 49.7731 377.634C49.7731 376.738 49.8501 375.622 49.8982 374.284C49.9463 372.946 50.0811 371.184 50.3602 369.346C50.6824 367.35 51.1652 365.383 51.8041 363.465C52.4204 361.551 53.3087 359.735 54.4415 358.074C55.3587 356.716 56.5692 355.581 57.9837 354.753C58.9439 354.208 59.983 353.815 61.0639 353.589C61.4746 353.545 61.8805 353.464 62.2768 353.348C61.8643 353.299 61.4475 353.299 61.0351 353.348C59.9051 353.498 58.8121 353.853 57.8105 354.397C56.3195 355.208 55.0376 356.355 54.0661 357.747C52.883 359.439 51.9584 361.298 51.3228 363.263C50.6746 365.206 50.1979 367.203 49.8982 369.23C49.6799 370.887 49.561 372.555 49.5421 374.226C49.5421 375.641 49.5421 376.796 49.5421 377.585C49.5399 378.015 49.5818 378.444 49.6672 378.866Z" fill="#1C4A9D"/>
<path d="M49.7529 376.286C49.7657 376.097 49.7657 375.907 49.7529 375.718C49.7529 375.295 49.6855 374.756 49.647 374.101C49.5604 372.696 49.4449 370.655 49.3679 368.133C49.2043 363.099 49.3679 357.66 49.7048 349.979C50.0706 342.76 50.6674 334.347 51.4471 328.803C51.6203 327.551 51.7936 326.425 51.9668 325.443C52.1401 324.462 52.2652 323.605 52.4 322.912C52.5347 322.219 52.6117 321.728 52.6888 321.314C52.7333 321.128 52.7559 320.937 52.7561 320.746C52.6769 320.921 52.6218 321.105 52.5925 321.295C52.4866 321.709 52.3615 322.257 52.2075 322.873C52.0535 323.489 51.8706 324.404 51.6877 325.395C51.5048 326.387 51.2834 327.503 51.1005 328.745C50.0826 335.25 49.4174 341.805 49.108 348.381C48.723 356.082 48.7519 363.06 49.0118 368.104C49.1273 370.626 49.3102 372.667 49.4545 374.063C49.5315 374.727 49.5989 375.256 49.647 375.68C49.6522 375.886 49.6879 376.09 49.7529 376.286Z" fill="#1C4A9D"/>
<path d="M48.9942 362.857C49.0024 362.291 48.967 361.724 48.8884 361.163C48.7536 360.075 48.513 358.516 48.0991 356.601C47.5786 354.369 46.9359 352.168 46.1739 350.007C45.2876 347.344 44.1967 344.753 42.9108 342.258C40.6945 337.648 37.6579 333.48 33.9494 329.957C33.3064 329.352 32.6247 328.789 31.9087 328.272C31.6007 328.041 31.3216 327.81 31.0424 327.627L30.2628 327.156C29.7925 326.842 29.3004 326.562 28.79 326.318C30.5067 327.517 32.1493 328.819 33.7087 330.217C37.2999 333.782 40.2587 337.932 42.4584 342.489C43.722 344.979 44.8154 347.552 45.7312 350.19C46.6071 352.606 47.2328 354.83 47.714 356.716C48.1953 358.603 48.4648 360.152 48.6766 361.221C48.7443 361.773 48.8505 362.32 48.9942 362.857Z" fill="#1C4A9D"/>
<path d="M185.196 72.8569C184.911 72.8878 184.631 72.9491 184.359 73.0398C183.973 73.1837 183.63 73.4223 183.361 73.7334C183.092 74.0446 182.906 74.4184 182.819 74.8205C182.752 75.4245 182.736 76.033 182.77 76.6397C182.77 77.3232 182.77 78.0643 182.77 78.8633C182.77 80.474 182.77 82.3124 182.77 84.3787C182.77 88.5178 182.77 93.552 182.819 99.3562C182.819 100.81 182.819 102.311 182.819 103.861V105.026C182.794 105.404 182.83 105.784 182.925 106.152C183.035 106.51 183.23 106.836 183.493 107.102C183.756 107.368 184.079 107.568 184.436 107.682C184.815 107.785 185.208 107.824 185.6 107.798H194.899V108C194.899 111.388 194.899 114.988 194.899 118.713L194.523 118.559L205.227 107.836L205.294 107.769H205.391H246.935H252.855C253.336 107.769 253.817 107.769 254.299 107.769C254.976 107.708 255.615 107.428 256.118 106.971C256.622 106.514 256.963 105.906 257.09 105.237C257.149 104.775 257.168 104.308 257.148 103.842V99.5295C257.148 97.6044 257.148 95.737 257.148 93.8696V82.8001C257.148 81.0002 257.148 79.2194 257.148 77.4675V76.1488C257.139 75.7441 257.051 75.345 256.888 74.9745C256.646 74.4074 256.244 73.9231 255.731 73.5811C255.218 73.2392 254.617 73.0544 254 73.0494H235.885H218.867L194.235 72.9724L187.497 72.9242L194.235 72.8761L218.886 72.6836H235.904H254.145C254.603 72.6833 255.057 72.7715 255.483 72.9435C256.35 73.3102 257.041 74.0008 257.408 74.8686C257.593 75.2978 257.694 75.7585 257.706 76.2258V82.8868C257.706 86.4868 257.706 90.1605 257.706 93.9081V103.88C257.726 104.375 257.703 104.871 257.639 105.363C257.541 105.876 257.334 106.363 257.032 106.79C256.73 107.217 256.339 107.574 255.887 107.836C255.433 108.099 254.927 108.257 254.404 108.298C253.865 108.298 253.442 108.298 252.912 108.298H246.993H205.448L205.622 108.231L194.889 118.935L194.514 119.31V118.781C194.514 115.056 194.514 111.456 194.514 108.067L194.716 108.27H185.62C185.192 108.299 184.763 108.257 184.349 108.144C183.934 108.01 183.558 107.777 183.253 107.465C182.947 107.153 182.722 106.772 182.597 106.354C182.498 105.955 182.459 105.543 182.482 105.132V103.967C182.482 102.417 182.482 100.916 182.482 99.4621C182.482 93.6867 182.482 88.6237 182.53 84.4846C182.53 82.4119 182.53 80.5734 182.53 78.9691C182.53 78.1702 182.53 77.429 182.53 76.7456C182.51 76.1285 182.536 75.5108 182.607 74.8975C182.708 74.4821 182.911 74.0987 183.199 73.7825C183.486 73.4663 183.849 73.2275 184.253 73.0879C184.542 72.9315 184.867 72.852 185.196 72.8569Z" fill="#1C4A9D"/>
<path d="M210.782 90.3558C210.784 90.9125 210.621 91.4572 210.313 91.9209C210.005 92.3846 209.566 92.7463 209.052 92.9603C208.538 93.1742 207.972 93.2307 207.426 93.1225C206.88 93.0144 206.378 92.7465 205.984 92.3528C205.591 91.9592 205.323 91.4575 205.215 90.9114C205.107 90.3652 205.163 89.7993 205.377 89.2853C205.591 88.7713 205.953 88.3325 206.416 88.0244C206.88 87.7163 207.425 87.5528 207.981 87.5547C208.724 87.5547 209.437 87.8498 209.962 88.3751C210.487 88.9004 210.782 89.6129 210.782 90.3558Z" fill="#455A64"/>
<path d="M221.861 90.3557C221.861 90.9097 221.697 91.4513 221.389 91.9119C221.081 92.3726 220.644 92.7316 220.132 92.9436C219.62 93.1556 219.057 93.2111 218.513 93.103C217.97 92.9949 217.471 92.7281 217.079 92.3364C216.687 91.9447 216.421 91.4456 216.313 90.9022C216.205 90.3588 216.26 89.7957 216.472 89.2838C216.684 88.772 217.043 88.3345 217.504 88.0267C217.964 87.719 218.506 87.5547 219.06 87.5547C219.803 87.5547 220.515 87.8498 221.04 88.3751C221.566 88.9004 221.861 89.6128 221.861 90.3557Z" fill="#455A64"/>
<path d="M232.939 90.3557C232.939 90.9097 232.775 91.4513 232.467 91.9119C232.159 92.3726 231.722 92.7316 231.21 92.9436C230.698 93.1556 230.135 93.2111 229.592 93.103C229.048 92.9949 228.549 92.7281 228.157 92.3364C227.766 91.9447 227.499 91.4456 227.391 90.9022C227.283 90.3588 227.338 89.7957 227.55 89.2838C227.762 88.772 228.121 88.3345 228.582 88.0267C229.042 87.719 229.584 87.5547 230.138 87.5547C230.506 87.5547 230.87 87.6271 231.21 87.7679C231.55 87.9087 231.859 88.115 232.119 88.3751C232.379 88.6352 232.585 88.944 232.726 89.2838C232.867 89.6237 232.939 89.9879 232.939 90.3557Z" fill="#455A64"/>
<path d="M180.778 121.303H94.3687C93.9318 121.303 93.4992 121.389 93.0956 121.556C92.6921 121.724 92.3256 121.969 92.0171 122.279C91.7086 122.588 91.4642 122.955 91.2979 123.359C91.1316 123.763 91.0466 124.196 91.0479 124.633V152.548C91.0466 152.984 91.1316 153.416 91.2981 153.82C91.4645 154.223 91.7091 154.59 92.0177 154.899C92.3263 155.207 92.6929 155.452 93.0964 155.618C93.4998 155.785 93.9323 155.87 94.3687 155.868H160.786L171.374 166.457V155.868H180.788C181.441 155.868 182.068 155.609 182.53 155.147C182.992 154.685 183.252 154.058 183.252 153.404V123.767C183.252 123.443 183.188 123.121 183.063 122.822C182.939 122.522 182.757 122.25 182.527 122.021C182.297 121.792 182.024 121.611 181.724 121.488C181.424 121.364 181.102 121.301 180.778 121.303Z" fill="#455A64"/>
<path d="M110.917 138.137C110.918 138.772 110.732 139.393 110.38 139.922C110.029 140.45 109.528 140.862 108.942 141.106C108.356 141.35 107.711 141.414 107.088 141.291C106.466 141.168 105.894 140.862 105.445 140.413C104.996 139.964 104.69 139.392 104.567 138.77C104.444 138.147 104.508 137.502 104.752 136.916C104.995 136.33 105.408 135.829 105.936 135.478C106.465 135.126 107.086 134.94 107.721 134.941C108.568 134.941 109.381 135.278 109.981 135.877C110.58 136.477 110.917 137.29 110.917 138.137Z" fill="#FAFAFA"/>
<path d="M169.794 134.941C169.794 135.075 158.118 135.191 143.718 135.191C129.318 135.191 117.633 135.075 117.633 134.941C117.633 134.806 129.309 134.69 143.718 134.69C158.128 134.69 169.794 134.796 169.794 134.941Z" fill="#FAFAFA"/>
<path d="M169.794 139.514C169.794 139.649 158.118 139.764 143.718 139.764C129.318 139.764 117.633 139.649 117.633 139.514C117.633 139.379 129.309 139.264 143.718 139.264C158.128 139.264 169.794 139.37 169.794 139.514Z" fill="#FAFAFA"/>
<path d="M142.084 144.702C142.084 144.847 136.607 144.953 129.85 144.953C123.093 144.953 117.606 144.847 117.606 144.702C117.606 144.558 123.083 144.452 129.85 144.452C136.617 144.452 142.084 144.568 142.084 144.702Z" fill="#FAFAFA"/>
<path d="M367.777 166.63C367.499 166.661 367.224 166.722 366.959 166.813C366.579 166.953 366.24 167.187 365.974 167.493C365.708 167.8 365.524 168.168 365.438 168.565C365.372 169.162 365.356 169.764 365.39 170.365C365.39 171.029 365.39 171.76 365.39 172.55C365.39 174.128 365.39 175.938 365.39 177.979C365.39 182.06 365.39 187.017 365.438 192.735C365.438 194.169 365.438 195.622 365.438 197.172V198.317C365.414 198.69 365.45 199.064 365.544 199.424C365.651 199.779 365.843 200.102 366.103 200.365C366.363 200.628 366.683 200.824 367.036 200.936C367.409 201.036 367.797 201.072 368.182 201.042H377.336V201.253C377.336 204.584 377.336 208.126 377.336 211.841L376.96 211.687L387.548 201.099L387.616 201.032H434.502C434.984 201.032 435.465 201.032 435.927 201.032C436.594 200.975 437.223 200.701 437.72 200.253C438.217 199.804 438.554 199.206 438.68 198.548C438.734 198.092 438.753 197.632 438.738 197.172V187.354C438.738 183.667 438.738 180.038 438.738 176.496V169.941C438.728 169.54 438.64 169.144 438.478 168.776C438.236 168.231 437.842 167.767 437.344 167.439C436.845 167.112 436.263 166.934 435.667 166.928H417.696H400.938L376.671 166.842H370.078L376.671 166.794L400.938 166.717H417.696H427.033H435.696C436.382 166.717 437.054 166.918 437.628 167.294C438.203 167.67 438.655 168.205 438.93 168.834C439.121 169.255 439.222 169.71 439.228 170.172V176.737C439.228 180.279 439.228 183.908 439.228 187.595V197.413C439.251 197.901 439.232 198.391 439.171 198.876C439.074 199.383 438.87 199.863 438.571 200.283C438.272 200.703 437.885 201.054 437.438 201.311C436.991 201.573 436.491 201.731 435.975 201.773C435.446 201.773 435.012 201.773 434.502 201.773H428.727H387.799L387.962 201.706C384.305 205.363 380.775 208.877 377.374 212.246L377.008 212.621V212.092C377.008 208.415 377.008 204.873 377.008 201.504L377.21 201.706H368.259C367.834 201.73 367.409 201.688 366.998 201.581C366.591 201.446 366.222 201.216 365.922 200.909C365.622 200.603 365.4 200.229 365.275 199.819C365.174 199.423 365.138 199.014 365.169 198.606V197.461C365.169 195.93 365.169 194.458 365.169 193.023C365.169 187.306 365.169 182.349 365.217 178.267C365.217 176.227 365.217 174.417 365.217 172.838C365.217 172.049 365.217 171.318 365.217 170.653C365.197 170.043 365.222 169.431 365.294 168.825C365.393 168.413 365.593 168.034 365.878 167.721C366.162 167.408 366.521 167.172 366.921 167.034C367.167 166.828 367.462 166.689 367.777 166.63Z" fill="#1C4A9D"/>
<path d="M379.818 185.225C381.583 185.225 383.014 183.795 383.014 182.03C383.014 180.265 381.583 178.834 379.818 178.834C378.053 178.834 376.622 180.265 376.622 182.03C376.622 183.795 378.053 185.225 379.818 185.225Z" fill="#455A64"/>
<path d="M430.881 178.825C430.881 178.97 421.659 179.076 410.292 179.076C398.924 179.076 389.712 178.97 389.712 178.825C389.712 178.681 398.924 178.575 410.292 178.575C421.659 178.575 430.881 178.691 430.881 178.825Z" fill="#1C4A9D"/>
<path d="M430.881 183.399C430.881 183.543 421.659 183.649 410.292 183.649C398.924 183.649 389.712 183.543 389.712 183.399C389.712 183.254 398.924 183.148 410.292 183.148C421.659 183.148 430.881 183.264 430.881 183.399Z" fill="#1C4A9D"/>
<path d="M414.18 188.595C414.18 188.73 408.703 188.845 401.946 188.845C395.189 188.845 389.712 188.73 389.712 188.595C389.712 188.46 395.189 188.345 401.946 188.345C408.703 188.345 414.18 188.46 414.18 188.595Z" fill="#1C4A9D"/>
<path d="M348.024 113.593H390.223C390.66 113.592 391.093 113.677 391.497 113.843C391.901 114.009 392.268 114.254 392.577 114.562C392.887 114.871 393.132 115.237 393.3 115.641C393.467 116.044 393.553 116.477 393.553 116.914V144.828C393.553 145.712 393.203 146.559 392.578 147.183C391.953 147.808 391.106 148.159 390.223 148.159H367.988L357.4 158.747V148.159H347.995C347.341 148.159 346.713 147.899 346.249 147.438C345.786 146.976 345.524 146.349 345.521 145.695V116.057C345.521 115.73 345.586 115.407 345.713 115.105C345.839 114.804 346.024 114.53 346.257 114.301C346.49 114.072 346.766 113.891 347.069 113.769C347.373 113.648 347.697 113.588 348.024 113.593Z" fill="#189E98"/>
<path d="M362.01 131.478C362.01 131.969 361.864 132.45 361.591 132.858C361.317 133.267 360.929 133.585 360.475 133.773C360.02 133.961 359.52 134.009 359.038 133.913C358.556 133.816 358.114 133.578 357.767 133.23C357.42 132.882 357.184 132.439 357.09 131.956C356.995 131.474 357.045 130.974 357.235 130.521C357.424 130.067 357.744 129.68 358.154 129.408C358.563 129.136 359.044 128.992 359.536 128.994C359.862 128.994 360.184 129.058 360.485 129.183C360.786 129.308 361.059 129.491 361.289 129.722C361.518 129.953 361.701 130.227 361.824 130.528C361.948 130.829 362.011 131.152 362.01 131.478Z" fill="#FAFAFA"/>
<path d="M371.828 131.478C371.828 131.969 371.683 132.449 371.41 132.857C371.137 133.266 370.749 133.584 370.295 133.772C369.841 133.96 369.342 134.009 368.86 133.913C368.379 133.817 367.936 133.581 367.589 133.234C367.241 132.886 367.005 132.444 366.909 131.962C366.813 131.48 366.862 130.981 367.05 130.527C367.238 130.073 367.557 129.686 367.965 129.413C368.373 129.14 368.854 128.994 369.345 128.994C369.671 128.993 369.995 129.056 370.297 129.181C370.598 129.305 370.873 129.488 371.104 129.719C371.334 129.95 371.517 130.224 371.642 130.526C371.766 130.828 371.829 131.151 371.828 131.478Z" fill="#FAFAFA"/>
<path d="M381.647 131.478C381.647 131.969 381.501 132.449 381.228 132.857C380.955 133.266 380.567 133.584 380.113 133.772C379.66 133.96 379.16 134.009 378.679 133.913C378.197 133.817 377.754 133.581 377.407 133.234C377.06 132.886 376.823 132.444 376.727 131.962C376.632 131.48 376.681 130.981 376.869 130.527C377.057 130.073 377.375 129.686 377.783 129.413C378.192 129.14 378.672 128.994 379.163 128.994C379.822 128.994 380.453 129.256 380.919 129.722C381.385 130.187 381.647 130.819 381.647 131.478Z" fill="#FAFAFA"/>
</svg>
