<svg width="598" height="440" viewBox="0 0 598 440" fill="none" xmlns="http://www.w3.org/2000/svg">
<path d="M537.669 409.906H498.146V410.205H537.669V409.906Z" fill="#EBEBEB"/>
<path d="M396.045 413.15H385.675V413.449H396.045V413.15Z" fill="#EBEBEB"/>
<path d="M496.951 398.831H474.051V399.129H496.951V398.831Z" fill="#EBEBEB"/>
<path d="M114.931 400.836H63.3916V401.134H114.931V400.836Z" fill="#EBEBEB"/>
<path d="M133.117 400.836H125.563V401.134H133.117V400.836Z" fill="#EBEBEB"/>
<path d="M269.468 405.872H157.677V406.17H269.468V405.872Z" fill="#EBEBEB"/>
<path d="M285.278 337.482H54.8461C53.039 337.482 51.3058 336.764 50.028 335.486C48.7501 334.208 48.0322 332.475 48.0322 330.668V6.76302C48.048 4.96622 48.7728 3.24837 50.0489 1.98339C51.3251 0.718416 53.0493 0.00872018 54.8461 0.00878907H285.278C286.173 0.00878907 287.059 0.185034 287.885 0.527465C288.712 0.869896 289.463 1.37181 290.096 2.00453C290.729 2.63726 291.231 3.38843 291.573 4.21513C291.915 5.04183 292.092 5.92788 292.092 6.82269V330.668C292.092 331.563 291.915 332.449 291.573 333.276C291.231 334.102 290.729 334.853 290.096 335.486C289.463 336.119 288.712 336.621 287.885 336.963C287.059 337.306 286.173 337.482 285.278 337.482ZM54.8461 0.247456C53.1191 0.25061 51.4636 0.938081 50.2424 2.1593C49.0212 3.38053 48.3337 5.03596 48.3306 6.76302V330.668C48.3337 332.395 49.0212 334.05 50.2424 335.272C51.4636 336.493 53.1191 337.18 54.8461 337.184H285.278C287.005 337.18 288.66 336.493 289.881 335.272C291.103 334.05 291.79 332.395 291.793 330.668V6.76302C291.79 5.03596 291.103 3.38053 289.881 2.1593C288.66 0.938081 287.005 0.25061 285.278 0.247456H54.8461Z" fill="#EBEBEB"/>
<path d="M543.396 337.482H312.964C311.157 337.482 309.424 336.764 308.146 335.486C306.868 334.208 306.15 332.475 306.15 330.668V6.76302C306.166 4.96622 306.891 3.24837 308.167 1.98339C309.443 0.718416 311.167 0.00872018 312.964 0.00878907H543.396C545.203 0.00878907 546.936 0.72668 548.214 2.00453C549.492 3.28239 550.21 5.01553 550.21 6.82269V330.668C550.21 332.475 549.492 334.208 548.214 335.486C546.936 336.764 545.203 337.482 543.396 337.482ZM312.964 0.247456C311.237 0.25061 309.582 0.938081 308.361 2.1593C307.139 3.38053 306.452 5.03596 306.449 6.76302V330.668C306.452 332.395 307.139 334.05 308.361 335.272C309.582 336.493 311.237 337.18 312.964 337.184H543.396C545.123 337.18 546.778 336.493 548 335.272C549.221 334.05 549.908 332.395 549.911 330.668V6.76302C549.908 5.03596 549.221 3.38053 548 2.1593C546.778 0.938081 545.123 0.25061 543.396 0.247456H312.964Z" fill="#EBEBEB"/>
<path d="M597.453 390.704H0.789062V391.002H597.453V390.704Z" fill="#EBEBEB"/>
<path d="M150.182 378.221L160.48 351.407H158.893L147.879 378.221H150.182Z" fill="#E0E0E0"/>
<path d="M154.096 378.365L166.984 359.069L165.731 358.782L152.282 377.947L154.096 378.365Z" fill="#E0E0E0"/>
<path d="M105.241 378.15L94.9424 351.336H96.5295L107.556 378.15H105.241Z" fill="#E0E0E0"/>
<path d="M101.328 378.292L88.4404 358.996L89.6934 358.71L103.142 377.875L101.328 378.292Z" fill="#E0E0E0"/>
<path d="M129.705 375.215H127.449L128.058 344.749H129.096L129.705 375.215Z" fill="#E0E0E0"/>
<path d="M105.657 378.15L106.194 379.344H107.722L107.232 378.15H105.657Z" fill="#E0E0E0"/>
<path d="M149.787 378.15L149.262 379.344H147.723L148.212 378.15H149.787Z" fill="#E0E0E0"/>
<path d="M101.744 378.222L102.472 379.582H103.976L102.675 377.983L101.744 378.222Z" fill="#E0E0E0"/>
<path d="M153.727 378.222L152.999 379.582H151.495L152.796 377.983L153.727 378.222Z" fill="#E0E0E0"/>
<path d="M127.77 375.215V377.661H129.381V375.215H127.77Z" fill="#E0E0E0"/>
<path d="M109.382 386.36H103.01V390.334H109.382V386.36Z" fill="#E0E0E0"/>
<path d="M152.605 386.36H146.232V390.334H152.605V386.36Z" fill="#E0E0E0"/>
<path d="M154.836 388.116L140.994 389.619C132.209 390.574 123.346 390.574 114.562 389.619L100.707 388.116V379.488L111.96 378.032C122.461 376.66 133.095 376.66 143.595 378.032L154.836 379.488V388.116Z" fill="#EBEBEB"/>
<path d="M106.185 381.491C105.678 381.494 105.184 381.646 104.764 381.929C104.344 382.211 104.017 382.612 103.824 383.081C103.631 383.549 103.581 384.064 103.681 384.56C103.78 385.057 104.024 385.513 104.382 385.871C104.74 386.229 105.196 386.473 105.693 386.573C106.19 386.672 106.705 386.622 107.173 386.43C107.641 386.237 108.042 385.91 108.325 385.49C108.608 385.07 108.76 384.575 108.762 384.069C108.764 383.73 108.698 383.394 108.569 383.081C108.44 382.767 108.25 382.482 108.011 382.243C107.771 382.003 107.486 381.813 107.173 381.684C106.859 381.555 106.523 381.49 106.185 381.491ZM106.185 385.608C105.779 385.608 105.391 385.447 105.104 385.161C104.818 384.874 104.657 384.486 104.657 384.081C104.657 383.676 104.818 383.287 105.104 383.001C105.391 382.714 105.779 382.553 106.185 382.553C106.59 382.553 106.978 382.714 107.265 383.001C107.551 383.287 107.712 383.676 107.712 384.081C107.712 384.486 107.551 384.874 107.265 385.161C106.978 385.447 106.59 385.608 106.185 385.608Z" fill="white"/>
<path d="M120.719 384.082C120.719 384.242 120.671 384.399 120.582 384.533C120.493 384.666 120.366 384.77 120.218 384.832C120.069 384.893 119.906 384.909 119.749 384.878C119.591 384.847 119.447 384.769 119.333 384.656C119.22 384.542 119.143 384.398 119.111 384.24C119.08 384.083 119.096 383.92 119.157 383.771C119.219 383.623 119.323 383.496 119.456 383.407C119.59 383.318 119.747 383.271 119.907 383.271C120.122 383.271 120.329 383.356 120.481 383.508C120.633 383.66 120.719 383.867 120.719 384.082Z" fill="white"/>
<path d="M123.606 384.082C123.606 384.242 123.559 384.399 123.47 384.533C123.38 384.666 123.254 384.77 123.105 384.832C122.957 384.893 122.794 384.909 122.637 384.878C122.479 384.847 122.335 384.769 122.221 384.656C122.108 384.542 122.03 384.398 121.999 384.24C121.968 384.083 121.984 383.92 122.045 383.771C122.107 383.623 122.211 383.496 122.344 383.407C122.477 383.318 122.634 383.271 122.795 383.271C123.01 383.271 123.216 383.356 123.369 383.508C123.521 383.66 123.606 383.867 123.606 384.082Z" fill="white"/>
<path d="M126.494 384.082C126.494 384.297 126.409 384.504 126.256 384.656C126.104 384.808 125.898 384.893 125.683 384.893C125.467 384.893 125.261 384.808 125.109 384.656C124.957 384.504 124.871 384.297 124.871 384.082C124.871 383.867 124.957 383.66 125.109 383.508C125.261 383.356 125.467 383.271 125.683 383.271C125.898 383.271 126.104 383.356 126.256 383.508C126.409 383.66 126.494 383.867 126.494 384.082Z" fill="white"/>
<path d="M129.383 384.082C129.383 384.297 129.297 384.504 129.145 384.656C128.993 384.808 128.786 384.893 128.571 384.893C128.356 384.893 128.15 384.808 127.997 384.656C127.845 384.504 127.76 384.297 127.76 384.082C127.76 383.867 127.845 383.66 127.997 383.508C128.15 383.356 128.356 383.271 128.571 383.271C128.786 383.271 128.993 383.356 129.145 383.508C129.297 383.66 129.383 383.867 129.383 384.082Z" fill="white"/>
<path d="M132.28 384.082C132.28 384.242 132.233 384.399 132.143 384.533C132.054 384.666 131.928 384.77 131.779 384.832C131.631 384.893 131.468 384.909 131.31 384.878C131.153 384.847 131.008 384.769 130.895 384.656C130.781 384.542 130.704 384.398 130.673 384.24C130.642 384.083 130.658 383.92 130.719 383.771C130.78 383.623 130.884 383.496 131.018 383.407C131.151 383.318 131.308 383.271 131.469 383.271C131.684 383.271 131.89 383.356 132.042 383.508C132.195 383.66 132.28 383.867 132.28 384.082Z" fill="white"/>
<path d="M135.171 384.082C135.171 384.243 135.123 384.399 135.034 384.533C134.945 384.666 134.818 384.77 134.67 384.832C134.522 384.893 134.358 384.909 134.201 384.878C134.044 384.847 133.899 384.769 133.786 384.656C133.672 384.542 133.595 384.398 133.563 384.24C133.532 384.083 133.548 383.92 133.61 383.772C133.671 383.623 133.775 383.497 133.908 383.407C134.042 383.318 134.199 383.271 134.359 383.271C134.466 383.269 134.573 383.289 134.672 383.329C134.771 383.369 134.861 383.429 134.937 383.505C135.012 383.58 135.072 383.67 135.112 383.77C135.152 383.869 135.172 383.975 135.171 384.082Z" fill="white"/>
<path d="M138.021 384.082C138.021 384.297 137.936 384.504 137.784 384.656C137.632 384.808 137.425 384.893 137.21 384.893C136.995 384.893 136.788 384.808 136.636 384.656C136.484 384.504 136.398 384.297 136.398 384.082C136.398 383.867 136.484 383.66 136.636 383.508C136.788 383.356 136.995 383.271 137.21 383.271C137.425 383.271 137.632 383.356 137.784 383.508C137.936 383.66 138.021 383.867 138.021 384.082Z" fill="white"/>
<path d="M478.514 387.709L470.34 369.606H451.247L454.182 386.564C454.22 386.783 454.21 387.008 454.152 387.223C454.094 387.438 453.99 387.638 453.847 387.809C453.704 387.979 453.525 388.116 453.323 388.21C453.121 388.305 452.901 388.353 452.679 388.354H444.325C444.218 388.352 444.112 388.372 444.013 388.412C443.914 388.452 443.824 388.512 443.748 388.588C443.672 388.663 443.612 388.753 443.572 388.853C443.532 388.952 443.512 389.058 443.514 389.165V390.06C443.512 390.167 443.532 390.273 443.572 390.373C443.612 390.472 443.672 390.562 443.748 390.637C443.824 390.713 443.914 390.773 444.013 390.813C444.112 390.853 444.218 390.873 444.325 390.872H477.953C478.185 390.868 478.407 390.774 478.57 390.609C478.733 390.443 478.824 390.221 478.824 389.988V389.034C478.815 388.575 478.71 388.124 478.514 387.709Z" fill="#F5F5F5"/>
<path d="M479.588 387.709L471.414 369.606H470.34L478.514 387.709C478.705 388.133 478.802 388.593 478.801 389.058V389.988C478.801 390.221 478.709 390.443 478.546 390.609C478.383 390.774 478.162 390.868 477.929 390.872H479.003C479.238 390.872 479.462 390.779 479.628 390.613C479.793 390.447 479.886 390.223 479.886 389.988V389.034C479.886 388.576 479.785 388.123 479.588 387.709Z" fill="#E0E0E0"/>
<path d="M470.341 369.618H451.235L451.987 373.938H472.286L470.341 369.618Z" fill="#E0E0E0"/>
<path d="M499.6 371.516H418.108C417.725 371.523 417.346 371.449 416.995 371.298C416.644 371.147 416.329 370.923 416.071 370.641C415.814 370.358 415.619 370.024 415.501 369.661C415.383 369.297 415.344 368.912 415.387 368.533L420.542 309.654C420.623 308.847 420.997 308.098 421.593 307.549C422.189 306.999 422.965 306.687 423.776 306.67H505.268C505.65 306.663 506.03 306.737 506.381 306.888C506.732 307.039 507.047 307.263 507.305 307.546C507.562 307.828 507.756 308.162 507.875 308.526C507.993 308.889 508.032 309.274 507.989 309.654L502.834 368.533C502.752 369.339 502.378 370.088 501.783 370.637C501.187 371.187 500.41 371.5 499.6 371.516Z" fill="#E6E6E6"/>
<path d="M415.948 362.159L415.387 368.532C415.344 368.911 415.383 369.296 415.501 369.66C415.619 370.023 415.814 370.357 416.071 370.64C416.329 370.922 416.644 371.146 416.995 371.297C417.346 371.448 417.725 371.522 418.108 371.515H499.6C500.412 371.501 501.192 371.19 501.79 370.64C502.388 370.09 502.764 369.34 502.846 368.532L503.407 362.159H415.948Z" fill="#F5F5F5"/>
<path d="M500.52 360.393H419.135C418.928 360.396 418.722 360.355 418.532 360.273C418.342 360.19 418.172 360.068 418.033 359.914C417.894 359.761 417.79 359.579 417.727 359.382C417.663 359.185 417.643 358.976 417.667 358.77L421.927 310.106C421.968 309.668 422.171 309.261 422.495 308.964C422.819 308.666 423.241 308.499 423.681 308.495H505.054C505.261 308.491 505.467 308.53 505.657 308.612C505.848 308.693 506.019 308.814 506.159 308.966C506.299 309.119 506.405 309.299 506.469 309.496C506.534 309.692 506.556 309.901 506.534 310.106L502.274 358.77C502.228 359.208 502.024 359.613 501.702 359.912C501.379 360.21 500.959 360.381 500.52 360.393Z" fill="#E0E0E0"/>
<path d="M507.071 306.694H505.269C505.651 306.686 506.031 306.761 506.382 306.912C506.733 307.062 507.048 307.287 507.305 307.569C507.563 307.851 507.757 308.186 507.875 308.549C507.993 308.913 508.032 309.297 507.99 309.677L502.835 368.556C502.753 369.364 502.377 370.115 501.779 370.665C501.181 371.215 500.401 371.526 499.589 371.539H501.391C502.203 371.526 502.983 371.215 503.581 370.665C504.179 370.115 504.555 369.364 504.637 368.556L509.792 309.677C509.834 309.297 509.795 308.913 509.677 308.549C509.559 308.186 509.365 307.851 509.107 307.569C508.85 307.287 508.535 307.062 508.184 306.912C507.833 306.761 507.453 306.686 507.071 306.694Z" fill="#E0E0E0"/>
<path d="M472.991 389.165V390.024C472.991 390.249 472.902 390.464 472.743 390.623C472.584 390.782 472.369 390.872 472.144 390.872H444.304C444.197 390.873 444.09 390.853 443.991 390.813C443.892 390.773 443.802 390.713 443.726 390.637C443.651 390.562 443.591 390.472 443.551 390.373C443.511 390.273 443.491 390.167 443.492 390.06V389.165C443.491 389.058 443.511 388.952 443.551 388.853C443.591 388.753 443.651 388.663 443.726 388.588C443.802 388.512 443.892 388.452 443.991 388.412C444.09 388.372 444.197 388.352 444.304 388.354H452.657C452.76 388.365 452.864 388.365 452.967 388.354H472.156C472.373 388.356 472.58 388.442 472.735 388.593C472.891 388.744 472.982 388.949 472.991 389.165Z" fill="#FAFAFA"/>
<path d="M478.719 388.318H452.979C453.313 388.243 453.613 388.058 453.83 387.791C454.046 387.525 454.167 387.194 454.172 386.851H478.038L478.719 388.318Z" fill="#E0E0E0"/>
<g opacity="0.3">
<path d="M474.788 359.737H477.927L488.798 308.579L488.822 308.472H485.695L485.659 308.579L474.788 359.737Z" fill="white"/>
<path d="M459.872 359.737H471.626L482.498 308.579L482.521 308.472H470.767L470.743 308.579L459.872 359.737Z" fill="white"/>
</g>
<path d="M422.941 385.597H456.128V390.991H389.755V388.783L422.941 385.597Z" fill="#F0F0F0"/>
<path d="M422.94 390.991H456.127V385.597L422.94 388.783V390.991Z" fill="#E0E0E0"/>
<path d="M504.48 172.827H481.389C474.133 172.827 468.251 178.709 468.251 185.966V209.057C468.251 216.313 474.133 222.195 481.389 222.195H504.48C511.737 222.195 517.619 216.313 517.619 209.057V185.966C517.619 178.709 511.737 172.827 504.48 172.827Z" fill="#E0E0E0"/>
<path fill-rule="evenodd" clip-rule="evenodd" d="M484.171 205.512C483.738 205.383 483.341 205.153 483.015 204.839C482.689 204.525 482.443 204.138 482.298 203.71C481.45 201.49 481.104 192.242 482.632 190.381C483.126 189.783 483.831 189.398 484.601 189.307C488.789 188.853 501.725 188.913 503.217 189.462C503.634 189.597 504.015 189.825 504.331 190.129C504.647 190.433 504.891 190.804 505.043 191.216C505.949 193.507 506.081 201.86 505.043 204.056C504.773 204.636 504.314 205.107 503.742 205.393C502.31 206.204 486.236 206.192 484.171 205.512ZM488.646 203.412L499.804 197.6L488.503 191.741C488.503 195.631 488.587 199.509 488.646 203.412Z" fill="white"/>
<path d="M130.264 171.836H107.15C99.8803 171.836 93.9873 177.729 93.9873 184.998V208.113C93.9873 215.382 99.8803 221.275 107.15 221.275H130.264C137.534 221.275 143.427 215.382 143.427 208.113V184.998C143.427 177.729 137.534 171.836 130.264 171.836Z" fill="#E0E0E0"/>
<path d="M105.396 181.896H104.155V183.137H105.396V181.896Z" fill="white"/>
<path d="M106.639 181.896H105.398V183.137H106.639V181.896Z" fill="white"/>
<path d="M107.881 181.896H106.64V183.137H107.881V181.896Z" fill="white"/>
<path d="M105.396 183.137H104.155V184.378H105.396V183.137Z" fill="white"/>
<path d="M105.396 184.378H104.155V185.619H105.396V184.378Z" fill="white"/>
<path d="M105.396 210.166H104.155V211.407H105.396V210.166Z" fill="white"/>
<path d="M105.396 208.923H104.155V210.164H105.396V208.923Z" fill="white"/>
<path d="M105.396 207.684H104.155V208.925H105.396V207.684Z" fill="white"/>
<path d="M106.639 210.166H105.398V211.407H106.639V210.166Z" fill="white"/>
<path d="M107.881 210.166H106.64V211.407H107.881V210.166Z" fill="white"/>
<path d="M133.369 181.896H132.128V183.137H133.369V181.896Z" fill="white"/>
<path d="M133.369 183.137H132.128V184.378H133.369V183.137Z" fill="white"/>
<path d="M133.369 184.378H132.128V185.619H133.369V184.378Z" fill="white"/>
<path d="M132.128 181.896H130.887V183.137H132.128V181.896Z" fill="white"/>
<path d="M130.887 181.896H129.646V183.137H130.887V181.896Z" fill="white"/>
<path d="M133.307 210.166H132.066V211.407H133.307V210.166Z" fill="white"/>
<path d="M133.307 208.923H132.066V210.164H133.307V208.923Z" fill="white"/>
<path d="M133.307 207.684H132.066V208.925H133.307V207.684Z" fill="white"/>
<path d="M132.066 210.166H130.825V211.407H132.066V210.166Z" fill="white"/>
<path d="M130.826 210.166H129.585V211.407H130.826V210.166Z" fill="white"/>
<path d="M107.881 184.747H106.64V185.988H107.881V184.747Z" fill="white"/>
<path d="M109.121 184.747H107.88V185.988H109.121V184.747Z" fill="white"/>
<path d="M110.362 184.747H109.121V185.988H110.362V184.747Z" fill="white"/>
<path d="M111.603 184.747H110.362V185.988H111.603V184.747Z" fill="white"/>
<path d="M112.831 184.747H111.59V185.988H112.831V184.747Z" fill="white"/>
<path d="M114.072 184.747H112.831V185.988H114.072V184.747Z" fill="white"/>
<path d="M115.313 184.747H114.072V185.988H115.313V184.747Z" fill="white"/>
<path d="M107.881 185.988H106.64V187.229H107.881V185.988Z" fill="white"/>
<path d="M115.313 185.988H114.072V187.229H115.313V185.988Z" fill="white"/>
<path d="M107.881 187.229H106.64V188.47H107.881V187.229Z" fill="white"/>
<path d="M110.362 187.229H109.121V188.47H110.362V187.229Z" fill="white"/>
<path d="M111.603 187.229H110.362V188.47H111.603V187.229Z" fill="white"/>
<path d="M112.831 187.229H111.59V188.47H112.831V187.229Z" fill="white"/>
<path d="M115.313 187.229H114.072V188.47H115.313V187.229Z" fill="white"/>
<path d="M107.881 188.472H106.64V189.713H107.881V188.472Z" fill="white"/>
<path d="M110.362 188.472H109.121V189.713H110.362V188.472Z" fill="white"/>
<path d="M111.603 188.472H110.362V189.713H111.603V188.472Z" fill="white"/>
<path d="M112.831 188.472H111.59V189.713H112.831V188.472Z" fill="white"/>
<path d="M115.313 188.472H114.072V189.713H115.313V188.472Z" fill="white"/>
<path d="M107.881 189.712H106.64V190.953H107.881V189.712Z" fill="white"/>
<path d="M110.362 189.712H109.121V190.953H110.362V189.712Z" fill="white"/>
<path d="M111.603 189.712H110.362V190.953H111.603V189.712Z" fill="white"/>
<path d="M112.831 189.712H111.59V190.953H112.831V189.712Z" fill="white"/>
<path d="M115.313 189.712H114.072V190.953H115.313V189.712Z" fill="white"/>
<path d="M107.881 190.953H106.64V192.194H107.881V190.953Z" fill="white"/>
<path d="M115.313 190.953H114.072V192.194H115.313V190.953Z" fill="white"/>
<path d="M107.881 192.193H106.64V193.434H107.881V192.193Z" fill="white"/>
<path d="M109.121 192.193H107.88V193.434H109.121V192.193Z" fill="white"/>
<path d="M110.362 192.193H109.121V193.434H110.362V192.193Z" fill="white"/>
<path d="M111.603 192.193H110.362V193.434H111.603V192.193Z" fill="white"/>
<path d="M112.831 192.193H111.59V193.434H112.831V192.193Z" fill="white"/>
<path d="M114.072 192.193H112.831V193.434H114.072V192.193Z" fill="white"/>
<path d="M115.313 192.193H114.072V193.434H115.313V192.193Z" fill="white"/>
<path d="M123.38 184.747H122.139V185.988H123.38V184.747Z" fill="white"/>
<path d="M124.621 184.747H123.38V185.988H124.621V184.747Z" fill="white"/>
<path d="M125.863 184.747H124.622V185.988H125.863V184.747Z" fill="white"/>
<path d="M127.103 184.747H125.862V185.988H127.103V184.747Z" fill="white"/>
<path d="M128.344 184.747H127.103V185.988H128.344V184.747Z" fill="white"/>
<path d="M129.585 184.747H128.344V185.988H129.585V184.747Z" fill="white"/>
<path d="M130.826 184.747H129.585V185.988H130.826V184.747Z" fill="white"/>
<path d="M123.38 185.988H122.139V187.229H123.38V185.988Z" fill="white"/>
<path d="M130.826 185.988H129.585V187.229H130.826V185.988Z" fill="white"/>
<path d="M123.38 187.229H122.139V188.47H123.38V187.229Z" fill="white"/>
<path d="M125.863 187.229H124.622V188.47H125.863V187.229Z" fill="white"/>
<path d="M127.103 187.229H125.862V188.47H127.103V187.229Z" fill="white"/>
<path d="M128.344 187.229H127.103V188.47H128.344V187.229Z" fill="white"/>
<path d="M130.826 187.229H129.585V188.47H130.826V187.229Z" fill="white"/>
<path d="M123.38 188.472H122.139V189.713H123.38V188.472Z" fill="white"/>
<path d="M125.863 188.472H124.622V189.713H125.863V188.472Z" fill="white"/>
<path d="M127.103 188.472H125.862V189.713H127.103V188.472Z" fill="white"/>
<path d="M128.344 188.472H127.103V189.713H128.344V188.472Z" fill="white"/>
<path d="M130.826 188.472H129.585V189.713H130.826V188.472Z" fill="white"/>
<path d="M123.38 189.712H122.139V190.953H123.38V189.712Z" fill="white"/>
<path d="M125.863 189.712H124.622V190.953H125.863V189.712Z" fill="white"/>
<path d="M127.103 189.712H125.862V190.953H127.103V189.712Z" fill="white"/>
<path d="M128.344 189.712H127.103V190.953H128.344V189.712Z" fill="white"/>
<path d="M130.826 189.712H129.585V190.953H130.826V189.712Z" fill="white"/>
<path d="M123.38 190.953H122.139V192.194H123.38V190.953Z" fill="white"/>
<path d="M130.826 190.953H129.585V192.194H130.826V190.953Z" fill="white"/>
<path d="M123.38 192.193H122.139V193.434H123.38V192.193Z" fill="white"/>
<path d="M124.621 192.193H123.38V193.434H124.621V192.193Z" fill="white"/>
<path d="M125.863 192.193H124.622V193.434H125.863V192.193Z" fill="white"/>
<path d="M127.103 192.193H125.862V193.434H127.103V192.193Z" fill="white"/>
<path d="M128.344 192.193H127.103V193.434H128.344V192.193Z" fill="white"/>
<path d="M129.585 192.193H128.344V193.434H129.585V192.193Z" fill="white"/>
<path d="M130.826 192.193H129.585V193.434H130.826V192.193Z" fill="white"/>
<path d="M129.585 203.984H128.344V205.225H129.585V203.984Z" fill="white"/>
<path d="M129.585 205.213H128.344V206.454H129.585V205.213Z" fill="white"/>
<path d="M129.585 206.454H128.344V207.695H129.585V206.454Z" fill="white"/>
<path d="M128.344 203.984H127.103V205.225H128.344V203.984Z" fill="white"/>
<path d="M128.344 205.213H127.103V206.454H128.344V205.213Z" fill="white"/>
<path d="M128.344 206.454H127.103V207.695H128.344V206.454Z" fill="white"/>
<path d="M127.103 203.984H125.862V205.225H127.103V203.984Z" fill="white"/>
<path d="M125.863 203.984H124.622V205.225H125.863V203.984Z" fill="white"/>
<path d="M124.621 202.743H123.38V203.984H124.621V202.743Z" fill="white"/>
<path d="M124.621 201.502H123.38V202.743H124.621V201.502Z" fill="white"/>
<path d="M124.621 205.213H123.38V206.454H124.621V205.213Z" fill="white"/>
<path d="M124.621 206.454H123.38V207.695H124.621V206.454Z" fill="white"/>
<path d="M107.881 200.262H106.64V201.503H107.881V200.262Z" fill="white"/>
<path d="M109.121 200.262H107.88V201.503H109.121V200.262Z" fill="white"/>
<path d="M110.362 200.262H109.121V201.503H110.362V200.262Z" fill="white"/>
<path d="M111.603 200.262H110.362V201.503H111.603V200.262Z" fill="white"/>
<path d="M112.831 200.262H111.59V201.503H112.831V200.262Z" fill="white"/>
<path d="M114.072 200.262H112.831V201.503H114.072V200.262Z" fill="white"/>
<path d="M115.313 200.262H114.072V201.503H115.313V200.262Z" fill="white"/>
<path d="M107.881 201.502H106.64V202.743H107.881V201.502Z" fill="white"/>
<path d="M115.313 201.502H114.072V202.743H115.313V201.502Z" fill="white"/>
<path d="M107.881 202.743H106.64V203.984H107.881V202.743Z" fill="white"/>
<path d="M110.362 202.743H109.121V203.984H110.362V202.743Z" fill="white"/>
<path d="M111.603 202.743H110.362V203.984H111.603V202.743Z" fill="white"/>
<path d="M112.831 202.743H111.59V203.984H112.831V202.743Z" fill="white"/>
<path d="M115.313 202.743H114.072V203.984H115.313V202.743Z" fill="white"/>
<path d="M107.881 203.984H106.64V205.225H107.881V203.984Z" fill="white"/>
<path d="M110.362 203.984H109.121V205.225H110.362V203.984Z" fill="white"/>
<path d="M111.603 203.984H110.362V205.225H111.603V203.984Z" fill="white"/>
<path d="M112.831 203.984H111.59V205.225H112.831V203.984Z" fill="white"/>
<path d="M115.313 203.984H114.072V205.225H115.313V203.984Z" fill="white"/>
<path d="M107.881 205.213H106.64V206.454H107.881V205.213Z" fill="white"/>
<path d="M110.362 205.213H109.121V206.454H110.362V205.213Z" fill="white"/>
<path d="M111.603 205.213H110.362V206.454H111.603V205.213Z" fill="white"/>
<path d="M112.831 205.213H111.59V206.454H112.831V205.213Z" fill="white"/>
<path d="M115.313 205.213H114.072V206.454H115.313V205.213Z" fill="white"/>
<path d="M107.881 206.454H106.64V207.695H107.881V206.454Z" fill="white"/>
<path d="M115.313 206.454H114.072V207.695H115.313V206.454Z" fill="white"/>
<path d="M107.881 207.696H106.64V208.937H107.881V207.696Z" fill="white"/>
<path d="M109.121 207.696H107.88V208.937H109.121V207.696Z" fill="white"/>
<path d="M110.362 207.696H109.121V208.937H110.362V207.696Z" fill="white"/>
<path d="M111.603 207.696H110.362V208.937H111.603V207.696Z" fill="white"/>
<path d="M112.831 207.696H111.59V208.937H112.831V207.696Z" fill="white"/>
<path d="M114.072 207.696H112.831V208.937H114.072V207.696Z" fill="white"/>
<path d="M115.313 207.696H114.072V208.937H115.313V207.696Z" fill="white"/>
<path d="M306.88 10.2471H283.765C276.496 10.2471 270.603 16.1401 270.603 23.4095V46.5242C270.603 53.7936 276.496 59.6866 283.765 59.6866H306.88C314.149 59.6866 320.042 53.7936 320.042 46.5242V23.4095C320.042 16.1401 314.149 10.2471 306.88 10.2471Z" fill="#E0E0E0"/>
<path fill-rule="evenodd" clip-rule="evenodd" d="M302.081 34.9367C302.083 36.2306 301.702 37.4961 300.985 38.573C300.267 39.65 299.247 40.49 298.052 40.9868C296.857 41.4836 295.542 41.6148 294.273 41.3639C293.004 41.1129 291.837 40.491 290.922 39.5769C290.006 38.6628 289.382 37.4976 289.128 36.2288C288.875 34.9599 289.004 33.6445 289.499 32.4488C289.993 31.2532 290.831 30.2312 291.907 29.5121C292.983 28.793 294.247 28.4092 295.541 28.4092C297.273 28.4123 298.932 29.1007 300.158 30.3238C301.383 31.5469 302.075 33.2053 302.081 34.9367Z" fill="white"/>
<path fill-rule="evenodd" clip-rule="evenodd" d="M308.823 25.2472H282.414C281.245 25.2472 280.124 25.7108 279.296 26.5362C278.469 27.3617 278.002 28.4816 277.999 29.6506V40.2354C278.002 41.4044 278.469 42.5243 279.296 43.3498C280.124 44.1753 281.245 44.6388 282.414 44.6388H308.858C310.026 44.6388 311.146 44.1749 311.972 43.3491C312.798 42.5233 313.262 41.4033 313.262 40.2354V29.6506C313.262 29.0693 313.147 28.4938 312.923 27.9572C312.7 27.4206 312.372 26.9336 311.96 26.5242C311.547 26.1148 311.057 25.7912 310.519 25.5721C309.98 25.3529 309.404 25.2425 308.823 25.2472ZM295.541 43.2665C293.889 43.2665 292.274 42.7766 290.9 41.8587C289.526 40.9408 288.456 39.6362 287.823 38.1098C287.191 36.5835 287.026 34.9039 287.348 33.2835C287.67 31.6631 288.466 30.1747 289.634 29.0065C290.802 27.8383 292.291 27.0427 293.911 26.7204C295.532 26.3981 297.211 26.5635 298.738 27.1957C300.264 27.828 301.569 28.8986 302.486 30.2723C303.404 31.646 303.894 33.261 303.894 34.9132C303.894 37.1286 303.014 39.2533 301.448 40.8198C299.881 42.3864 297.756 43.2665 295.541 43.2665ZM308.727 29.6506H304.395V27.3355H308.727V29.6506Z" fill="white"/>
<path d="M284.431 23.4337H285.051C285.368 23.4337 285.671 23.5594 285.895 23.7832C286.119 24.007 286.245 24.3105 286.245 24.627V25.6294H283.226V24.627C283.226 24.4693 283.257 24.3131 283.318 24.1675C283.378 24.022 283.467 23.8899 283.579 23.7789C283.691 23.668 283.824 23.5803 283.971 23.521C284.117 23.4618 284.273 23.4321 284.431 23.4337Z" fill="white"/>
<path d="M299.121 440C426.906 440 530.496 433.952 530.496 426.492C530.496 419.031 426.906 412.983 299.121 412.983C171.337 412.983 67.7471 419.031 67.7471 426.492C67.7471 433.952 171.337 440 299.121 440Z" fill="#F5F5F5"/>
<path d="M347.749 420.296H347.642C347.487 420.267 347.35 420.178 347.261 420.049C347.171 419.919 347.137 419.759 347.165 419.604C347.165 419.413 350.852 401.191 364.289 390.964C374.54 383.112 385.471 365.236 385.578 365.057C385.618 364.989 385.672 364.93 385.735 364.884C385.799 364.837 385.871 364.803 385.947 364.784C386.024 364.765 386.103 364.762 386.181 364.774C386.259 364.786 386.334 364.813 386.401 364.854C386.536 364.938 386.632 365.071 386.67 365.225C386.708 365.378 386.684 365.541 386.604 365.678C386.485 365.857 375.447 383.924 365.017 391.931C351.89 401.943 348.31 419.723 348.31 419.89C348.272 420.009 348.197 420.112 348.096 420.185C347.995 420.258 347.874 420.297 347.749 420.296Z" fill="#263238"/>
<path d="M362.604 396.42C362.604 396.42 376.447 393.603 371.638 402.04C366.829 410.477 355.779 406.814 355.779 406.814C355.779 406.814 346.339 400.596 351.16 393.066C355.981 385.537 362.604 396.42 362.604 396.42Z" fill="#1C4A9D"/>
<path opacity="0.1" d="M351.16 393.104C355.934 385.574 362.604 396.421 362.604 396.421C362.604 396.421 363.607 401.839 355.779 406.851C355.779 406.851 346.339 400.634 351.16 393.104Z" fill="black"/>
<path d="M385.563 365.358C385.563 365.358 394.346 357.267 394.549 365.477C394.752 373.687 385.193 375.895 385.193 375.895C385.193 375.895 375.647 375.525 375.838 367.971C376.029 360.417 385.563 365.358 385.563 365.358Z" fill="#1C4A9D"/>
<path opacity="0.1" d="M375.838 367.972C376.029 360.43 385.563 365.358 385.563 365.358C385.563 365.358 388.654 368.843 385.193 375.895C385.193 375.907 375.647 375.525 375.838 367.972Z" fill="black"/>
<path d="M374.456 380.679C374.456 380.679 377.905 369.247 370.435 372.636C362.965 376.025 365.136 385.595 365.136 385.595C365.136 385.595 369.635 394.032 376.342 390.572C383.048 387.111 374.456 380.679 374.456 380.679Z" fill="#1C4A9D"/>
<path opacity="0.1" d="M376.34 390.548C383.047 387.088 374.455 380.656 374.455 380.656C374.455 380.656 369.968 379.379 365.135 385.572C365.135 385.572 369.634 394.009 376.34 390.548Z" fill="black"/>
<path d="M336.304 420.297C336.182 420.296 336.063 420.257 335.963 420.187C335.863 420.117 335.786 420.018 335.743 419.903C335.684 419.736 330.027 403.961 316.316 395.333C302.306 386.502 295.958 375.547 295.898 375.44C295.859 375.372 295.833 375.297 295.823 375.219C295.813 375.141 295.819 375.062 295.839 374.986C295.86 374.91 295.895 374.839 295.943 374.776C295.991 374.714 296.051 374.662 296.119 374.623C296.187 374.583 296.262 374.558 296.34 374.548C296.418 374.538 296.497 374.543 296.573 374.564C296.649 374.584 296.72 374.619 296.782 374.667C296.845 374.715 296.897 374.775 296.936 374.843C296.996 374.951 303.201 385.667 316.96 394.318C331.018 403.173 336.817 419.378 336.865 419.51C336.891 419.582 336.903 419.66 336.899 419.737C336.896 419.815 336.876 419.89 336.843 419.96C336.81 420.03 336.763 420.093 336.705 420.145C336.648 420.196 336.58 420.236 336.507 420.261C336.442 420.285 336.373 420.297 336.304 420.297Z" fill="#263238"/>
<path d="M338.916 420.297C338.838 420.291 338.761 420.27 338.691 420.234C338.621 420.198 338.559 420.149 338.508 420.089C338.457 420.029 338.418 419.96 338.394 419.885C338.37 419.81 338.361 419.731 338.367 419.653C338.367 419.521 339.382 405.858 340.468 393.053C341.553 380.249 347.079 372.862 347.305 372.564C347.405 372.45 347.545 372.378 347.696 372.363C347.848 372.348 347.999 372.392 348.119 372.485C348.239 372.578 348.319 372.713 348.343 372.863C348.367 373.013 348.333 373.166 348.248 373.292C348.188 373.375 342.711 380.547 341.649 393.149C340.575 405.953 339.573 419.605 339.561 419.748C339.555 419.827 339.533 419.903 339.497 419.973C339.462 420.043 339.412 420.106 339.353 420.157C339.293 420.208 339.223 420.246 339.148 420.27C339.074 420.295 338.995 420.304 338.916 420.297Z" fill="#263238"/>
<path d="M342.164 383.699C342.164 383.699 346.197 374.833 336.364 377.136C326.531 379.439 329.944 387.1 329.944 387.1C329.944 387.1 336.4 393.998 345.207 391.611C354.014 389.224 342.164 383.699 342.164 383.699Z" fill="#1C4A9D"/>
<path opacity="0.1" d="M345.206 391.61C354.013 389.224 342.163 383.698 342.163 383.698C340.002 383.422 337.808 383.581 335.71 384.165C333.611 384.749 331.651 385.747 329.943 387.099C329.943 387.099 336.399 393.997 345.206 391.61Z" fill="black"/>
<path d="M303.762 385.226C303.762 385.226 307.796 376.372 297.963 378.663C288.13 380.954 291.531 388.639 291.531 388.639C291.531 388.639 297.998 395.525 306.805 393.138C315.612 390.751 303.762 385.226 303.762 385.226Z" fill="#1C4A9D"/>
<path opacity="0.1" d="M306.805 393.139C315.612 390.752 303.762 385.227 303.762 385.227C301.598 384.951 299.402 385.111 297.301 385.697C295.201 386.283 293.238 387.284 291.53 388.64C291.53 388.64 297.998 395.525 306.805 393.139Z" fill="black"/>
<path d="M325.9 404.236C325.9 404.236 327.869 394.69 318.74 399.117C309.611 403.544 314.682 410.274 314.682 410.274C314.682 410.274 322.51 415.561 330.565 411.277C338.62 406.993 325.9 404.236 325.9 404.236Z" fill="#1C4A9D"/>
<path opacity="0.1" d="M330.613 411.278C338.668 407.006 325.899 404.237 325.899 404.237C323.729 404.45 321.624 405.094 319.706 406.13C317.788 407.167 316.096 408.577 314.729 410.276C314.729 410.276 322.558 415.562 330.613 411.278Z" fill="black"/>
<path d="M341.137 398.961C341.137 398.961 343.882 392.923 337.175 394.486C330.469 396.049 332.796 401.276 332.796 401.276C332.796 401.276 337.199 405.978 343.202 404.355C349.204 402.732 341.137 398.961 341.137 398.961Z" fill="#1C4A9D"/>
<path opacity="0.1" d="M343.202 404.356C349.169 402.721 341.137 398.962 341.137 398.962C339.661 398.771 338.161 398.878 336.727 399.275C335.292 399.673 333.952 400.354 332.784 401.277C332.784 401.277 337.2 405.979 343.202 404.356Z" fill="black"/>
<path d="M347.105 372.409C347.105 372.409 343.656 363.185 351.651 365.762C359.646 368.34 357.057 376.192 357.057 376.192C357.057 376.192 351.985 383.173 344.813 380.524C337.642 377.874 347.105 372.409 347.105 372.409Z" fill="#1C4A9D"/>
<path opacity="0.1" d="M344.812 380.525C337.652 377.864 347.103 372.411 347.103 372.411C347.103 372.411 351.972 371.217 357.056 376.193C357.056 376.193 351.984 383.174 344.812 380.525Z" fill="black"/>
<path d="M296.949 371.659C296.949 371.659 300.875 365.895 294.944 366.325C289.013 366.754 289.478 372.59 289.478 372.59C289.478 372.59 291.793 378.234 297.163 377.614C302.533 376.993 296.949 371.659 296.949 371.659Z" fill="#1C4A9D"/>
<path opacity="0.1" d="M297.162 377.613C302.532 376.992 296.947 371.646 296.947 371.646C296.947 371.646 293.784 370.035 289.477 372.577C289.477 372.589 291.792 378.293 297.162 377.613Z" fill="black"/>
<path d="M314.539 391.766C314.539 391.766 300.529 389.857 307.856 383.484C315.183 377.112 324.42 384.152 324.42 384.152C324.42 384.152 331.269 393.138 324.253 398.663C317.236 404.188 314.539 391.766 314.539 391.766Z" fill="#1C4A9D"/>
<path opacity="0.1" d="M324.253 398.663C317.224 404.176 314.539 391.766 314.539 391.766C314.539 391.766 315.374 386.312 324.42 384.152C324.42 384.152 331.269 393.138 324.253 398.663Z" fill="black"/>
<path d="M328.12 433.699H350.722C351.763 433.696 352.771 433.328 353.569 432.658C354.367 431.989 354.905 431.061 355.089 430.036L357.655 415.716H321.175L323.752 430.036C323.937 431.061 324.475 431.989 325.273 432.658C326.071 433.328 327.078 433.696 328.12 433.699Z" fill="#1C4A9D"/>
<path opacity="0.6" d="M328.12 433.699H350.722C351.763 433.696 352.771 433.328 353.569 432.658C354.367 431.989 354.905 431.061 355.089 430.036L357.655 415.716H321.175L323.752 430.036C323.937 431.061 324.475 431.989 325.273 432.658C326.071 433.328 327.078 433.696 328.12 433.699Z" fill="black"/>
<path d="M355.326 342.588H257.115C254.541 342.626 251.988 342.124 249.62 341.114C247.252 340.103 245.123 338.607 243.369 336.722C241.616 334.837 240.277 332.605 239.441 330.171C238.604 327.736 238.287 325.153 238.511 322.588L254.896 87.8606C255.34 82.4624 257.779 77.4233 261.737 73.7257C265.695 70.028 270.888 67.9371 276.304 67.8604H374.503C377.077 67.8224 379.631 68.3248 382 69.3352C384.368 70.3456 386.498 71.8415 388.252 73.7262C390.007 75.611 391.346 77.8427 392.184 80.2774C393.023 82.712 393.341 85.2953 393.119 87.8606L376.687 322.588C376.248 327.98 373.818 333.016 369.869 336.713C365.92 340.411 360.735 342.505 355.326 342.588Z" fill="#1C4A9D"/>
<path d="M350.231 342.588H252.02C249.446 342.626 246.893 342.124 244.525 341.114C242.157 340.103 240.028 338.607 238.274 336.722C236.521 334.837 235.183 332.605 234.346 330.171C233.509 327.736 233.192 325.153 233.416 322.588L249.801 87.8606C250.245 82.4644 252.682 77.427 256.638 73.7296C260.593 70.0323 265.783 67.94 271.197 67.8604H369.408C371.982 67.8223 374.536 68.3247 376.904 69.3352C379.271 70.3457 381.401 71.8418 383.154 73.7267C384.907 75.6117 386.246 77.8436 387.083 80.2783C387.919 82.7129 388.236 85.296 388.012 87.8606L371.628 322.588C371.184 327.984 368.746 333.022 364.791 336.719C360.835 340.416 355.645 342.509 350.231 342.588Z" fill="#189E98"/>
<path d="M369.084 72.4433H343.559C342.73 72.4476 341.929 72.7389 341.292 73.2676C340.654 73.7964 340.22 74.5299 340.062 75.3431L339.907 76.1426C339.505 78.1213 338.438 79.9029 336.884 81.1922C335.33 82.4814 333.382 83.2008 331.363 83.231H307.091C305.159 83.261 303.291 82.5378 301.884 81.2147C300.476 79.8916 299.638 78.0725 299.549 76.1426V75.3431C299.512 74.5528 299.168 73.808 298.591 73.2667C298.014 72.7254 297.249 72.43 296.458 72.4433H270.921C266.748 72.5011 262.746 74.1132 259.699 76.9645C256.651 79.8157 254.776 83.7011 254.441 87.8611L238.045 322.589C237.873 324.564 238.117 326.553 238.761 328.428C239.405 330.303 240.434 332.022 241.784 333.475C243.133 334.928 244.772 336.081 246.594 336.862C248.416 337.642 250.382 338.032 252.365 338.007H350.564C354.738 337.949 358.741 336.337 361.79 333.486C364.84 330.635 366.717 326.75 367.055 322.589L383.452 87.8611C383.624 85.882 383.379 83.8887 382.732 82.0103C382.085 80.1319 381.051 78.4103 379.697 76.9569C378.342 75.5035 376.698 74.3507 374.87 73.5732C373.041 72.7957 371.07 72.4108 369.084 72.4433Z" fill="#1C4A9D"/>
<path opacity="0.6" d="M383.43 87.8602L383.083 92.6335L367.045 322.588C366.702 326.749 364.821 330.633 361.77 333.483C358.719 336.333 354.716 337.946 350.541 338.006H252.331C250.348 338.033 248.381 337.645 246.558 336.865C244.734 336.085 243.095 334.931 241.745 333.478C240.396 332.025 239.366 330.305 238.723 328.429C238.079 326.553 237.837 324.563 238.011 322.588L254.049 92.6215L254.395 87.8482C254.736 83.6902 256.612 79.8079 259.658 76.9577C262.705 74.1075 266.703 72.4936 270.875 72.4304H296.412C297.205 72.4173 297.972 72.7142 298.549 73.2581C299.127 73.802 299.469 74.5497 299.503 75.3422V76.1298C299.595 78.0586 300.434 79.876 301.841 81.1985C303.248 82.521 305.114 83.2451 307.045 83.2181H331.341C333.36 83.1901 335.309 82.4715 336.864 81.1819C338.418 79.8923 339.485 78.1094 339.885 76.1298L340.04 75.3422C340.206 74.5298 340.644 73.7984 341.282 73.2689C341.92 72.7394 342.72 72.4436 343.549 72.4304H369.074C371.06 72.3994 373.031 72.7859 374.859 73.5649C376.686 74.3439 378.33 75.498 379.683 76.9525C381.037 78.407 382.069 80.1296 382.715 82.0085C383.36 83.8875 383.604 85.8811 383.43 87.8602Z" fill="black"/>
<g opacity="0.7">
<path d="M313.857 75.0433C313.815 75.57 313.578 76.0618 313.191 76.4219C312.805 76.782 312.297 76.9841 311.769 76.9884C311.519 76.9909 311.271 76.9412 311.041 76.8426C310.811 76.7439 310.604 76.5985 310.433 76.4155C310.263 76.2325 310.132 76.016 310.05 75.7798C309.967 75.5435 309.935 75.2927 309.955 75.0433C310.002 74.5187 310.241 74.0299 310.627 73.6708C311.012 73.3118 311.517 73.1079 312.043 73.0982C312.294 73.092 312.544 73.1392 312.776 73.2365C313.008 73.3339 313.216 73.4793 313.387 73.6631C313.559 73.8469 313.689 74.0649 313.77 74.3028C313.851 74.5408 313.881 74.7931 313.857 75.0433Z" fill="black"/>
<path d="M327.832 73.0987H321.137C320.61 73.1084 320.106 73.3123 319.72 73.6714C319.335 74.0304 319.096 74.5192 319.049 75.0438C319.029 75.2932 319.061 75.5441 319.143 75.7803C319.226 76.0166 319.356 76.2331 319.527 76.416C319.698 76.599 319.905 76.7445 320.134 76.8431C320.364 76.9417 320.612 76.9914 320.863 76.989H327.557C328.084 76.9793 328.588 76.7754 328.974 76.4163C329.359 76.0573 329.598 75.5685 329.645 75.0438C329.665 74.7944 329.633 74.5436 329.551 74.3074C329.468 74.0711 329.338 73.8546 329.167 73.6716C328.996 73.4887 328.79 73.3432 328.56 73.2446C328.33 73.1459 328.082 73.0963 327.832 73.0987Z" fill="black"/>
</g>
<path d="M265.408 83.1943H267.473L267.616 81.1299H265.551L265.408 83.1943Z" fill="white"/>
<path d="M269.682 81.1299L269.539 83.1943H271.604L271.747 81.1299L271.89 79.0654H269.825L269.682 81.1299Z" fill="white"/>
<path d="M274.097 77.002L273.953 79.0664L273.81 81.1309L273.667 83.1953H275.731L275.875 81.1309L276.018 79.0664L276.161 77.002H274.097Z" fill="white"/>
<path d="M362.903 77.1338L362.795 78.6493H361.781L361.578 81.6804H362.581L362.473 83.1959H371.566L371.984 77.1338H362.903ZM366.626 81.6804H363.559L363.774 78.6493H366.793L366.626 81.6804Z" fill="white"/>
<path d="M202.698 408.542L199.87 427.05H208.82L214.703 408.542H202.698Z" fill="#FFC3BD"/>
<path d="M198.737 422.924L210.671 422.65C210.764 422.638 210.859 422.646 210.949 422.674C211.039 422.701 211.123 422.747 211.194 422.809C211.265 422.871 211.322 422.948 211.361 423.033C211.401 423.119 211.422 423.212 211.423 423.306V432.077C211.373 432.567 211.145 433.021 210.781 433.353C210.418 433.686 209.946 433.873 209.454 433.879C205.301 433.879 203.32 433.724 198.057 433.879C192.471 433.86 186.891 433.494 181.351 432.781C177.09 432.053 178.248 428.008 180.157 428.008C188.857 427.698 193.714 425.884 196.864 423.64C197.4 423.215 198.054 422.965 198.737 422.924Z" fill="#263238"/>
<path opacity="0.2" d="M201.565 415.964L202.699 408.542H214.704L211.816 417.79L201.565 415.964Z" fill="black"/>
<path d="M281.47 304.759C281.47 304.759 208.677 305.487 207.567 328.53C205.956 361.669 200.407 412.194 200.407 412.194L214.13 415.965C214.13 415.965 233.701 365.845 234.417 339.986C254.895 335.917 307.52 339.986 313.702 326.549C316.717 319.702 317.53 312.088 316.029 304.759H281.47Z" fill="#1C4A9D"/>
<path opacity="0.3" d="M281.47 304.759C281.47 304.759 208.677 305.487 207.567 328.53C205.956 361.669 200.407 412.194 200.407 412.194L214.13 415.965C214.13 415.965 233.701 365.845 234.417 339.986C254.895 335.917 307.52 339.986 313.702 326.549C316.717 319.702 317.53 312.088 316.029 304.759H281.47Z" fill="white"/>
<path d="M190.085 406.85L180.288 421.504L185.897 429.559L199.25 414.94L190.085 406.85Z" fill="#FFC3BD"/>
<path opacity="0.2" d="M194.226 420.441L199.25 414.94L190.908 405.644L185.526 413.651L194.226 420.441Z" fill="black"/>
<path d="M180.766 420.788L188.582 426.588C188.671 426.635 188.749 426.7 188.813 426.778C188.877 426.856 188.924 426.946 188.953 427.042C188.982 427.139 188.991 427.24 188.981 427.34C188.97 427.44 188.94 427.537 188.892 427.626L184.346 435.86C184.06 436.278 183.621 436.569 183.124 436.669C182.627 436.77 182.11 436.672 181.684 436.397C178.104 434.01 176.434 432.638 171.792 429.666C168.952 427.841 165.252 425.693 161.314 423.163C157.376 420.633 159.858 417.029 161.72 417.781C170.169 421.098 172.949 420.263 176.863 419.977C178.199 420.039 179.516 420.313 180.766 420.788Z" fill="#263238"/>
<path d="M186.768 410.261L197.508 418.96C197.508 418.96 221.135 393.662 244.716 349.974L244.417 349.437C265.635 347.778 323.941 341.991 330.91 333.458C338.261 324.437 337.747 314.126 334.979 304.759H300.372C300.372 304.759 245.145 312.921 227.114 330.248C213.546 342.301 186.768 410.261 186.768 410.261Z" fill="#1C4A9D"/>
<g opacity="0.4">
<path d="M186.767 410.261L197.507 418.96C197.507 418.96 221.134 393.662 244.715 349.974L244.416 349.437C265.634 347.778 323.94 341.991 330.909 333.458C338.26 324.437 337.746 314.126 334.978 304.759H300.371C300.371 304.759 245.144 312.921 227.113 330.248C213.545 342.301 186.767 410.261 186.767 410.261Z" fill="white"/>
</g>
<path d="M296.734 226.49L272.748 230.07C259.323 232.075 245.409 225.189 233.87 218.041L228.297 223.864C228.297 223.864 252.748 241.931 264.92 241.979C271.818 241.979 282.605 240.165 290.66 238.578C291.939 238.323 293.143 237.779 294.181 236.989C295.218 236.198 296.062 235.182 296.647 234.016C297.233 232.851 297.545 231.567 297.56 230.263C297.575 228.959 297.293 227.668 296.734 226.49Z" fill="#FF8B7B"/>
<path d="M219.619 207.42C220.275 211.335 220.944 215.261 221.612 219.175C223.844 220.595 225.765 222.516 228.008 223.948C230.38 222.563 232.417 220.673 233.975 218.411C233.569 216.585 232.782 214.831 232.412 213.005C231.719 209.974 228.02 207.993 225.98 205.654C224.154 206.072 221.445 206.991 219.619 207.42Z" fill="#FF8B7B"/>
<path d="M291.676 245.01L273.776 244.533L271.306 227.827C271.306 227.827 281.294 225.858 290.649 223.948C290.984 229.402 291.282 239.581 291.676 245.01Z" fill="#1C4A9D"/>
<path opacity="0.1" d="M291.676 245.01L273.776 244.533L271.306 227.827C271.306 227.827 281.294 225.858 290.649 223.948C290.984 229.402 291.282 239.581 291.676 245.01Z" fill="black"/>
<path opacity="0.2" d="M273.715 244.533L290.457 241.442L290.541 245.034L273.715 244.533Z" fill="black"/>
<path d="M336.364 306.609C329.968 308.113 317.653 306.908 306.053 306.478C297.986 306.168 287.02 304.76 287.02 304.76C287.891 291.227 287.521 277.659 283.857 253.136C282.115 241.442 290.695 223.852 290.731 223.852C292.068 223.637 293.511 223.446 295.003 223.267C295.838 223.172 296.674 223.1 297.533 223.041C304.487 222.75 311.452 222.866 318.392 223.387C319.693 223.47 321.03 223.589 322.33 223.733C323.631 223.876 324.717 224.007 325.815 224.174L327.354 224.389C328.302 224.537 329.21 224.871 330.028 225.372C330.845 225.872 331.556 226.53 332.118 227.306C332.68 228.083 333.084 228.963 333.304 229.896C333.525 230.829 333.559 231.796 333.404 232.742C333.409 232.77 333.409 232.798 333.404 232.826C332.772 238.399 332.211 243.303 331.913 247.778C331.913 247.921 331.913 248.077 331.913 248.22C331.495 253.196 331.268 257.659 331.233 261.931C331.054 275.284 332.676 286.836 336.364 306.609Z" fill="#1C4A9D"/>
<path d="M331.972 246.19C331.972 246.703 331.972 247.228 331.901 247.741C331.901 247.884 331.901 248.039 331.901 248.182C331.483 253.159 331.256 257.622 331.22 261.894C328.261 256.261 325.349 248.266 325.54 244.28L331.972 246.19Z" fill="#1C4A9D"/>
<path opacity="0.2" d="M331.971 246.19C331.971 246.703 331.971 247.228 331.9 247.741C331.894 247.82 331.894 247.9 331.9 247.98C331.482 253.027 331.244 257.526 331.208 261.894C328.248 256.261 325.337 248.266 325.527 244.28L331.971 246.19Z" fill="black"/>
<path d="M316.675 199.902C315.243 206.585 313.739 218.852 318.346 223.411C314.646 226.991 309.813 231.072 301.842 231.227C293.87 231.382 295.362 225.881 297.498 223.065C305.016 221.394 304.921 215.905 303.691 210.618L316.675 199.902Z" fill="#FF8B7B"/>
<path opacity="0.2" d="M311.399 204.233L303.726 210.57C304.023 211.784 304.215 213.022 304.298 214.269C305.956 214.005 307.523 213.335 308.86 212.319C310.196 211.303 311.261 209.972 311.96 208.446C312.676 206.548 312.115 204.508 311.399 204.233Z" fill="black"/>
<path d="M299.704 180.739C294.249 190.763 290.883 201.788 289.811 213.15C289.575 214.621 289.628 216.125 289.966 217.577C290.151 218.302 290.522 218.965 291.044 219.501C291.565 220.037 292.218 220.427 292.937 220.632C292.663 220.377 292.449 220.064 292.311 219.715C292.172 219.367 292.114 218.992 292.139 218.618C292.164 218.244 292.272 217.881 292.456 217.554C292.64 217.227 292.894 216.946 293.2 216.73C292.963 218.529 293.41 220.352 294.453 221.837C294.951 222.428 295.573 222.902 296.273 223.228C296.974 223.553 297.737 223.722 298.51 223.722C298.237 223.04 298.175 222.292 298.331 221.574C299.429 223.09 301.637 223.961 303.188 222.875C305.79 221.121 305.837 217.243 306.386 214.152L312.066 181.932C311.426 181.166 310.627 180.548 309.725 180.122C308.822 179.695 307.838 179.47 306.84 179.462C304.817 179.489 302.808 179.802 300.873 180.393H301.315" fill="#263238"/>
<path d="M322.617 192.49C319.812 201.154 318.595 206.357 312.998 209.722C304.562 214.782 294.741 207.944 294.931 198.588C295.087 190.235 299.705 177.454 309.168 176.178C311.268 175.886 313.407 176.137 315.382 176.907C317.357 177.677 319.103 178.94 320.451 180.576C321.8 182.211 322.707 184.165 323.086 186.251C323.465 188.337 323.303 190.485 322.617 192.49Z" fill="#FF8B7B"/>
<path d="M316.781 194.758C316.149 196.484 315.387 198.159 314.502 199.77C316.328 199.208 318.238 198.969 320.146 199.066C320.808 199.138 321.474 199.174 322.139 199.174C322.816 199.165 323.468 198.916 323.977 198.47C324.269 198.155 324.471 197.767 324.562 197.347C324.652 196.927 324.627 196.49 324.49 196.083C324.211 195.296 323.683 194.622 322.986 194.162C322.223 193.624 321.307 193.344 320.373 193.362C319.407 193.398 317.103 193.887 316.781 194.758Z" fill="#263238"/>
<path d="M323.321 201.679C322.573 202.383 321.694 202.934 320.734 203.298C319.774 203.662 318.751 203.834 317.724 203.803C314.967 203.708 314.43 201.058 315.898 198.898C317.211 196.953 320.23 194.674 322.641 195.82C323.154 196.091 323.593 196.484 323.92 196.963C324.248 197.442 324.454 197.994 324.521 198.571C324.588 199.147 324.514 199.731 324.305 200.273C324.095 200.814 323.758 201.297 323.321 201.679Z" fill="#FF8B7B"/>
<path d="M303.022 190.463C301.614 192.435 299.944 194.205 298.058 195.725C298.455 196.2 298.952 196.581 299.512 196.843C300.073 197.105 300.685 197.241 301.303 197.241L303.022 190.463Z" fill="#FF5652"/>
<path d="M301.925 200.773C302.746 200.88 303.581 200.819 304.379 200.596C305.176 200.372 305.92 199.99 306.567 199.472C306.606 199.43 306.628 199.375 306.628 199.317C306.628 199.259 306.606 199.204 306.567 199.162C306.547 199.141 306.523 199.124 306.496 199.113C306.469 199.102 306.441 199.096 306.412 199.096C306.383 199.096 306.354 199.102 306.328 199.113C306.301 199.124 306.277 199.141 306.257 199.162C305.532 199.728 304.685 200.115 303.783 200.291C302.881 200.467 301.95 200.428 301.066 200.176C301.011 200.165 300.953 200.174 300.904 200.203C300.856 200.232 300.82 200.278 300.803 200.331C300.788 200.388 300.796 200.449 300.825 200.5C300.854 200.551 300.902 200.589 300.958 200.606C301.281 200.666 301.603 200.725 301.925 200.773Z" fill="#263238"/>
<path d="M311.817 189.532C311.887 189.55 311.961 189.55 312.032 189.532C312.084 189.512 312.132 189.482 312.172 189.444C312.212 189.405 312.245 189.359 312.267 189.308C312.289 189.257 312.301 189.202 312.301 189.146C312.302 189.09 312.291 189.035 312.27 188.983C312.024 188.338 311.625 187.762 311.108 187.305C310.59 186.848 309.969 186.523 309.299 186.358C309.244 186.347 309.188 186.348 309.133 186.36C309.078 186.372 309.027 186.395 308.981 186.427C308.935 186.46 308.897 186.501 308.867 186.548C308.838 186.596 308.818 186.649 308.81 186.704C308.788 186.816 308.811 186.932 308.873 187.028C308.936 187.123 309.033 187.191 309.144 187.217C309.681 187.345 310.18 187.602 310.595 187.966C311.011 188.33 311.332 188.789 311.53 189.305C311.555 189.364 311.595 189.415 311.645 189.455C311.695 189.495 311.754 189.521 311.817 189.532Z" fill="#263238"/>
<path d="M297.784 185.738C297.855 185.743 297.926 185.731 297.993 185.705C298.059 185.678 298.118 185.636 298.165 185.582C298.509 185.158 298.947 184.821 299.444 184.597C299.941 184.373 300.484 184.269 301.029 184.294C301.085 184.302 301.142 184.299 301.197 184.285C301.251 184.27 301.303 184.245 301.347 184.211C301.392 184.176 301.429 184.133 301.456 184.084C301.484 184.034 301.501 183.98 301.507 183.924C301.524 183.811 301.496 183.697 301.429 183.605C301.362 183.513 301.261 183.452 301.149 183.434C300.469 183.396 299.79 183.52 299.167 183.796C298.545 184.072 297.997 184.492 297.569 185.022C297.529 185.061 297.497 185.109 297.475 185.161C297.454 185.213 297.442 185.269 297.442 185.326C297.442 185.382 297.454 185.438 297.475 185.491C297.497 185.543 297.529 185.59 297.569 185.63C297.628 185.687 297.703 185.724 297.784 185.738Z" fill="#263238"/>
<path d="M325.613 228.375C325.553 228.375 325.458 228.375 325.446 228.375C323 238.578 323.477 249.235 321.162 259.784C319.551 267.147 304.909 267.027 290.863 272.791L292.474 281.645C292.474 281.645 321.651 280.106 329.682 269.127C334.229 262.898 335.243 259.831 336.365 250.726C337.558 241.383 338.107 229.449 331.973 228.304L325.613 228.375Z" fill="#FF8B7B"/>
<path d="M278.915 284.82H286.6C286.954 284.835 287.308 284.766 287.63 284.618C287.953 284.471 288.236 284.248 288.456 283.97C288.676 283.692 288.827 283.365 288.897 283.017C288.966 282.669 288.952 282.309 288.855 281.968L284.583 261.884C284.394 261.094 283.953 260.387 283.327 259.87C282.7 259.353 281.922 259.055 281.11 259.02H273.425C273.07 259.007 272.717 259.078 272.395 259.227C272.072 259.376 271.789 259.599 271.569 259.879C271.35 260.158 271.199 260.485 271.129 260.833C271.06 261.182 271.074 261.542 271.17 261.884L275.442 281.968C275.631 282.757 276.073 283.462 276.7 283.977C277.326 284.492 278.104 284.788 278.915 284.82Z" fill="#1C4A9D"/>
<path opacity="0.3" d="M278.915 284.82H286.6C286.954 284.835 287.308 284.766 287.63 284.618C287.953 284.471 288.236 284.248 288.456 283.97C288.676 283.692 288.827 283.365 288.897 283.017C288.966 282.669 288.952 282.309 288.855 281.968L284.583 261.884C284.394 261.094 283.953 260.387 283.327 259.87C282.7 259.353 281.922 259.055 281.11 259.02H273.425C273.07 259.007 272.717 259.078 272.395 259.227C272.072 259.376 271.789 259.599 271.569 259.879C271.35 260.158 271.199 260.485 271.129 260.833C271.06 261.182 271.074 261.542 271.17 261.884L275.442 281.968C275.631 282.757 276.073 283.462 276.7 283.977C277.326 284.492 278.104 284.788 278.915 284.82Z" fill="white"/>
<path d="M277.783 284.82H285.468C285.822 284.835 286.176 284.766 286.498 284.618C286.821 284.47 287.104 284.248 287.324 283.97C287.544 283.691 287.695 283.365 287.765 283.017C287.834 282.669 287.82 282.309 287.723 281.968L283.451 261.884C283.264 261.093 282.824 260.385 282.197 259.868C281.57 259.35 280.791 259.053 279.979 259.02H272.305C271.95 259.004 271.595 259.073 271.271 259.221C270.947 259.37 270.663 259.593 270.443 259.873C270.222 260.153 270.072 260.481 270.004 260.831C269.935 261.181 269.951 261.542 270.05 261.884L274.31 281.968C274.501 282.755 274.943 283.46 275.57 283.974C276.196 284.489 276.973 284.785 277.783 284.82Z" fill="#1C4A9D"/>
<path opacity="0.6" d="M277.783 284.82H285.468C285.822 284.835 286.176 284.766 286.498 284.618C286.821 284.47 287.104 284.248 287.324 283.97C287.544 283.691 287.695 283.365 287.765 283.017C287.834 282.669 287.82 282.309 287.723 281.968L283.451 261.884C283.264 261.093 282.824 260.385 282.197 259.868C281.57 259.35 280.791 259.053 279.979 259.02H272.305C271.95 259.004 271.595 259.073 271.271 259.221C270.947 259.37 270.663 259.593 270.443 259.873C270.222 260.153 270.072 260.481 270.004 260.831C269.935 261.181 269.951 261.542 270.05 261.884L274.31 281.968C274.501 282.755 274.943 283.46 275.57 283.974C276.196 284.489 276.973 284.785 277.783 284.82Z" fill="white"/>
<path d="M280.84 264.926H280.088C279.533 264.915 278.999 264.72 278.567 264.373C278.135 264.025 277.83 263.544 277.701 263.005L277.546 262.253C277.479 262.023 277.468 261.781 277.514 261.546C277.56 261.311 277.661 261.09 277.809 260.902C277.958 260.715 278.149 260.565 278.366 260.465C278.584 260.366 278.822 260.32 279.062 260.332H279.801C280.345 260.356 280.867 260.556 281.286 260.903C281.706 261.25 282.002 261.724 282.128 262.253L282.295 263.005C282.36 263.23 282.372 263.467 282.329 263.697C282.287 263.927 282.191 264.144 282.049 264.331C281.908 264.517 281.725 264.668 281.515 264.772C281.305 264.875 281.074 264.928 280.84 264.926Z" fill="#1C4A9D"/>
<path d="M278.99 261.513C279.042 261.734 279.164 261.931 279.339 262.075C279.513 262.22 279.73 262.303 279.957 262.313C280.056 262.317 280.154 262.297 280.244 262.256C280.334 262.214 280.413 262.152 280.473 262.073C280.534 261.995 280.575 261.903 280.593 261.806C280.611 261.708 280.606 261.608 280.577 261.513C280.525 261.296 280.404 261.101 280.232 260.959C280.06 260.817 279.846 260.735 279.622 260.726C279.524 260.72 279.425 260.738 279.335 260.778C279.245 260.818 279.165 260.88 279.103 260.957C279.042 261.034 278.999 261.124 278.979 261.221C278.96 261.318 278.963 261.418 278.99 261.513Z" fill="#263238"/>
<path d="M279.48 263.818C279.532 264.037 279.655 264.233 279.83 264.375C280.004 264.517 280.221 264.598 280.446 264.605C280.545 264.612 280.643 264.594 280.733 264.554C280.824 264.514 280.903 264.452 280.964 264.375C281.025 264.297 281.066 264.206 281.084 264.109C281.102 264.012 281.096 263.912 281.067 263.818C281.015 263.597 280.892 263.4 280.718 263.255C280.543 263.111 280.326 263.028 280.1 263.018C280.001 263.014 279.903 263.033 279.813 263.075C279.723 263.117 279.644 263.179 279.583 263.258C279.523 263.336 279.482 263.428 279.464 263.525C279.445 263.623 279.451 263.723 279.48 263.818Z" fill="#263238"/>
<path d="M278.964 280.512C279.74 281.18 289.537 282.099 292.473 281.705C293.368 279.056 292.58 276.371 292.138 273.615C290.468 272.35 288.558 271.383 286.9 270.13C284.131 268.042 280.134 269.02 276.697 268.495C275.933 269.521 275.706 272.015 275.802 274.187C275.869 275.402 276.184 276.589 276.728 277.677C277.272 278.765 278.033 279.73 278.964 280.512Z" fill="#FF8B7B"/>
<path d="M320.766 228.72C320.575 240.367 321.207 240.582 319.394 252.085L339.083 250.582C339.083 250.582 341.172 242.228 338.928 235.068C337.27 229.782 334.31 225.056 327.95 223.768C324.99 223.159 320.826 225.128 320.766 228.72Z" fill="#1C4A9D"/>
<path opacity="0.1" d="M320.766 228.72C320.575 240.367 321.207 240.582 319.394 252.085L339.083 250.582C339.083 250.582 341.172 242.228 338.928 235.068C337.27 229.782 334.31 225.056 327.95 223.768C324.99 223.159 320.826 225.128 320.766 228.72Z" fill="white"/>
<path d="M330.373 201.918C330.285 202.135 330.14 202.323 329.953 202.462C329.765 202.601 329.543 202.685 329.311 202.706C328.979 202.706 328.648 202.682 328.32 202.634C327.019 202.491 324.907 202.157 324.573 202.061C322.855 198.481 323.75 195.486 321.16 192.515C321.995 192.908 322.819 193.231 323.63 193.553C324.442 193.875 325.229 194.173 326.017 194.567C327.282 196.429 328.881 198.624 329.991 200.534C330.147 200.725 330.262 200.947 330.328 201.186C330.393 201.424 330.409 201.673 330.373 201.918Z" fill="#263238"/>
<path d="M316.196 182.588C316.565 184.946 316.472 187.353 315.922 189.676C314.647 189.142 313.508 188.329 312.589 187.296C311.669 186.264 310.994 185.038 310.612 183.709C310.426 184.865 310.605 186.05 311.125 187.099C310.139 186.749 309.259 186.153 308.568 185.368C307.876 184.582 307.397 183.634 307.175 182.612C306.848 183.591 306.848 184.651 307.175 185.631C306.248 185.482 305.386 185.062 304.696 184.426C304.006 183.789 303.519 182.963 303.297 182.051C303.073 182.374 302.922 182.742 302.854 183.129C302.786 183.517 302.802 183.914 302.903 184.294C302.224 183.917 301.68 183.339 301.345 182.639C301.009 181.939 300.899 181.152 301.03 180.387C301.161 179.622 301.527 178.916 302.076 178.368C302.625 177.82 303.331 177.455 304.096 177.325C306.373 176.89 308.73 177.217 310.803 178.256C312.794 179.441 314.61 180.899 316.196 182.588Z" fill="#263238"/>
<path opacity="0.2" d="M331.053 202.301C330.967 202.524 330.819 202.718 330.627 202.86C330.434 203.001 330.206 203.085 329.967 203.101C329.632 203.101 329.297 203.077 328.965 203.029C327.628 202.874 325.468 202.54 325.134 202.444C323.368 198.864 324.287 195.714 321.638 192.659C322.497 193.065 323.332 193.387 324.168 193.721C325.003 194.055 325.802 194.354 326.65 194.759C327.927 196.669 329.573 198.912 330.707 200.893C330.86 201.091 330.969 201.318 331.029 201.561C331.089 201.803 331.097 202.055 331.053 202.301Z" fill="black"/>
<path d="M331.052 202.301C330.966 202.524 330.819 202.717 330.626 202.859C330.434 203.001 330.205 203.084 329.966 203.1C329.631 203.1 329.296 203.076 328.964 203.029C327.246 200.236 325.432 197.515 323.522 194.866C323.725 194.449 323.952 194.079 324.167 193.673C324.978 193.995 325.802 194.305 326.649 194.711C327.926 196.62 329.573 198.864 330.706 200.845C330.866 201.048 330.979 201.283 331.039 201.535C331.098 201.786 331.103 202.047 331.052 202.301Z" fill="#1C4A9D"/>
<path d="M326.569 194.4C326.569 194.4 325.221 197.432 325.221 197.515C325.077 197.288 324.91 197.05 324.743 196.811C321.713 192.613 318.429 188.604 314.91 184.806C310.746 181.441 305.71 178.41 299.313 181.56C300.113 179.317 307.01 162.73 322.178 175.128C324.906 177.316 327.033 180.162 328.359 183.398C328.999 185.236 329.17 187.205 328.858 189.126C328.545 191.047 327.759 192.86 326.569 194.4Z" fill="#1C4A9D"/>
<path d="M311.925 180.2C312.14 179.812 312.235 179.368 312.196 178.926C312.158 178.484 311.989 178.063 311.71 177.718C311.133 177.037 310.342 176.57 309.467 176.393C308.615 176.147 307.706 176.184 306.877 176.501C306.465 176.663 306.104 176.934 305.833 177.285C305.562 177.636 305.391 178.053 305.338 178.494C307.64 178.394 309.907 179.089 311.758 180.463L311.925 180.2Z" fill="#263238"/>
<path d="M308.666 191.514C308.451 192.218 307.95 192.708 307.472 192.588C306.995 192.469 306.78 191.789 306.959 191.073C307.138 190.357 307.675 189.879 308.152 189.987C308.63 190.094 308.833 190.798 308.666 191.514Z" fill="#263238"/>
<path d="M308.094 190.296C308.094 190.296 308.094 190.451 307.999 190.463C307.961 190.464 307.924 190.457 307.889 190.443C307.854 190.428 307.822 190.407 307.796 190.38C307.438 190.095 307.155 189.726 306.973 189.306C307.335 189.601 307.737 189.846 308.166 190.034L308.094 190.296Z" fill="#263238"/>
<path d="M300.551 189.413C300.336 190.129 299.847 190.606 299.358 190.487C298.868 190.368 298.654 189.687 298.845 188.971C299.036 188.255 299.549 187.778 300.038 187.909C300.527 188.041 300.742 188.697 300.551 189.413Z" fill="#263238"/>
<path d="M299.871 188.219C299.93 188.279 299.871 188.386 299.787 188.386C299.748 188.388 299.708 188.381 299.671 188.367C299.634 188.352 299.6 188.331 299.572 188.303C299.214 188.017 298.931 187.649 298.749 187.229C299.116 187.521 299.517 187.77 299.942 187.968L299.871 188.219Z" fill="#263238"/>
<path d="M318.666 195.774C318.258 195.055 317.711 194.425 317.058 193.919C316.405 193.413 315.657 193.041 314.86 192.826L311.28 191.847C311.49 190.864 311.322 189.838 310.809 188.973C310.297 188.108 309.477 187.468 308.514 187.181C307.55 186.893 306.514 186.979 305.611 187.422C304.708 187.864 304.005 188.631 303.642 189.568C303.399 189.388 303.096 189.307 302.795 189.342C302.928 188.334 302.665 187.315 302.061 186.498C301.458 185.68 300.561 185.129 299.559 184.959C298.558 184.789 297.529 185.014 296.69 185.586C295.851 186.159 295.266 187.034 295.059 188.029C294.852 189.023 295.038 190.059 295.579 190.919C296.12 191.779 296.973 192.396 297.959 192.64C298.945 192.885 299.988 192.737 300.867 192.229C301.747 191.72 302.395 190.891 302.676 189.914C302.811 189.851 302.965 189.838 303.109 189.878C303.253 189.917 303.379 190.006 303.463 190.129C303.171 191.148 303.295 192.242 303.808 193.169C304.322 194.097 305.183 194.783 306.202 195.075C307.221 195.368 308.315 195.244 309.242 194.731C310.17 194.217 310.856 193.356 311.148 192.337L314.728 193.327C316.204 193.729 317.462 194.698 318.225 196.024L319.06 197.504L319.514 197.253L318.666 195.774ZM297.926 192.134C297.26 191.952 296.662 191.576 296.208 191.054C295.755 190.532 295.466 189.888 295.379 189.202C295.292 188.517 295.41 187.82 295.718 187.202C296.026 186.583 296.511 186.07 297.111 185.726C297.711 185.383 298.399 185.225 299.089 185.273C299.779 185.321 300.438 185.572 300.985 185.994C301.532 186.417 301.942 186.992 302.162 187.647C302.382 188.303 302.403 189.008 302.222 189.676C302.102 190.119 301.895 190.535 301.614 190.899C301.333 191.263 300.983 191.567 300.584 191.796C300.185 192.024 299.745 192.171 299.289 192.229C298.833 192.288 298.37 192.255 297.926 192.134ZM306.447 194.461C305.776 194.28 305.174 193.904 304.717 193.381C304.26 192.858 303.969 192.211 303.88 191.522C303.791 190.833 303.909 190.133 304.218 189.511C304.527 188.889 305.014 188.373 305.617 188.028C306.22 187.683 306.912 187.525 307.605 187.574C308.298 187.622 308.961 187.875 309.509 188.301C310.058 188.726 310.469 189.305 310.688 189.964C310.908 190.623 310.927 191.333 310.743 192.003C310.619 192.446 310.409 192.86 310.124 193.222C309.84 193.583 309.487 193.886 309.086 194.111C308.684 194.336 308.243 194.479 307.786 194.533C307.329 194.587 306.866 194.55 306.423 194.425L306.447 194.461Z" fill="#263238"/>
<path d="M325.266 210.272C325.266 213.721 325.015 217.313 323.201 220.225C320.469 224.557 314.848 226.191 309.753 226.06C310.54 225.976 311.286 225.667 311.902 225.169C312.518 224.672 312.977 224.008 313.225 223.256C311.822 223.76 310.31 223.879 308.846 223.602C309.372 223.439 309.853 223.158 310.253 222.779C310.652 222.4 310.959 221.935 311.149 221.418C311.517 220.382 311.727 219.295 311.769 218.196C312.712 207.074 313.726 195.702 314.669 184.58C315.931 185.638 317.093 186.808 318.142 188.077C320.375 190.61 322.433 193.293 324.299 196.108C324.323 196.227 325.278 205.797 325.266 210.272Z" fill="#263238"/>
<path d="M222.175 35.1523H199.06C191.79 35.1523 185.897 41.0454 185.897 48.3148V71.4295C185.897 78.6989 191.79 84.5919 199.06 84.5919H222.175C229.444 84.5919 235.337 78.6989 235.337 71.4295V48.3148C235.337 41.0454 229.444 35.1523 222.175 35.1523Z" fill="#189E98"/>
<path d="M213.119 71.0963C213.143 71.4551 213.093 71.8151 212.973 72.154C212.852 72.4928 212.663 72.8032 212.417 73.0659C212.172 73.3287 211.875 73.5382 211.545 73.6814C211.215 73.8246 210.859 73.8985 210.499 73.8985C210.14 73.8985 209.784 73.8246 209.454 73.6814C209.124 73.5382 208.827 73.3287 208.581 73.0659C208.336 72.8032 208.147 72.4928 208.026 72.154C207.906 71.8151 207.856 71.4551 207.88 71.0963V70.8457H213.107C213.117 70.9288 213.121 71.0126 213.119 71.0963Z" fill="white"/>
<path d="M209.18 48.1488C209.128 47.8938 209.133 47.6304 209.195 47.3776C209.257 47.1249 209.375 46.8891 209.539 46.6874C209.704 46.4857 209.911 46.3232 210.146 46.2116C210.381 46.0999 210.638 46.042 210.899 46.042C211.159 46.042 211.416 46.0999 211.651 46.2116C211.886 46.3232 212.094 46.4857 212.258 46.6874C212.423 46.8891 212.54 47.1249 212.602 47.3776C212.664 47.6304 212.669 47.8938 212.617 48.1488C212.623 48.2163 212.623 48.2841 212.617 48.3516H209.192L209.18 48.1488Z" fill="white"/>
<path d="M221.376 69.9145H199.896L201.412 66.0481H201.496V57.1698C201.467 55.2806 202.037 53.4308 203.123 51.8853C204.21 50.3398 205.758 49.1778 207.546 48.5659C209.642 47.9858 211.857 47.9858 213.954 48.5659C215.136 49.0408 216.215 49.7421 217.128 50.6303C218.843 52.3517 219.808 54.6807 219.813 57.1101V65.9885H219.909L221.376 69.9145Z" fill="white"/>
<path d="M144.335 88.4463H121.22C113.951 88.4463 108.058 94.3393 108.058 101.609V124.723C108.058 131.993 113.951 137.886 121.22 137.886H144.335C151.604 137.886 157.497 131.993 157.497 124.723V101.609C157.497 94.3393 151.604 88.4463 144.335 88.4463Z" fill="#1C4A9D"/>
<path opacity="0.6" d="M144.335 88.4463H121.22C113.951 88.4463 108.058 94.3393 108.058 101.609V124.723C108.058 131.993 113.951 137.886 121.22 137.886H144.335C151.604 137.886 157.497 131.993 157.497 124.723V101.609C157.497 94.3393 151.604 88.4463 144.335 88.4463Z" fill="white"/>
<path fill-rule="evenodd" clip-rule="evenodd" d="M128.476 119.809C127.257 119.776 126.077 119.371 125.096 118.648C124.115 117.924 123.378 116.918 122.986 115.764C123.821 115.921 124.681 115.892 125.504 115.68H125.576C124.234 115.42 123.024 114.702 122.153 113.648C121.283 112.595 120.805 111.271 120.802 109.904C121.587 110.336 122.462 110.577 123.356 110.608C122.143 109.753 121.292 108.477 120.969 107.028C120.614 105.599 120.818 104.087 121.542 102.804C123.034 104.601 124.881 106.07 126.968 107.119C129.054 108.168 131.335 108.775 133.666 108.902C133.655 108.684 133.619 108.468 133.559 108.258C133.373 106.929 133.66 105.577 134.371 104.439C134.793 103.745 135.364 103.154 136.043 102.708C136.722 102.262 137.492 101.973 138.297 101.861C139.214 101.698 140.157 101.76 141.045 102.043C141.933 102.326 142.738 102.821 143.392 103.484C143.427 103.531 143.476 103.566 143.532 103.583C143.587 103.6 143.647 103.599 143.702 103.58C144.891 103.332 146.032 102.893 147.079 102.279H147.163C146.752 103.523 145.937 104.594 144.848 105.322C145.965 105.194 147.055 104.896 148.082 104.439C147.867 104.737 147.652 105.036 147.426 105.322C146.82 106.083 146.118 106.761 145.337 107.339C145.303 107.354 145.274 107.379 145.255 107.411C145.235 107.443 145.227 107.48 145.23 107.518C145.258 108.383 145.214 109.249 145.099 110.107C144.902 111.899 144.418 113.648 143.667 115.286C142.901 116.986 141.851 118.544 140.564 119.893C138.41 122.155 135.623 123.715 132.569 124.368C131.496 124.593 130.406 124.724 129.311 124.761C126.009 124.859 122.751 123.983 119.943 122.243L119.788 122.16C121.774 122.383 123.785 122.104 125.635 121.348C126.651 120.975 127.608 120.457 128.476 119.809Z" fill="#1C4A9D"/>
<path d="M167.438 249.618H144.324C137.054 249.618 131.161 255.511 131.161 262.781V285.895C131.161 293.165 137.054 299.058 144.324 299.058H167.438C174.708 299.058 180.601 293.165 180.601 285.895V262.781C180.601 255.511 174.708 249.618 167.438 249.618Z" fill="#189E98"/>
<path d="M166.292 266.444V288.39C166.294 288.456 166.282 288.523 166.257 288.585C166.233 288.647 166.196 288.704 166.15 288.752C166.103 288.8 166.047 288.838 165.986 288.863C165.924 288.889 165.858 288.903 165.791 288.903H145.504C145.368 288.903 145.238 288.849 145.142 288.752C145.045 288.656 144.991 288.526 144.991 288.39V259.845C144.991 259.709 145.045 259.579 145.142 259.482C145.238 259.386 145.368 259.332 145.504 259.332H159.168L166.292 266.444Z" fill="#189E98"/>
<g opacity="0.7">
<path d="M166.292 266.444V288.39C166.294 288.456 166.282 288.523 166.257 288.585C166.233 288.647 166.196 288.704 166.15 288.752C166.103 288.8 166.047 288.838 165.986 288.863C165.924 288.889 165.858 288.903 165.791 288.903H145.504C145.368 288.903 145.238 288.849 145.142 288.752C145.045 288.656 144.991 288.526 144.991 288.39V259.845C144.991 259.709 145.045 259.579 145.142 259.482C145.238 259.386 145.368 259.332 145.504 259.332H159.168L166.292 266.444Z" fill="white"/>
</g>
<path d="M159.156 259.332V265.943C159.156 266.079 159.21 266.21 159.307 266.306C159.403 266.402 159.533 266.456 159.669 266.456H166.268L159.156 259.332Z" fill="#189E98"/>
<path d="M159.156 259.332V265.943C159.156 266.079 159.21 266.21 159.307 266.306C159.403 266.402 159.533 266.456 159.669 266.456H166.268L159.156 259.332Z" fill="white"/>
<path d="M163.886 270.356L147.526 270.436C147.269 270.437 147.062 270.647 147.063 270.904L147.064 271.047C147.065 271.304 147.274 271.511 147.531 271.51L163.892 271.43C164.149 271.429 164.356 271.22 164.355 270.963L164.354 270.819C164.353 270.562 164.143 270.355 163.886 270.356Z" fill="#189E98"/>
<path d="M163.909 274.76L147.548 274.84C147.291 274.841 147.084 275.05 147.085 275.307L147.086 275.45C147.087 275.707 147.297 275.915 147.554 275.913L163.914 275.834C164.171 275.832 164.378 275.623 164.377 275.366L164.376 275.223C164.375 274.966 164.166 274.758 163.909 274.76Z" fill="#189E98"/>
<path d="M163.919 279.165L147.559 279.245C147.302 279.246 147.095 279.455 147.096 279.712L147.097 279.856C147.098 280.113 147.307 280.32 147.564 280.319L163.925 280.239C164.182 280.238 164.389 280.028 164.388 279.771L164.387 279.628C164.386 279.371 164.176 279.164 163.919 279.165Z" fill="#189E98"/>
<path d="M155.457 283.579L147.534 283.663C147.473 283.663 147.413 283.675 147.357 283.698C147.302 283.722 147.251 283.756 147.209 283.8C147.166 283.843 147.133 283.894 147.111 283.951C147.089 284.007 147.079 284.067 147.08 284.128V284.271C147.08 284.395 147.129 284.513 147.217 284.6C147.304 284.688 147.422 284.737 147.546 284.737L155.457 284.653C155.581 284.653 155.699 284.604 155.786 284.517C155.874 284.429 155.923 284.311 155.923 284.188V284.021C155.914 283.902 155.861 283.792 155.775 283.71C155.689 283.628 155.576 283.582 155.457 283.579Z" fill="#189E98"/>
<path d="M214.217 160.654H191.102C183.832 160.654 177.939 166.547 177.939 173.817V196.931C177.939 204.201 183.832 210.094 191.102 210.094H214.217C221.486 210.094 227.379 204.201 227.379 196.931V173.817C227.379 166.547 221.486 160.654 214.217 160.654Z" fill="#1C4A9D"/>
<path opacity="0.6" d="M214.217 160.654H191.102C183.832 160.654 177.939 166.547 177.939 173.817V196.931C177.939 204.201 183.832 210.094 191.102 210.094H214.217C221.486 210.094 227.379 204.201 227.379 196.931V173.817C227.379 166.547 221.486 160.654 214.217 160.654Z" fill="white"/>
<path d="M211.448 167.624H194.252C192.729 167.624 191.495 168.858 191.495 170.381V199.557C191.495 201.08 192.729 202.314 194.252 202.314H211.448C212.97 202.314 214.204 201.08 214.204 199.557V170.381C214.204 168.858 212.97 167.624 211.448 167.624Z" fill="white"/>
<path d="M210.504 196.049L208.32 196.442L208.857 194.294L220.098 183.781C220.213 183.673 220.348 183.589 220.496 183.533C220.643 183.478 220.801 183.452 220.958 183.458C221.116 183.463 221.271 183.5 221.414 183.566C221.557 183.632 221.686 183.725 221.793 183.841C221.905 183.952 221.994 184.084 222.054 184.229C222.115 184.375 222.146 184.531 222.146 184.688C222.146 184.846 222.115 185.002 222.054 185.147C221.994 185.293 221.905 185.424 221.793 185.535L210.504 196.049Z" fill="#1C4A9D"/>
<path d="M200.934 198.625C200.732 198.631 200.53 198.596 200.342 198.522C200.153 198.448 199.981 198.337 199.836 198.196C199.547 197.84 199.388 197.396 199.388 196.937C199.388 196.478 199.547 196.033 199.836 195.678C200.436 194.689 201.252 193.848 202.223 193.22C202.714 192.882 203.265 192.639 203.846 192.504C203.752 192.307 203.613 192.135 203.44 192.002C202.557 191.322 201.161 191.895 200.218 192.599C198.589 193.836 197.347 195.513 196.638 197.432C196.579 197.58 196.466 197.699 196.322 197.766C196.177 197.832 196.013 197.841 195.863 197.79C195.789 197.762 195.721 197.72 195.663 197.666C195.606 197.612 195.56 197.547 195.527 197.475C195.495 197.402 195.478 197.325 195.476 197.246C195.474 197.167 195.488 197.088 195.516 197.014C196.322 194.873 197.721 193.006 199.55 191.632C200.875 190.654 202.796 189.974 204.192 191.048C204.662 191.414 204.998 191.926 205.147 192.504C205.663 192.599 206.132 192.87 206.473 193.269C206.814 193.669 207.007 194.174 207.02 194.699C206.985 195.167 206.842 195.621 206.602 196.024C206.602 196.131 206.495 196.239 206.447 196.346C206.374 196.467 206.329 196.603 206.317 196.744C206.304 196.884 206.325 197.026 206.376 197.158C206.47 197.22 206.58 197.253 206.692 197.253C206.804 197.253 206.914 197.22 207.008 197.158C207.338 196.903 207.61 196.582 207.808 196.215C207.894 196.083 208.027 195.989 208.181 195.953C208.334 195.918 208.496 195.943 208.631 196.024C208.764 196.11 208.857 196.244 208.891 196.399C208.924 196.553 208.895 196.714 208.81 196.847C208.525 197.382 208.116 197.84 207.617 198.184C207.286 198.399 206.89 198.492 206.498 198.446C206.105 198.4 205.742 198.219 205.469 197.933C205.255 197.636 205.131 197.283 205.112 196.917C205.093 196.551 205.179 196.187 205.361 195.869C205.361 195.749 205.469 195.63 205.529 195.511C205.686 195.256 205.792 194.972 205.839 194.675C205.827 194.492 205.765 194.314 205.66 194.163C205.555 194.012 205.41 193.892 205.242 193.816C205.206 194.156 205.126 194.489 205.003 194.807C204.491 195.898 203.746 196.863 202.82 197.635C202.487 198.005 202.08 198.302 201.626 198.506C201.404 198.586 201.17 198.626 200.934 198.625ZM204.061 193.697C203.635 193.8 203.231 193.978 202.867 194.222C202.039 194.751 201.342 195.461 200.827 196.298C200.6 196.68 200.445 197.17 200.624 197.349C200.707 197.391 200.799 197.414 200.892 197.414C200.986 197.414 201.078 197.391 201.161 197.349C201.462 197.19 201.732 196.98 201.96 196.728C202.751 196.072 203.397 195.26 203.858 194.341C203.956 194.137 204.024 193.92 204.061 193.697Z" fill="#1C4A9D"/>
<path d="M211.02 171.988L194.66 172.068C194.403 172.069 194.195 172.279 194.197 172.536L194.197 172.679C194.199 172.936 194.408 173.143 194.665 173.142L211.025 173.062C211.282 173.061 211.49 172.851 211.488 172.594L211.488 172.451C211.486 172.194 211.277 171.987 211.02 171.988Z" fill="#1C4A9D"/>
<path d="M211.042 176.39L194.681 176.47C194.424 176.472 194.217 176.681 194.218 176.938L194.219 177.081C194.22 177.338 194.429 177.546 194.686 177.544L211.047 177.464C211.304 177.463 211.511 177.254 211.51 176.997L211.509 176.854C211.508 176.597 211.299 176.389 211.042 176.39Z" fill="#1C4A9D"/>
<path d="M211.063 180.794L194.703 180.874C194.446 180.875 194.238 181.084 194.24 181.341L194.24 181.485C194.242 181.742 194.451 181.949 194.708 181.948L211.068 181.868C211.325 181.866 211.533 181.657 211.531 181.4L211.531 181.257C211.529 181 211.32 180.792 211.063 180.794Z" fill="#1C4A9D"/>
<path d="M202.606 185.212L194.682 185.295C194.622 185.295 194.562 185.308 194.506 185.331C194.45 185.355 194.399 185.389 194.357 185.432C194.315 185.476 194.282 185.527 194.26 185.584C194.238 185.64 194.227 185.7 194.229 185.761V185.904C194.229 186.027 194.278 186.146 194.365 186.233C194.452 186.32 194.571 186.369 194.694 186.369L202.606 186.286C202.666 186.286 202.726 186.274 202.782 186.25C202.838 186.227 202.889 186.192 202.931 186.149C202.973 186.106 203.006 186.054 203.028 185.998C203.05 185.941 203.061 185.881 203.059 185.821V185.677C203.061 185.617 203.05 185.557 203.028 185.5C203.006 185.444 202.973 185.392 202.931 185.349C202.889 185.306 202.838 185.271 202.782 185.248C202.726 185.224 202.666 185.212 202.606 185.212Z" fill="#1C4A9D"/>
<path d="M390.855 11.9531H367.741C360.471 11.9531 354.578 17.8461 354.578 25.1155V48.2303C354.578 55.4997 360.471 61.3927 367.741 61.3927H390.855C398.125 61.3927 404.018 55.4997 404.018 48.2303V25.1155C404.018 17.8461 398.125 11.9531 390.855 11.9531Z" fill="#1C4A9D"/>
<path opacity="0.6" d="M390.855 11.9531H367.741C360.471 11.9531 354.578 17.8461 354.578 25.1155V48.2303C354.578 55.4997 360.471 61.3927 367.741 61.3927H390.855C398.125 61.3927 404.018 55.4997 404.018 48.2303V25.1155C404.018 17.8461 398.125 11.9531 390.855 11.9531Z" fill="white"/>
<path d="M379.482 19.4355C377.992 19.4355 376.516 19.7291 375.139 20.2994C373.763 20.8697 372.512 21.7057 371.458 22.7595C370.404 23.8133 369.568 25.0643 368.998 26.4412C368.427 27.8181 368.134 29.2938 368.134 30.7841C368.134 37.061 379.482 53.0277 379.482 53.0277C379.482 53.0277 390.831 37.061 390.831 30.7841C390.831 29.2938 390.537 27.8181 389.967 26.4412C389.397 25.0643 388.561 23.8133 387.507 22.7595C386.453 21.7057 385.202 20.8697 383.825 20.2994C382.448 19.7291 380.973 19.4355 379.482 19.4355ZM379.578 36.2376C378.516 36.2352 377.479 35.9183 376.598 35.3268C375.716 34.7353 375.03 33.8958 374.625 32.9144C374.221 31.9329 374.116 30.8536 374.324 29.8127C374.533 28.7718 375.045 27.8161 375.797 27.0663C376.548 26.3165 377.505 25.8062 378.546 25.6C379.588 25.3937 380.667 25.5008 381.648 25.9076C382.628 26.3144 383.466 27.0026 384.056 27.8855C384.645 28.7683 384.96 29.8061 384.96 30.8676C384.96 31.5738 384.82 32.2731 384.55 32.9254C384.279 33.5777 383.883 34.1702 383.383 34.669C382.883 35.1678 382.289 35.5631 381.636 35.8323C380.984 36.1014 380.284 36.2392 379.578 36.2376Z" fill="#1C4A9D"/>
<path d="M469.935 65.1299H446.844C439.587 65.1299 433.705 71.0122 433.705 78.2684V101.359C433.705 108.616 439.587 114.498 446.844 114.498H469.935C477.191 114.498 483.073 108.616 483.073 101.359V78.2684C483.073 71.0122 477.191 65.1299 469.935 65.1299Z" fill="#1C4A9D"/>
<path d="M469.935 65.1299H446.844C439.587 65.1299 433.705 71.0122 433.705 78.2684V101.359C433.705 108.616 439.587 114.498 446.844 114.498H469.935C477.191 114.498 483.073 108.616 483.073 101.359V78.2684C483.073 71.0122 477.191 65.1299 469.935 65.1299Z" fill="#1C4A9D"/>
<path d="M463.92 81.9559V88.913C463.92 90.296 463.37 91.6224 462.392 92.6004C461.414 93.5784 460.088 94.1278 458.705 94.1278H452.07L444.492 101.705V94.1278C443.109 94.1278 441.783 93.5784 440.805 92.6004C439.827 91.6224 439.277 90.296 439.277 88.913V81.9559C439.281 80.5749 439.831 79.2515 440.809 78.2761C441.787 77.3007 443.111 76.7529 444.492 76.7529H458.705C459.389 76.7514 460.067 76.8848 460.699 77.1456C461.332 77.4063 461.907 77.7893 462.391 78.2726C462.876 78.7559 463.26 79.33 463.522 79.962C463.785 80.594 463.92 81.2716 463.92 81.9559Z" fill="white"/>
<path d="M443.896 103.148V94.6877C442.479 94.5239 441.17 93.8452 440.22 92.7805C439.27 91.7157 438.743 90.3391 438.741 88.912V81.9548C438.744 80.4156 439.358 78.9405 440.448 77.8532C441.537 76.7659 443.013 76.1553 444.553 76.1553H458.765C460.304 76.1553 461.781 76.7659 462.87 77.8532C463.96 78.9405 464.574 80.4156 464.577 81.9548V88.912C464.574 90.4523 463.96 91.9286 462.871 93.0178C461.782 94.107 460.306 94.7203 458.765 94.7235H452.381L443.896 103.148ZM444.493 77.3486C443.27 77.3486 442.097 77.8335 441.232 78.697C440.366 79.5605 439.878 80.7321 439.875 81.9548V88.912C439.878 90.1358 440.366 91.3086 441.231 92.174C442.096 93.0394 443.269 93.527 444.493 93.5301H445.09V100.249L451.832 93.5182H458.706C459.93 93.5182 461.105 93.0316 461.971 92.1656C462.837 91.2995 463.324 90.1248 463.324 88.9V81.9429C463.324 81.337 463.204 80.7371 462.972 80.1774C462.74 79.6178 462.399 79.1095 461.97 78.6816C461.541 78.2537 461.032 77.9147 460.472 77.6839C459.912 77.4531 459.312 77.3351 458.706 77.3367L444.493 77.3486Z" fill="#1C4A9D"/>
<path d="M477.512 92.4451V97.7912C477.512 98.8546 477.089 99.8745 476.338 100.626C475.586 101.378 474.566 101.801 473.502 101.801V107.636L467.667 101.801H462.607C461.544 101.801 460.524 101.378 459.772 100.626C459.02 99.8745 458.598 98.8546 458.598 97.7912V92.4451C458.601 91.3827 459.024 90.3647 459.776 89.6134C460.527 88.8621 461.545 88.4387 462.607 88.4355H473.55C474.604 88.4512 475.61 88.8801 476.351 89.6301C477.092 90.38 477.509 91.3909 477.512 92.4451Z" fill="white"/>
<path d="M474.099 109.08L467.416 102.397H462.607C461.386 102.397 460.214 101.912 459.35 101.048C458.486 100.184 458.001 99.0129 458.001 97.7912V92.4451C458.001 91.2235 458.486 90.0518 459.35 89.188C460.214 88.3242 461.386 87.8389 462.607 87.8389H473.55C474.772 87.8389 475.943 88.3242 476.807 89.188C477.671 90.0518 478.156 91.2235 478.156 92.4451V97.7912C478.154 98.9093 477.747 99.9888 477.01 100.829C476.272 101.67 475.255 102.214 474.147 102.362L474.099 109.08ZM462.607 89.0322C461.702 89.0322 460.834 89.3918 460.194 90.0318C459.554 90.6718 459.194 91.54 459.194 92.4451V97.7912C459.194 98.2394 459.283 98.6832 459.454 99.0973C459.626 99.5113 459.877 99.8876 460.194 100.205C460.511 100.521 460.887 100.773 461.301 100.944C461.715 101.116 462.159 101.204 462.607 101.204H467.965L472.953 106.192V101.204H473.55C474.454 101.201 475.32 100.84 475.96 100.201C476.599 99.5617 476.96 98.6954 476.963 97.7912V92.4451C476.96 91.5409 476.599 90.6746 475.96 90.0353C475.32 89.3959 474.454 89.0353 473.55 89.0322H462.607Z" fill="#1C4A9D"/>
<path d="M458.407 82.3506H445.543C445.385 82.3506 445.233 82.2877 445.121 82.1758C445.009 82.0639 444.946 81.9121 444.946 81.7539C444.946 81.5956 445.009 81.4439 445.121 81.332C445.233 81.2201 445.385 81.1572 445.543 81.1572H458.407C458.565 81.1572 458.717 81.2201 458.829 81.332C458.941 81.4439 459.004 81.5956 459.004 81.7539C459.004 81.9121 458.941 82.0639 458.829 82.1758C458.717 82.2877 458.565 82.3506 458.407 82.3506Z" fill="#1C4A9D"/>
<path d="M458.407 85.4052H445.543C445.385 85.4052 445.233 85.3424 445.121 85.2305C445.009 85.1186 444.946 84.9668 444.946 84.8086C444.946 84.6503 445.009 84.4986 445.121 84.3867C445.233 84.2748 445.385 84.2119 445.543 84.2119H458.407C458.565 84.2119 458.717 84.2748 458.829 84.3867C458.941 84.4986 459.004 84.6503 459.004 84.8086C459.004 84.9668 458.941 85.1186 458.829 85.2305C458.717 85.3424 458.565 85.4052 458.407 85.4052Z" fill="#1C4A9D"/>
<path d="M454.839 88.3994H445.543C445.385 88.3994 445.233 88.3365 445.121 88.2246C445.009 88.1127 444.946 87.961 444.946 87.8027C444.946 87.6445 445.009 87.4927 445.121 87.3808C445.233 87.2689 445.385 87.2061 445.543 87.2061H454.839C454.996 87.2091 455.146 87.2729 455.257 87.3842C455.369 87.4954 455.433 87.6454 455.436 87.8027C455.436 87.961 455.373 88.1127 455.261 88.2246C455.149 88.3365 454.997 88.3994 454.839 88.3994Z" fill="#1C4A9D"/>
<path d="M443.467 149.532H420.352C413.082 149.532 407.189 155.425 407.189 162.695V185.809C407.189 193.079 413.082 198.972 420.352 198.972H443.467C450.736 198.972 456.629 193.079 456.629 185.809V162.695C456.629 155.425 450.736 149.532 443.467 149.532Z" fill="#189E98"/>
<path d="M450.675 177.516C450.675 178.053 450.675 179.903 450.568 180.44H412.799C412.799 180.178 412.799 178.555 412.799 178.28C412.798 176.17 413.584 174.135 415.002 172.573C416.421 171.011 418.371 170.033 420.472 169.831V169.461C420.481 167.092 421.335 164.804 422.88 163.008C424.425 161.212 426.56 160.026 428.902 159.664C431.243 159.302 433.637 159.786 435.653 161.031C437.669 162.276 439.174 164.199 439.899 166.454C440.492 166.471 441.082 166.531 441.665 166.633C444.204 167.105 446.496 168.453 448.142 170.442C449.789 172.431 450.685 174.935 450.675 177.516Z" fill="white"/>
<path d="M464.566 240.428H441.475C434.219 240.428 428.337 246.31 428.337 253.566V276.657C428.337 283.913 434.219 289.796 441.475 289.796H464.566C471.823 289.796 477.705 283.913 477.705 276.657V253.566C477.705 246.31 471.823 240.428 464.566 240.428Z" fill="#1C4A9D"/>
<g opacity="0.6">
<path d="M464.568 240.428H441.477C434.221 240.428 428.339 246.31 428.339 253.566V276.657C428.339 283.913 434.221 289.796 441.477 289.796H464.568C471.825 289.796 477.707 283.913 477.707 276.657V253.566C477.707 246.31 471.825 240.428 464.568 240.428Z" fill="white"/>
</g>
<path fill-rule="evenodd" clip-rule="evenodd" d="M468.051 260.142V274.342H437.991V260.022L452.717 269.617L468.051 260.142Z" fill="white"/>
<path fill-rule="evenodd" clip-rule="evenodd" d="M468.051 257.252V257.455L452.717 266.918L437.991 257.324V257.252H468.051Z" fill="white"/>
</svg>
