<svg width="348" height="76" viewBox="0 0 348 76" fill="none" xmlns="http://www.w3.org/2000/svg">
<g clip-path="url(#clip0_717_256)">
<path d="M106.98 17.3504C105.83 16.6604 104.57 16.1004 103.2 15.6504C101.83 15.2004 100.44 14.8304 99.04 14.5204C97.64 14.2204 96.36 13.9104 95.21 13.6104C94.06 13.3104 93.14 12.8804 92.44 12.3404C91.74 11.8004 91.39 11.0804 91.39 10.1804C91.39 9.48039 91.61 8.84039 92.04 8.26039C92.47 7.68039 93.15 7.23039 94.07 6.89039C94.99 6.55039 96.22 6.39039 97.75 6.39039C99.28 6.39039 100.75 6.61039 102.34 7.04039C103.93 7.47039 105.48 8.12039 106.98 8.98039L109.42 3.13039C107.89 2.17039 106.1 1.44039 104.04 0.920391C101.98 0.410391 99.9 0.150391 97.8 0.150391C94.64 0.150391 92.02 0.620391 89.93 1.56039C87.84 2.50039 86.29 3.77039 85.27 5.35039C84.25 6.93039 83.74 8.68039 83.74 10.6004C83.74 12.3604 84.08 13.8204 84.77 14.9904C85.46 16.1604 86.38 17.1004 87.54 17.8204C88.7 18.5404 89.98 19.1104 91.37 19.5504C92.76 19.9804 94.14 20.3504 95.51 20.6504C96.88 20.9504 98.15 21.2704 99.31 21.6104C100.47 21.9504 101.41 22.3804 102.11 22.9004C102.81 23.4304 103.16 24.1404 103.16 25.0304C103.16 25.7304 102.94 26.3504 102.49 26.8804C102.04 27.4104 101.35 27.8304 100.41 28.1504C99.47 28.4704 98.23 28.6304 96.7 28.6304C94.69 28.6304 92.7 28.3004 90.72 27.6504C88.74 27.0004 87.05 26.1604 85.65 25.1304L83.02 30.9804C84.52 32.1304 86.5 33.0704 88.97 33.7804C91.44 34.5004 94.02 34.8604 96.69 34.8604C99.85 34.8604 102.48 34.3804 104.58 33.4204C106.68 32.4604 108.25 31.2004 109.29 29.6304C110.33 28.0604 110.84 26.3404 110.84 24.4504C110.84 22.7204 110.48 21.2804 109.76 20.1104C109.04 18.9404 108.11 18.0204 106.96 17.3304L106.98 17.3504Z" fill="#1E1E1E"/>
<path d="M142.03 28.0605H123.81V20.2905H139.36V14.2005H123.81V6.96047H141.41V0.730469H116.11V34.3005H142.03V28.0605Z" fill="#1E1E1E"/>
<path d="M162.7 24.9005C162.82 24.9005 162.92 24.8905 163.03 24.8905L169.53 34.3005H177.85L170.39 23.5005C170.39 23.5005 170.42 23.4905 170.44 23.4805C172.61 22.5405 174.28 21.1605 175.46 19.3605C176.64 17.5505 177.23 15.3905 177.23 12.8605C177.23 10.3305 176.64 8.21047 175.46 6.39047C174.28 4.57047 172.61 3.17047 170.44 2.19047C168.27 1.22047 165.69 0.730469 162.69 0.730469H148.2V34.3005H156V24.9005H162.7ZM167.62 8.57047C168.83 9.58047 169.44 11.0105 169.44 12.8605C169.44 14.7105 168.83 16.1505 167.62 17.1805C166.41 18.2005 164.62 18.7105 162.26 18.7105H155.99V7.06047H162.26C164.62 7.06047 166.4 7.56047 167.62 8.57047Z" fill="#1E1E1E"/>
<path d="M201.1 34.3005L215.59 0.730469H207.89L197.55 24.7005L187.37 0.730469H178.96L193.45 34.3005H201.1Z" fill="#1E1E1E"/>
<path d="M226.88 0.730469H219.08V34.3005H226.88V0.730469Z" fill="#1E1E1E"/>
<path d="M237.83 29.9807C239.46 31.5507 241.38 32.7507 243.59 33.6007C245.81 34.4507 248.21 34.8707 250.79 34.8707C253.72 34.8707 256.37 34.3607 258.73 33.3407C261.09 32.3207 263.07 30.8307 264.66 28.8807L259.64 24.2807C258.52 25.5907 257.26 26.5907 255.84 27.2807C254.42 27.9707 252.88 28.3107 251.23 28.3107C249.67 28.3107 248.23 28.0507 246.93 27.5207C245.62 26.9907 244.49 26.2507 243.53 25.2907C242.57 24.3307 241.83 23.2007 241.31 21.8907C240.78 20.5807 240.52 19.1307 240.52 17.5307C240.52 15.9307 240.78 14.4807 241.31 13.1707C241.84 11.8607 242.58 10.7207 243.53 9.77066C244.49 8.81066 245.62 8.07066 246.93 7.54066C248.24 7.01066 249.67 6.75066 251.23 6.75066C252.89 6.75066 254.43 7.09066 255.84 7.76066C257.26 8.43066 258.53 9.42066 259.64 10.7307L264.66 6.13066C263.07 4.18066 261.09 2.70066 258.73 1.69066C256.37 0.680664 253.74 0.180664 250.84 0.180664C248.26 0.180664 245.86 0.600664 243.64 1.45066C241.42 2.30066 239.49 3.50066 237.85 5.07066C236.21 6.64066 234.93 8.47066 234.02 10.5807C233.11 12.6907 232.66 15.0107 232.66 17.5307C232.66 20.0507 233.11 22.3707 234.02 24.4807C234.93 26.5907 236.2 28.4307 237.82 29.9907L237.83 29.9807Z" fill="#1E1E1E"/>
<path d="M295.7 28.0605H277.47V20.2905H293.02V14.2005H277.47V6.96047H295.07V0.730469H269.77V34.3005H295.7V28.0605Z" fill="#1E1E1E"/>
<path d="M86.95 59.35H104.79V57.19H86.95V43.95H106.89V41.75H84.51V75.31H107.61V73.11H86.95V59.35Z" fill="#1E1E1E"/>
<path d="M148.5 41.75L133.56 67.7L118.56 41.75H116.51V75.31H118.9V46.68L132.91 70.85H134.11L148.12 46.6L148.17 75.31H150.56L150.51 41.75H148.5Z" fill="#1E1E1E"/>
<path d="M181.45 43.09C179.44 42.2 177.03 41.75 174.23 41.75H162.23V75.32H164.67V64.34H174.23C177.04 64.34 179.44 63.89 181.45 63C183.46 62.11 185 60.81 186.09 59.12C187.17 57.43 187.72 55.41 187.72 53.08C187.72 50.75 187.18 48.64 186.09 46.97C185.01 45.29 183.46 44.01 181.45 43.11V43.09ZM182.43 59.75C180.56 61.33 177.83 62.12 174.23 62.12H164.67V43.95H174.23C177.83 43.95 180.57 44.74 182.43 46.32C184.3 47.9 185.23 50.15 185.23 53.06C185.23 55.97 184.3 58.17 182.43 59.75Z" fill="#1E1E1E"/>
<path d="M223.06 46.3507C221.5 44.8207 219.66 43.6307 217.54 42.7807C215.42 41.9307 213.12 41.5107 210.63 41.5107C208.14 41.5107 205.84 41.9307 203.72 42.7807C201.6 43.6307 199.75 44.8307 198.17 46.3807C196.59 47.9307 195.37 49.7407 194.51 51.8007C193.65 53.8607 193.22 56.1107 193.22 58.5407C193.22 60.9707 193.65 63.2207 194.51 65.2807C195.37 67.3407 196.59 69.1507 198.17 70.7007C199.75 72.2507 201.6 73.4507 203.72 74.3007C205.84 75.1507 208.14 75.5707 210.63 75.5707C213.12 75.5707 215.42 75.1507 217.54 74.3007C219.66 73.4507 221.5 72.2607 223.06 70.7307C224.62 69.2007 225.84 67.4007 226.72 65.3407C227.6 63.2807 228.04 61.0207 228.04 58.5607C228.04 56.1007 227.6 53.8407 226.72 51.7707C225.84 49.7107 224.62 47.9107 223.06 46.3807V46.3507ZM224.42 64.3807C223.67 66.1707 222.63 67.7407 221.29 69.0807C219.95 70.4207 218.37 71.4607 216.56 72.2007C214.74 72.9407 212.77 73.3007 210.63 73.3007C208.49 73.3007 206.52 72.9307 204.7 72.2007C202.88 71.4607 201.3 70.4307 199.94 69.0807C198.58 67.7407 197.53 66.1707 196.78 64.3807C196.03 62.5907 195.66 60.6407 195.66 58.5307C195.66 56.4207 196.03 54.4307 196.78 52.6607C197.53 50.8907 198.58 49.3307 199.94 47.9807C201.29 46.6407 202.88 45.6007 204.7 44.8607C206.52 44.1307 208.49 43.7607 210.63 43.7607C212.77 43.7607 214.74 44.1307 216.56 44.8607C218.38 45.6007 219.96 46.6307 221.29 47.9807C222.63 49.3207 223.67 50.8807 224.42 52.6607C225.17 54.4307 225.54 56.3907 225.54 58.5307C225.54 60.6707 225.17 62.5907 224.42 64.3807Z" fill="#1E1E1E"/>
<path d="M268.59 72.01L258.17 41.75H255.82L245.33 71.94L235.16 41.75H232.58L243.96 75.31H246.54L256.95 45.19L267.35 75.31H269.93L281.27 41.75H278.87L268.59 72.01Z" fill="#1E1E1E"/>
<path d="M291.45 59.35H309.29V57.19H291.45V43.95H311.4V41.75H289.01V75.31H312.11V73.11H291.45V59.35Z" fill="#1E1E1E"/>
<path d="M347.02 75.3107L338.63 63.5707C339.19 63.4007 339.72 63.2007 340.23 62.9707C342.24 62.0607 343.78 60.7607 344.87 59.0907C345.95 57.4107 346.5 55.4107 346.5 53.0707C346.5 50.7307 345.96 48.6307 344.87 46.9607C343.79 45.2807 342.24 44.0007 340.23 43.1007C338.22 42.2107 335.81 41.7607 333.01 41.7607H321.01V75.3307H323.45V64.3507H333.01C334.15 64.3507 335.21 64.2507 336.23 64.1007L344.25 75.3307H347.02V75.3107ZM323.45 62.1807V43.9607H333.01C336.61 43.9607 339.35 44.7507 341.21 46.3307C343.08 47.9107 344.01 50.1607 344.01 53.0707C344.01 55.9807 343.08 58.1907 341.21 59.7807C339.35 61.3807 336.61 62.1807 333.01 62.1807H323.45Z" fill="#1E1E1E"/>
<path d="M72.79 75.55H19.47C8.74 75.55 0 66.82 0 56.08V19.47C0 8.73 8.73 0 19.47 0H53.32C64.05 0 72.79 8.73 72.79 19.47V75.56V75.55ZM19.47 3.58C10.71 3.58 3.59 10.71 3.59 19.46V56.08C3.59 64.84 10.72 71.96 19.47 71.96H69.2V19.47C69.2 10.71 62.07 3.59 53.32 3.59H19.47V3.58Z" fill="#0081C3"/>
<path d="M22.99 52.2395C20.86 52.2395 18.84 51.8795 16.94 51.1495C15.04 50.4195 13.57 49.4795 12.53 48.3295L13.47 46.7695C14.45 47.7795 15.8 48.6395 17.51 49.3395C19.22 50.0395 21.03 50.3895 22.95 50.3895C24.87 50.3895 26.43 50.1395 27.65 49.6295C28.87 49.1195 29.77 48.4395 30.36 47.5895C30.95 46.7395 31.24 45.7895 31.24 44.7495C31.24 43.5195 30.91 42.5295 30.26 41.7895C29.6 41.0495 28.74 40.4595 27.67 40.0195C26.6 39.5795 25.44 39.2095 24.18 38.9095C22.92 38.6095 21.65 38.2895 20.36 37.9395C19.07 37.5995 17.9 37.1495 16.83 36.5995C15.76 36.0495 14.91 35.2995 14.27 34.3595C13.63 33.4095 13.31 32.1895 13.31 30.6795C13.31 29.3095 13.67 28.0495 14.38 26.8895C15.09 25.7395 16.2 24.8095 17.7 24.0895C19.2 23.3795 21.13 23.0195 23.49 23.0195C25.08 23.0195 26.64 23.2495 28.19 23.7195C29.74 24.1895 31.06 24.8195 32.15 25.6095L31.37 27.2995C30.17 26.4795 28.87 25.8695 27.49 25.4695C26.11 25.0695 24.77 24.8695 23.49 24.8695C21.66 24.8695 20.14 25.1295 18.94 25.6495C17.74 26.1695 16.85 26.8595 16.27 27.7295C15.7 28.5895 15.41 29.5595 15.41 30.6295C15.41 31.8595 15.73 32.8495 16.37 33.5895C17.01 34.3295 17.87 34.9195 18.93 35.3595C20 35.7995 21.17 36.1695 22.46 36.4695C23.75 36.7695 25.02 37.0895 26.28 37.4395C27.54 37.7795 28.7 38.2295 29.77 38.7795C30.84 39.3295 31.7 40.0695 32.36 40.9995C33.02 41.9295 33.34 43.1395 33.34 44.6195C33.34 45.9595 32.97 47.2195 32.23 48.3795C31.49 49.5495 30.36 50.4795 28.84 51.1795C27.32 51.8795 25.37 52.2295 22.99 52.2295V52.2395Z" fill="#0081C3"/>
<path d="M42.5299 50.1395H60.2599V52.0295H40.4399V23.2295H59.6399V25.1195H42.5299V50.1295V50.1395ZM42.2799 36.4795H57.8299V38.3295H42.2799V36.4795Z" fill="#0081C3"/>
</g>
<defs>
<clipPath id="clip0_717_256">
<rect width="347.02" height="75.55" fill="white"/>
</clipPath>
</defs>
</svg>
