<svg width="302" height="63" viewBox="0 0 302 63" fill="none" xmlns="http://www.w3.org/2000/svg">
<path d="M8.56566 46.5194C10.8768 44.6185 13.2158 42.6209 15.5828 40.5267C17.8939 38.4876 19.9159 36.6415 21.6488 34.9883C23.3816 33.3352 24.8262 31.7372 25.9825 30.1945C27.1376 28.6506 28.0044 27.1214 28.5829 25.6067C29.1614 24.092 29.4503 22.4252 29.4496 20.6063C29.4496 18.2362 28.7754 16.2935 27.427 14.7783C26.0786 13.2631 24.2492 12.5061 21.9388 12.5074C19.1871 12.5074 17.0271 13.1274 15.4588 14.3675C13.8905 15.6076 12.7211 17.9627 11.9505 21.4327L0.723145 20.1097C1.2012 17.7952 1.92067 15.5373 2.86973 13.3733C3.78844 11.2765 5.09031 9.37014 6.70834 7.75221C8.33174 6.12666 10.3816 4.84543 12.8581 3.90852C15.3345 2.9716 18.3888 2.5034 22.0211 2.50391C28.4055 2.50391 33.2485 4.07441 36.5501 7.21542C39.8518 10.3564 41.5027 14.6271 41.503 20.0274C41.503 22.3415 41.2141 24.4768 40.6363 26.4331C40.0585 28.3895 39.1917 30.3044 38.0359 32.178C36.8801 34.0508 35.408 35.9382 33.6195 37.8401C31.8311 39.742 29.6987 41.7949 27.2222 43.9987C25.9009 45.1009 24.5662 46.2029 23.2183 47.3049C21.8704 48.4068 20.4258 49.6741 18.8846 51.1068H42.3283L41.0901 61.1915H1.54773V52.5122C3.91497 50.4182 6.25428 48.4206 8.56566 46.5194Z" fill="#012F6D"/>
<path d="M59.7643 2.17285V24.9883H83.1262V2.17285H95.4264V61.1915H83.1262V36.3937H59.7643V61.1915H47.4648V2.17285H59.7643Z" fill="#012F6D"/>
<path d="M162.601 50.1566C163.233 51.7821 164.113 53.1867 165.242 54.3704C166.371 55.5541 167.816 56.4905 169.576 57.1796C171.337 57.869 173.511 58.2135 176.097 58.213C181.379 58.213 185.053 56.7803 187.118 53.9149C189.183 51.0495 190.215 46.9715 190.213 41.6811V2.17285H195.249V42.1803C195.249 49.0677 193.584 54.2062 190.254 57.5957C186.925 60.9852 182.261 62.6798 176.263 62.6792C170.704 62.6792 166.151 61.2465 162.601 58.3811C159.051 55.5157 156.891 51.0245 156.121 44.9075H161.239C161.514 46.7813 161.968 48.531 162.601 50.1566Z" fill="#1E1E1E"/>
<path d="M217.266 60.7375C213.992 59.4423 211.171 57.4997 208.805 54.9099C206.438 52.3201 204.58 49.0965 203.232 45.239C201.883 41.3815 201.209 36.9179 201.209 31.8481C201.209 26.7784 201.883 22.301 203.232 18.4159C204.579 14.5311 206.45 11.2798 208.844 8.66221C211.239 6.04457 214.059 4.06078 217.306 2.71084C220.553 1.36064 224.075 0.685547 227.873 0.685547C231.67 0.685547 235.192 1.33293 238.439 2.6277C241.686 3.92298 244.479 5.86552 246.817 8.45531C249.156 11.0451 251 14.2551 252.348 18.0852C253.697 21.9151 254.371 26.365 254.371 31.4347C254.371 36.5596 253.71 41.0645 252.39 44.9493C251.069 48.8342 249.239 52.0854 246.9 54.703C244.561 57.3209 241.768 59.3047 238.521 60.6544C235.275 62.0041 231.725 62.6792 227.873 62.6797C224.076 62.6797 220.541 62.0323 217.266 60.7375ZM237.037 56.2739C239.649 55.003 241.925 53.134 243.682 50.8183C245.471 48.4763 246.819 45.6797 247.727 42.4286C248.635 39.1775 249.089 35.5955 249.089 31.6826C249.089 27.7702 248.621 24.1883 247.686 20.937C246.751 17.6856 245.388 14.8886 243.599 12.5458C241.842 10.23 239.566 8.36104 236.954 7.09019C234.312 5.79567 231.285 5.14828 227.873 5.14803C224.296 5.14803 221.172 5.79541 218.503 7.09019C215.834 8.38496 213.62 10.2035 211.859 12.5458C210.098 14.8878 208.763 17.6844 207.855 20.9355C206.947 24.1866 206.493 27.7689 206.494 31.6826C206.494 35.595 206.934 39.177 207.814 42.4286C208.694 45.6802 210.029 48.4768 211.818 50.8183C213.606 53.1606 215.835 54.9791 218.504 56.2739C221.173 57.5687 224.296 58.2156 227.874 58.2146C231.341 58.2146 234.395 57.5677 237.037 56.2739Z" fill="#1E1E1E"/>
<path d="M279.403 2.17285C283.53 2.17285 286.901 2.55868 289.515 3.33033C292.13 4.10197 294.207 5.16264 295.748 6.51233C297.29 7.86253 298.349 9.41899 298.926 11.1817C299.503 12.9444 299.792 14.8181 299.793 16.8028C299.793 19.7783 299.105 22.3682 297.729 24.5726C296.353 26.7769 294.042 28.5679 290.795 29.9454C292.886 30.6621 294.634 31.5301 296.037 32.5492C297.441 33.5684 298.569 34.7118 299.422 35.9795C300.265 37.2247 300.88 38.6101 301.238 40.0711C301.594 41.5184 301.774 43.0033 301.774 44.4937C301.774 46.8079 301.416 48.9844 300.701 51.0233C299.986 53.0621 298.802 54.8392 297.151 56.3547C295.5 57.8707 293.354 59.0556 290.713 59.9095C288.071 60.7634 284.824 61.1904 280.972 61.1904H260.747V2.17285H279.403ZM291.332 25.276C293.67 23.4298 294.84 20.6883 294.84 17.0515C294.84 13.4147 293.671 10.7558 291.332 9.0748C288.993 7.39433 284.961 6.55397 279.238 6.55371H265.701V28.045H280.146C285.264 28.045 288.993 27.122 291.332 25.276ZM288.526 55.9014C290.535 55.3502 292.131 54.5649 293.315 53.5455C294.498 52.5261 295.323 51.286 295.791 49.8252C296.258 48.3649 296.492 46.7254 296.492 44.9068C296.492 40.8843 295.282 37.8259 292.86 35.7316C290.438 33.6374 286.504 32.5906 281.056 32.5914H265.701V56.7279H280.808C283.944 56.7279 286.516 56.4524 288.524 55.9014H288.526Z" fill="#1E1E1E"/>
<path d="M131.861 2.45898H120.182L98.1396 61.2616H110.806L115.494 47.673L118.619 37.5431L125.693 16.4599L132.848 37.5431L136.056 47.673L140.744 61.2616H153.904L131.861 2.45898Z" fill="#012F6D"/>
<path d="M125.584 27.5898C123.006 35.3987 120.428 43.2075 117.85 51.0161C117.85 51.0161 123.105 57.8493 125.733 61.2659C128.362 57.8493 130.989 54.4327 133.617 51.0161C130.938 43.2072 128.261 35.3985 125.584 27.5898Z" fill="#206BBC"/>
<path d="M120.188 2.45898H131.861C129.805 7.12583 127.748 11.7927 125.692 16.4595C123.857 11.7924 122.023 7.12558 120.188 2.45898Z" fill="#206BBC"/>
</svg>
