<svg width="250" height="142" viewBox="0 0 219 111" fill="none" xmlns="http://www.w3.org/2000/svg">
<g clip-path="url(#clip0_246_384)">
<path d="M78.0687 70.5109C77.5226 70.5249 76.9848 70.375 76.5238 70.0803C76.0628 69.7855 75.6997 69.3592 75.4807 68.8559C75.2618 68.3526 75.1969 67.795 75.2945 67.2545C75.3921 66.7139 75.6477 66.2149 76.0286 65.8211L98.8861 42.1211C99.397 41.6321 100.075 41.3594 100.781 41.3594C101.486 41.3594 102.164 41.6321 102.675 42.1211C103.171 42.6298 103.449 43.3139 103.449 44.0263C103.449 44.7387 103.171 45.4227 102.675 45.9315L83.9808 65.1511L135.108 64.858L75.9453 5.10546C75.4429 4.60017 75.1606 3.91483 75.1606 3.20024C75.1606 2.48565 75.4429 1.80033 75.9453 1.29503C76.4478 0.789738 77.1292 0.505859 77.8397 0.505859C78.5502 0.505859 79.2317 0.789738 79.7341 1.29503L143.519 65.4443C143.901 65.8324 144.161 66.3261 144.265 66.8627C144.369 67.3994 144.312 67.9549 144.102 68.4591C143.889 68.9536 143.542 69.3774 143.1 69.6812C142.657 69.9851 142.139 70.1567 141.603 70.1759L78.0687 70.5109Z" fill="#189E98"/>
<path d="M142.103 48.6524C141.757 48.6574 141.413 48.5934 141.091 48.464C140.77 48.3347 140.477 48.1425 140.23 47.8987L99.4274 6.69584C99.1288 6.18632 99.0062 5.59178 99.0787 5.00486C99.1511 4.41795 99.4146 3.87163 99.8281 3.45105C100.242 3.03047 100.782 2.75925 101.364 2.67966C101.947 2.60006 102.54 2.71657 103.05 3.01102L143.81 44.2139C144.179 44.5886 144.429 45.0642 144.53 45.5813C144.631 46.0983 144.578 46.6338 144.378 47.1209C144.179 47.608 143.84 48.025 143.406 48.3197C142.972 48.6145 142.46 48.7739 141.937 48.7781L142.103 48.6524Z" fill="#189E98"/>
<path d="M142.103 28.135C141.753 28.142 141.405 28.0747 141.082 27.9376C140.759 27.8006 140.469 27.5968 140.23 27.3394L119.912 6.82172C119.525 6.44479 119.26 5.96061 119.149 5.43104C119.037 4.90148 119.086 4.35058 119.287 3.84875C119.504 3.35265 119.86 2.93046 120.311 2.63322C120.761 2.33598 121.288 2.17641 121.827 2.17383H142.103C142.81 2.17383 143.488 2.45618 143.987 2.95875C144.487 3.46132 144.768 4.14294 144.768 4.85369C144.768 5.56443 144.487 6.24607 143.987 6.74864C143.488 7.25121 142.81 7.53357 142.103 7.53357H128.03L143.852 23.5709C144.101 23.8165 144.299 24.1097 144.434 24.4332C144.569 24.7568 144.639 25.1042 144.639 25.4551C144.639 25.8061 144.569 26.1535 144.434 26.4771C144.299 26.8006 144.101 27.0938 143.852 27.3394C143.395 27.8244 142.767 28.11 142.103 28.135Z" fill="#189E98"/>
<path d="M13.6179 107.693H6.99799L6.08202 109.912H0.960938L9.2879 90.8604H11.4529L19.7799 109.912H14.4923L13.6179 107.693ZM12.1191 104.05L10.2871 99.6118L8.49685 104.05H12.1191Z" fill="#1C4A9D"/>
<path d="M28.1068 100.659C28.1008 99.364 28.3535 98.0808 28.8499 96.8857C29.3463 95.6906 30.0763 94.6079 30.9965 93.7019C31.9168 92.7959 33.0087 92.085 34.2073 91.6114C35.4059 91.1377 36.6869 90.911 37.9743 90.9447C40.4243 91.0654 42.7473 92.0773 44.5109 93.792L41.8047 97.4768C40.7885 96.4397 39.4205 95.8265 37.9743 95.7601C36.6382 95.7601 35.3568 96.2939 34.412 97.244C33.4672 98.1942 32.9365 99.4829 32.9365 100.827C32.9365 102.17 33.4672 103.459 34.412 104.409C35.3568 105.359 36.6382 105.893 37.9743 105.893C39.4769 105.804 40.8901 105.146 41.9296 104.051L44.5942 107.861C42.834 109.621 40.4561 110.614 37.9743 110.625C36.6655 110.66 35.3634 110.425 34.1478 109.936C32.9323 109.447 31.8288 108.714 30.9049 107.781C29.9811 106.848 29.2564 105.735 28.7753 104.51C28.2941 103.286 28.0667 101.975 28.1068 100.659Z" fill="#1C4A9D"/>
<path d="M70.3663 91.2793V110.08H65.5783V103.004H60.4155V110.08H55.7524V91.2793H60.4155V98.3139H65.5783V91.2793H70.3663Z" fill="#1C4A9D"/>
<path d="M101.634 90.9443V109.913H96.9293V102.627L92.1829 109.745L87.3949 102.627V110.08H82.6902V90.9443H84.5637L92.1413 101.999L99.7605 90.9443H101.634Z" fill="#1C4A9D"/>
<path d="M113.958 91.2793H118.621V110.08H113.958V91.2793Z" fill="#1C4A9D"/>
<path d="M143.061 95.9272H138.897V110.08H134.109V95.9272H129.946V91.2793H143.144L143.061 95.9272Z" fill="#189E98"/>
<path d="M158.924 95.9272V98.5233H164.544V102.711H158.924V105.39H165.752V110.08H154.26V91.2793H165.752V95.9272H158.924Z" fill="#189E98"/>
<path d="M176.826 100.659C176.821 99.3743 177.07 98.1016 177.558 96.915C178.047 95.7283 178.766 94.6514 179.672 93.7471C180.579 92.8428 181.656 92.1292 182.84 91.648C184.024 91.1667 185.292 90.9275 186.569 90.9442C189.017 91.0724 191.338 92.0832 193.106 93.7915L190.399 97.4763C189.379 96.446 188.013 95.8341 186.569 95.7596C185.233 95.7596 183.951 96.2934 183.007 97.2435C182.062 98.1937 181.531 99.4824 181.531 100.826C181.531 102.17 182.062 103.459 183.007 104.409C183.951 105.359 185.233 105.893 186.569 105.893C188.075 105.76 189.474 105.057 190.483 103.925L193.147 107.735C191.382 109.487 189.007 110.479 186.527 110.499C185.243 110.51 183.97 110.263 182.782 109.771C181.595 109.28 180.517 108.554 179.613 107.637C178.709 106.72 177.996 105.63 177.518 104.431C177.039 103.233 176.804 101.95 176.826 100.659Z" fill="#189E98"/>
<path d="M218.961 91.2793V110.08H214.298V103.004H209.01V110.08H204.306V91.2793H209.01V98.3139H214.298V91.2793H218.961Z" fill="#189E98"/>
</g>
<defs>
<clipPath id="clip0_246_384">
<rect width="218" height="110" fill="white" transform="translate(0.960938 0.499023)"/>
</clipPath>
</defs>
</svg>
