<svg width="310" height="158" viewBox="0 0 310 158" fill="none" xmlns="http://www.w3.org/2000/svg">
<g clip-path="url(#clip0_246_582)">
<path d="M109.537 100.573C108.77 100.574 108.019 100.344 107.38 99.9126C106.741 99.4813 106.241 98.8678 105.944 98.1491C105.646 97.4304 105.564 96.6385 105.708 95.8727C105.852 95.1069 106.215 94.4012 106.752 93.8443L139.497 59.8078C140.202 59.0758 141.165 58.6583 142.172 58.6472C143.18 58.6362 144.151 59.0323 144.872 59.7487C145.592 60.465 146.003 61.4428 146.014 62.4669C146.025 63.491 145.635 64.4776 144.93 65.2096L118.373 92.8077L191.073 92.3961L106.615 6.58983C106.263 6.23143 105.983 5.80595 105.792 5.33767C105.601 4.86939 105.503 4.3675 105.503 3.86064C105.503 3.35378 105.601 2.85189 105.792 2.38361C105.983 1.91533 106.263 1.48985 106.615 1.13145C106.968 0.773043 107.387 0.48874 107.848 0.294774C108.309 0.100808 108.803 0.000976546 109.301 0.000976562C109.8 0.000976579 110.294 0.100808 110.755 0.294774C111.216 0.48874 111.635 0.773043 111.988 1.13145L202.706 93.3041C203.251 93.8559 203.622 94.5591 203.774 95.3251C203.926 96.0912 203.851 96.8857 203.559 97.6085C203.266 98.3313 202.77 98.9499 202.132 99.3865C201.494 99.8231 200.744 100.058 199.975 100.062L109.56 100.576L109.537 100.573Z" fill="white"/>
<path d="M200.696 69.1914C200.197 69.193 199.702 69.0945 199.24 68.9016C198.779 68.7087 198.359 68.4252 198.005 68.0673L140.029 8.90477C139.677 8.54569 139.398 8.1197 139.208 7.65112C139.018 7.18255 138.921 6.68056 138.922 6.17382C138.923 5.66708 139.022 5.16552 139.214 4.69776C139.406 4.23001 139.687 3.80523 140.04 3.44767C140.394 3.09011 140.813 2.80678 141.274 2.61385C141.735 2.42092 142.229 2.32218 142.728 2.32325C143.227 2.32433 143.72 2.4252 144.181 2.62011C144.641 2.81503 145.059 3.10016 145.411 3.45924L203.387 62.6218C203.916 63.1621 204.276 63.8496 204.421 64.5974C204.566 65.3453 204.49 66.12 204.202 66.8239C203.914 67.5278 203.428 68.1292 202.804 68.5524C202.18 68.9756 201.446 69.2015 200.696 69.2017V69.1914Z" fill="white"/>
<path d="M200.696 39.8674C200.197 39.869 199.702 39.7705 199.24 39.5776C198.778 39.3847 198.359 39.1012 198.005 38.7433L169.113 9.24947C168.573 8.70127 168.206 8.00272 168.057 7.24225C167.909 6.48178 167.985 5.69359 168.278 4.97749C168.57 4.26138 169.065 3.64956 169.7 3.21949C170.335 2.78942 171.082 2.56043 171.845 2.56153H200.706C201.713 2.56153 202.679 2.96804 203.391 3.69164C204.104 4.41523 204.504 5.39664 204.504 6.41995C204.504 7.44327 204.104 8.42468 203.391 9.14827C202.679 9.87187 201.713 10.2784 200.706 10.2784H180.847L203.38 33.2798C203.909 33.8201 204.269 34.5075 204.414 35.2554C204.559 36.0033 204.482 36.778 204.194 37.4819C203.907 38.1858 203.42 38.7872 202.796 39.2104C202.172 39.6336 201.439 39.8595 200.688 39.8597L200.696 39.8674Z" fill="white"/>
<path d="M17.9878 154.239H8.58755L7.30651 157.388H0L11.7041 130.06H14.8738L26.5855 157.393H19.2511L17.9878 154.239ZM15.8637 148.997L13.2864 142.599L10.6914 149.007L15.8637 148.997Z" fill="white"/>
<path d="M38.7605 143.898C38.7605 135.909 44.7885 129.764 52.6267 129.764C55.8748 129.813 59.3559 131.338 61.9332 133.848L58.0926 139.142C56.5457 137.635 54.5001 136.647 52.6419 136.647C51.7022 136.648 50.772 136.838 49.9051 137.207C49.0381 137.575 48.2517 138.114 47.5911 138.793C46.9305 139.472 46.409 140.278 46.0565 141.163C45.7041 142.048 45.5278 142.995 45.5379 143.95C45.5379 148.138 48.9101 151.219 52.5026 151.219C54.609 151.219 56.4976 150.149 58.123 148.59L61.9206 154.033C59.5154 156.379 56.3154 158.002 52.49 158.002C45.3961 158 38.7605 152.371 38.7605 143.898Z" fill="white"/>
<path d="M98.7113 130.399V157.408H92.0427V147.232H84.5641V157.398H77.8804V130.389H84.5641V140.521H92.0427V130.399H98.7113Z" fill="white"/>
<path d="M143.171 130.149V157.398H136.489V146.694L129.712 156.945H129.664L122.871 146.694V157.398H116.19V130.149H118.876L129.682 146.026L140.484 130.149H143.171Z" fill="white"/>
<path d="M160.649 130.399H167.333V157.408H160.649V130.399Z" fill="white"/>
<path d="M202.051 137.1H196.025V157.398H189.326V137.1H183.283V130.412H202.051V137.1Z" fill="white"/>
<path d="M224.606 137.064V140.835H232.601V146.813H224.606V150.672H234.317V157.388H218V130.379H234.317V137.044L224.606 137.064Z" fill="white"/>
<path d="M250.049 143.898C250.049 135.909 256.075 129.764 263.913 129.764C267.161 129.813 270.645 131.338 273.22 133.848L269.379 139.142C267.832 137.635 265.789 136.647 263.931 136.647C262.991 136.648 262.061 136.838 261.193 137.207C260.326 137.575 259.54 138.114 258.879 138.793C258.218 139.472 257.696 140.278 257.344 141.163C256.991 142.048 256.814 142.995 256.824 143.95C256.824 148.138 260.199 151.219 263.789 151.219C265.898 151.219 267.786 150.149 269.409 148.59L273.207 154.033C270.802 156.379 267.602 158.002 263.776 158.002C256.685 158 250.049 152.371 250.049 143.898Z" fill="white"/>
<path d="M309.997 130.399V157.408H303.331V147.232H295.853V157.398H289.179V130.389H295.863V140.521H303.342V130.399H309.997Z" fill="white"/>
</g>
<defs>
<clipPath id="clip0_246_582">
<rect width="310" height="158" fill="white"/>
</clipPath>
</defs>
</svg>
